<?xml version="1.0" encoding="UTF-8" standalone="no"?><!DOCTYPE svg PUBLIC "-//W3C//DTD SVG 1.1//EN" "http://www.w3.org/Graphics/SVG/1.1/DTD/svg11.dtd"><svg width="100%" height="100%" viewBox="0 0 1217 1005" version="1.1" xmlns="http://www.w3.org/2000/svg" xmlns:xlink="http://www.w3.org/1999/xlink" xml:space="preserve" xmlns:serif="http://www.serif.com/" style="fill-rule:evenodd;clip-rule:evenodd;stroke-linecap:round;stroke-linejoin:bevel;"><g><path d="M8.963,779.308l1197.92,0" style="fill:none;stroke:#d082c4;stroke-width:17.92px;"/><path d="M8.963,640.521l1197.92,-0" style="fill:none;stroke:#d082c4;stroke-width:17.92px;"/><path d="M8.963,501.738l1197.92,-0" style="fill:none;stroke:#d082c4;stroke-width:17.92px;"/><path d="M8.963,362.95l1197.92,0" style="fill:none;stroke:#d082c4;stroke-width:17.92px;"/><path d="M8.963,224.163l1197.92,-0" style="fill:none;stroke:#d082c4;stroke-width:17.92px;"/></g><g><path d="M302.088,482.892c7.512,-1.154 15.02,-1.734 22.529,-1.734c73.37,-0.575 124.783,65.28 124.208,139.805c0,61.812 -36.975,107.45 -91.854,134.025l23.104,117.27c1.733,9.821 1.733,18.488 1.733,26.575c0,58.925 -36.971,97.05 -98.204,103.405c-47.95,5.2 -102.829,-27.73 -108.029,-79.721c-3.467,-34.663 20.217,-70.475 53.725,-74.521c30.617,-3.467 58.346,23.683 59.5,55.458c1.733,44.484 -42.171,58.925 -58.921,54.879c1.733,19.642 35.817,27.155 51.992,25.421c53.725,-6.358 79.141,-39.287 80.875,-86.079c-0,-12.708 -1.154,-27.729 -4.621,-42.171l-19.642,-92.433c-18.487,5.204 -36.396,7.512 -53.725,7.512c-99.362,0 -180.241,-84.341 -188.329,-193.525c-8.662,-112.65 82.033,-196.416 151.933,-268.05c-10.4,-42.75 -16.75,-84.341 -16.75,-128.245c0,-52.571 24.263,-160.025 79.142,-180.242c23.683,-9.242 67.592,106.871 66.433,170.996c-1.154,80.875 -38.129,158.287 -94.741,214.325l19.641,97.05m-5.195,68.746c-32.35,9.82 -60.084,43.329 -59.505,79.145c0,30.617 20.217,50.259 45.638,62.392c2.887,1.154 4.046,3.467 4.046,5.775c-0,3.467 -4.046,6.354 -8.092,5.779c-43.904,-15.021 -75.1,-57.771 -74.521,-106.3c0,-47.366 37.55,-95.316 79.721,-110.916l-17.329,-87.23c-61.238,54.305 -128.825,119.005 -129.404,208.55c-0,90.117 76.254,145.575 158.866,142.109c13.288,-0.575 25.996,-2.888 38.705,-6.929l-38.125,-192.376m56.612,-428.645c-0.579,-18.488 -11.554,-36.971 -31.775,-36.971c-48.525,9.821 -65.854,93.008 -67.012,134.6c-0,24.262 4.045,49.104 9.82,72.787c46.217,-39.858 91.28,-105.137 88.967,-170.416m0,615.241c34.663,-18.483 58.346,-56.037 56.613,-97.629c-4.042,-53.15 -43.325,-91.854 -94.742,-91.275l38.129,188.904" style="fill:#d4d4d4;fill-rule:nonzero;"/></g><g><g><path d="M919.417,158.613l-14.442,5.554c-4.446,1.666 -7.225,12.221 -7.225,16.112l0,51.667c0,6.667 3.892,10 7.225,10l14.442,-5.559c1.112,-0.554 1.666,-0.554 2.779,-0.554c2.221,0 3.887,1.667 3.887,4.446l0,39.442c0,3.333 -2.775,7.779 -6.666,9.446c-0,-0 -11.667,4.445 -15.554,6.112c-3.888,1.667 -6.113,8.333 -6.113,12.775l0,78.892c0,3.333 -3.333,6.108 -9.442,6.108c-3.891,0 -7.225,-2.775 -7.225,-6.108l0,-69.446c0,-3.333 -2.775,-10 -7.775,-10l-1.112,0.554l-0.554,0l-33.892,13.892c-2.775,1.108 -5.554,5 -5.554,12.221l-0,77.22c-0,3.334 -3.888,6.113 -9.446,6.113c-3.888,-0 -7.221,-2.779 -7.221,-6.113l0,-68.333c0,-2.775 -2.779,-8.887 -6.667,-8.887c-0.554,-0 -1.112,-0 -1.666,0.554c-5,1.666 -12.779,5 -13.333,5l-1.113,0.558c-3.333,0 -5,-1.667 -5,-5l0,-39.446c0,-3.333 2.779,-7.779 6.667,-8.887c-0,-0 11.666,-5 15,-6.113c3.333,-1.666 6.112,-6.666 6.112,-12.779l0,-55c0,-4.442 -3.333,-10 -7.779,-10l-0.554,0.558c-4.446,2.221 -12.779,5.555 -13.333,5.555l-1.113,0.554c-3.333,-0 -5,-1.667 -5,-5l0,-39.442c0,-3.333 2.779,-7.779 6.667,-8.892c-0,0 11.112,-4.441 14.446,-6.108c3.333,-1.667 6.666,-7.225 6.666,-15l0,-75c0,-3.333 3.334,-6.112 8.888,-6.112c3.891,-0 7.779,2.779 7.779,6.112l-0,66.667c-0,4.441 1.667,11.108 6.667,11.108c9.445,-2.221 28.333,-10 35,-13.887c5,-3.334 6.666,-10.555 7.22,-16.113l0,-72.221c0,-3.333 3.334,-6.112 8.892,-6.112c4.442,-0 7.775,2.779 7.775,6.112l0,67.779c0,4.442 3.892,7.221 7.779,7.221c2.779,-0.554 13.888,-5 13.888,-5c1.112,-0.554 1.666,-0.554 2.779,-0.554c2.221,0 3.887,1.667 3.887,4.442l0,39.446c0,3.333 -2.775,7.779 -6.666,9.445Zm-38.334,90.555c1.113,-5 2.225,-20.554 2.225,-35.554c0,-15 -1.112,-28.892 -2.225,-31.667c-1.108,-2.225 -4.441,-3.333 -8.333,-3.333c-13.887,-0 -39.442,11.666 -40.554,21.108c-1.113,4.446 -1.667,23.892 -1.667,41.112c0,13.334 0.554,25.555 1.667,27.78c0.554,1.666 3.333,2.775 6.667,2.775c12.779,-0 38.887,-11.109 42.22,-22.221Z" style="fill:#d4d4d4;fill-rule:nonzero;"/></g></g><g><g><path d="M1123.42,366.946l-14.446,5.554c-4.442,1.667 -7.221,12.221 -7.221,16.113l0,51.666c0,6.667 3.888,10 7.221,10l14.446,-5.558c1.112,-0.554 1.666,-0.554 2.779,-0.554c2.221,-0 3.887,1.666 3.887,4.445l0,39.442c0,3.333 -2.779,7.779 -6.666,9.446c-0,-0 -11.667,4.446 -15.554,6.112c-3.892,1.667 -6.113,8.334 -6.113,12.775l0,78.892c0,3.334 -3.333,6.109 -9.446,6.109c-3.887,-0 -7.221,-2.775 -7.221,-6.109l0,-69.446c0,-3.333 -2.779,-10 -7.779,-10l-1.108,0.554l-0.559,0l-33.887,13.892c-2.779,1.108 -5.554,5 -5.554,12.221l-0,77.221c-0,3.333 -3.892,6.112 -9.446,6.112c-3.888,0 -7.221,-2.779 -7.221,-6.112l0,-68.333c0,-2.775 -2.779,-8.888 -6.667,-8.888c-0.558,0 -1.112,0 -1.666,0.554c-5,1.667 -12.779,5 -13.334,5l-1.112,0.558c-3.333,0 -5,-1.666 -5,-5l-0,-39.445c-0,-3.334 2.779,-7.78 6.667,-8.888c-0,0 11.666,-5 15,-6.112c3.333,-1.667 6.112,-6.667 6.112,-12.779l0,-55c0,-4.442 -3.333,-10 -7.779,-10l-0.554,0.558c-4.446,2.221 -12.779,5.554 -13.334,5.554l-1.112,0.554c-3.333,0 -5,-1.666 -5,-5l-0,-39.441c-0,-3.334 2.779,-7.78 6.667,-8.892c-0,-0 11.112,-4.442 14.445,-6.108c3.334,-1.667 6.667,-7.225 6.667,-15l0,-75c0,-3.334 3.333,-6.113 8.888,-6.113c3.887,0 7.779,2.779 7.779,6.113l-0,66.666c-0,4.442 1.666,11.109 6.666,11.109c9.442,-2.221 28.334,-10 35,-13.888c5,-3.333 6.667,-10.554 7.221,-16.112l0,-72.221c0,-3.334 3.334,-6.113 8.888,-6.113c4.446,0 7.779,2.779 7.779,6.113l0,67.779c0,4.442 3.887,7.221 7.779,7.221c2.775,-0.554 13.888,-5 13.888,-5c1.112,-0.554 1.666,-0.554 2.779,-0.554c2.221,-0 3.887,1.666 3.887,4.441l0,39.446c0,3.333 -2.779,7.779 -6.666,9.446Zm-38.334,90.554c1.113,-5 2.221,-20.554 2.221,-35.554c0,-15 -1.108,-28.892 -2.221,-31.667c-1.112,-2.225 -4.445,-3.333 -8.333,-3.333c-13.887,-0 -39.446,11.667 -40.554,21.108c-1.113,4.446 -1.667,23.892 -1.667,41.113c0,13.333 0.554,25.554 1.667,27.779c0.554,1.667 3.333,2.775 6.667,2.775c12.775,-0 38.887,-11.108 42.22,-22.221Z" style="fill:#d4d4d4;fill-rule:nonzero;"/></g></g><g><g><path d="M719.308,330.279l0,26.667c0,2.221 -1.666,4.442 -5.554,5.554c0,0 -77.225,30 -78.892,30.554c-1.666,0.559 -3.333,1.667 -3.333,5.559l0,5.554l-1.108,17.779l-0,5.554c-0,3.888 2.221,7.779 6.108,8.888c1.113,0.558 2.225,0.558 3.333,0.558c2.226,-0 8.334,-4.446 12.226,-7.225c7.22,-3.888 13.333,-6.108 20,-7.775c3.333,-1.113 7.22,-1.667 10.554,-1.667c25.554,1.667 50,21.109 50,52.775c-0,25.559 -17.221,60 -66.667,94.446c-13.887,9.446 -27.779,25 -44.446,33.888c0,-0 -1.666,1.112 -3.333,1.112c-1.108,0 -2.775,-0.554 -4.442,-2.779c-2.779,-3.333 -4.446,-106.108 -5.558,-193.888c-0,-1.112 -1.109,-2.22 -3.334,-2.22c-1.108,1.108 -26.666,10.554 -27.775,10.554c-2.779,-0 -3.891,-2.221 -3.891,-4.446l-0,-27.775c-0,-2.779 1.666,-3.892 5,-4.446l25,-9.446c4.446,-1.666 4.446,-6.666 4.446,-8.333c-0.555,-47.775 -0.555,-82.775 -0.555,-82.775c0.555,-10 9.442,-15.558 16.667,-15.558c5.554,-0 10.554,3.333 10.554,9.445c0,5.555 -1.112,43.888 -1.666,80.555c-0,1.666 0.554,3.333 3.333,3.333c2.221,-1.108 77.779,-28.888 77.779,-28.888c0.554,-0.554 1.667,-0.554 2.221,-0.554c2.779,0 3.333,3.334 3.333,5Zm-75.554,226.667c26.108,-14.446 50.554,-44.446 50.554,-75.558c0,-14.442 -5.554,-31.667 -22.221,-31.667c-13.891,-0 -36.112,15 -40,27.225c-0.558,2.221 -1.112,8.887 -1.112,17.775c-0,22.225 1.667,55.558 1.667,55.558c-0,3.334 1.112,8.334 5.554,8.334c1.666,-0 3.333,-0.559 5.558,-1.667Z" style="fill:#d4d4d4;fill-rule:nonzero;"/></g></g></svg>