<?xml version="1.0" encoding="UTF-8" standalone="no"?><!DOCTYPE svg PUBLIC "-//W3C//DTD SVG 1.1//EN" "http://www.w3.org/Graphics/SVG/1.1/DTD/svg11.dtd"><svg width="100%" height="100%" viewBox="0 0 1217 1005" version="1.1" xmlns="http://www.w3.org/2000/svg" xmlns:xlink="http://www.w3.org/1999/xlink" xml:space="preserve" xmlns:serif="http://www.serif.com/" style="fill-rule:evenodd;clip-rule:evenodd;stroke-linecap:round;stroke-linejoin:bevel;"><g><path d="M8.963,779.308l1197.92,0" style="fill:none;stroke:#d082c4;stroke-width:17.92px;"/><path d="M8.963,640.521l1197.92,-0" style="fill:none;stroke:#d082c4;stroke-width:17.92px;"/><path d="M8.963,501.738l1197.92,-0" style="fill:none;stroke:#d082c4;stroke-width:17.92px;"/><path d="M8.963,362.95l1197.92,0" style="fill:none;stroke:#d082c4;stroke-width:17.92px;"/><path d="M8.963,224.163l1197.92,-0" style="fill:none;stroke:#d082c4;stroke-width:17.92px;"/></g><g><g><path d="M597.225,599.721c-4.446,-5.554 -6.667,-322.775 -6.667,-322.775c0.555,-10 9.446,-15.558 17.221,-15.558c5.559,-0 10.559,3.333 10.559,9.445c-0,11.113 -3.334,144.446 -3.892,156.667c-0,3.888 2.225,7.779 6.112,9.446c1.113,0.554 1.667,0.554 2.78,0.554c2.775,0 8.887,-5 12.22,-7.779c7.78,-5 21.113,-9.442 30.555,-9.442c25.558,1.667 50,21.667 50,53.333c-0,25.555 -17.221,59.442 -66.667,93.888c-13.888,9.446 -27.221,24.446 -43.888,33.888c0,-0 -1.666,1.112 -3.333,1.112c-1.667,0 -3.333,-0.554 -5,-2.779Zm19.446,-49.442c-0,2.775 1.108,8.334 6.108,8.334c1.667,-0 3.334,-0.559 5.559,-1.667c23.887,-15 49.441,-45 49.441,-75c0,-13.892 -6.666,-32.225 -22.775,-32.225c-12.779,-0 -35,16.112 -38.891,27.225c-0.555,2.221 -1.109,8.887 -1.109,17.775c0,22.225 1.667,55.558 1.667,55.558Z" style="fill:#d4d4d4;fill-rule:nonzero;"/></g></g><g><g><path d="M822.921,374.029c-4.446,-5.558 -6.667,-322.779 -6.667,-322.779c0.554,-10 9.442,-15.554 17.221,-15.554c5.554,-0 10.554,3.333 10.554,9.441c0,11.113 -3.333,144.446 -3.887,156.667c-0,3.892 2.221,7.779 6.112,9.446c1.109,0.554 1.667,0.554 2.775,0.554c2.779,0 8.892,-5 12.225,-7.775c7.775,-5 21.109,-9.446 30.554,-9.446c25.555,1.667 50,21.667 50,53.334c0,25.554 -17.22,59.446 -66.666,93.887c-13.888,9.446 -27.221,24.446 -43.888,33.892c0,-0 -1.666,1.108 -3.333,1.108c-1.667,0 -3.333,-0.554 -5,-2.775Zm19.442,-49.446c-0,2.78 1.112,8.334 6.112,8.334c1.667,-0 3.333,-0.554 5.554,-1.667c23.892,-15 49.446,-45 49.446,-75c0,-13.888 -6.667,-32.221 -22.779,-32.221c-12.775,0 -35,16.108 -38.888,27.221c-0.554,2.221 -1.112,8.887 -1.112,17.779c-0,22.221 1.667,55.554 1.667,55.554Z" style="fill:#d4d4d4;fill-rule:nonzero;"/></g></g><g><path d="M302.088,482.892c7.512,-1.154 15.02,-1.734 22.529,-1.734c73.37,-0.575 124.783,65.28 124.208,139.805c0,61.812 -36.975,107.45 -91.854,134.025l23.104,117.27c1.733,9.821 1.733,18.488 1.733,26.575c0,58.925 -36.971,97.05 -98.204,103.405c-47.95,5.2 -102.829,-27.73 -108.029,-79.721c-3.467,-34.663 20.217,-70.475 53.725,-74.521c30.617,-3.467 58.346,23.683 59.5,55.458c1.733,44.484 -42.171,58.925 -58.921,54.879c1.733,19.642 35.817,27.155 51.992,25.421c53.725,-6.358 79.141,-39.287 80.875,-86.079c-0,-12.708 -1.154,-27.729 -4.621,-42.171l-19.642,-92.433c-18.487,5.204 -36.396,7.512 -53.725,7.512c-99.362,0 -180.241,-84.341 -188.329,-193.525c-8.662,-112.65 82.033,-196.416 151.933,-268.05c-10.4,-42.75 -16.75,-84.341 -16.75,-128.245c0,-52.571 24.263,-160.025 79.142,-180.242c23.683,-9.242 67.592,106.871 66.433,170.996c-1.154,80.875 -38.129,158.287 -94.741,214.325l19.641,97.05m-5.195,68.746c-32.35,9.82 -60.084,43.329 -59.505,79.145c0,30.617 20.217,50.259 45.638,62.392c2.887,1.154 4.046,3.467 4.046,5.775c-0,3.467 -4.046,6.354 -8.092,5.779c-43.904,-15.021 -75.1,-57.771 -74.521,-106.3c0,-47.366 37.55,-95.316 79.721,-110.916l-17.329,-87.23c-61.238,54.305 -128.825,119.005 -129.404,208.55c-0,90.117 76.254,145.575 158.866,142.109c13.288,-0.575 25.996,-2.888 38.705,-6.929l-38.125,-192.376m56.612,-428.645c-0.579,-18.488 -11.554,-36.971 -31.775,-36.971c-48.525,9.821 -65.854,93.008 -67.012,134.6c-0,24.262 4.045,49.104 9.82,72.787c46.217,-39.858 91.28,-105.137 88.967,-170.416m0,615.241c34.663,-18.483 58.346,-56.037 56.613,-97.629c-4.042,-53.15 -43.325,-91.854 -94.742,-91.275l38.129,188.904" style="fill:#d4d4d4;fill-rule:nonzero;"/></g></svg>