<?xml version="1.0" encoding="UTF-8" standalone="no"?><!DOCTYPE svg PUBLIC "-//W3C//DTD SVG 1.1//EN" "http://www.w3.org/Graphics/SVG/1.1/DTD/svg11.dtd"><svg width="100%" height="100%" viewBox="0 0 1217 1005" version="1.1" xmlns="http://www.w3.org/2000/svg" xmlns:xlink="http://www.w3.org/1999/xlink" xml:space="preserve" xmlns:serif="http://www.serif.com/" style="fill-rule:evenodd;clip-rule:evenodd;stroke-linecap:round;stroke-linejoin:bevel;"><g><path d="M8.963,779.308l1197.92,0" style="fill:none;stroke:#d082c4;stroke-width:17.92px;"/><path d="M8.963,640.521l1197.92,-0" style="fill:none;stroke:#d082c4;stroke-width:17.92px;"/><path d="M8.963,501.738l1197.92,-0" style="fill:none;stroke:#d082c4;stroke-width:17.92px;"/><path d="M8.963,362.95l1197.92,0" style="fill:none;stroke:#d082c4;stroke-width:17.92px;"/><path d="M8.963,224.163l1197.92,-0" style="fill:none;stroke:#d082c4;stroke-width:17.92px;"/></g><g><g><path d="M709.029,599.721c-1.666,2.225 -3.333,2.779 -5,2.779c-1.666,0 -3.333,-1.112 -3.333,-1.112c-16.667,-9.442 -30,-24.442 -43.888,-33.888c-49.445,-34.446 -66.666,-68.333 -66.666,-95c-0,-30.554 24.446,-50.554 50,-52.221c9.446,0 22.779,4.442 30.554,9.442c3.333,2.779 9.446,7.779 12.225,7.779c1.108,0 1.667,0 2.775,-0.554c3.892,-1.667 6.112,-5.558 6.112,-9.446c-0.554,-12.221 -3.887,-145.554 -3.887,-156.667c-0,-6.112 5,-9.445 10.554,-9.445c7.779,-0 16.667,5.558 17.221,15.558c-0,-0 -2.221,317.221 -6.667,322.775Zm-19.441,-49.442c-0,0 1.666,-33.333 1.666,-55.558c0,-8.888 -0.558,-15.554 -1.112,-17.775c-3.888,-11.113 -26.113,-27.225 -38.888,-27.225c-16.112,-0 -22.779,18.333 -22.779,32.225c0,30 25.554,60 49.446,75c2.221,1.108 3.887,1.666 5.554,1.666c5,0 6.113,-5.558 6.113,-8.333Z" style="fill:#d4d4d4;fill-rule:nonzero;"/></g></g><g><path d="M302.088,482.892c7.512,-1.154 15.02,-1.734 22.529,-1.734c73.37,-0.575 124.783,65.28 124.208,139.805c0,61.812 -36.975,107.45 -91.854,134.025l23.104,117.27c1.733,9.821 1.733,18.488 1.733,26.575c0,58.925 -36.971,97.05 -98.204,103.405c-47.95,5.2 -102.829,-27.73 -108.029,-79.721c-3.467,-34.663 20.217,-70.475 53.725,-74.521c30.617,-3.467 58.346,23.683 59.5,55.458c1.733,44.484 -42.171,58.925 -58.921,54.879c1.733,19.642 35.817,27.155 51.992,25.421c53.725,-6.358 79.141,-39.287 80.875,-86.079c-0,-12.708 -1.154,-27.729 -4.621,-42.171l-19.642,-92.433c-18.487,5.204 -36.396,7.512 -53.725,7.512c-99.362,0 -180.241,-84.341 -188.329,-193.525c-8.662,-112.65 82.033,-196.416 151.933,-268.05c-10.4,-42.75 -16.75,-84.341 -16.75,-128.245c0,-52.571 24.263,-160.025 79.142,-180.242c23.683,-9.242 67.592,106.871 66.433,170.996c-1.154,80.875 -38.129,158.287 -94.741,214.325l19.641,97.05m-5.195,68.746c-32.35,9.82 -60.084,43.329 -59.505,79.145c0,30.617 20.217,50.259 45.638,62.392c2.887,1.154 4.046,3.467 4.046,5.775c-0,3.467 -4.046,6.354 -8.092,5.779c-43.904,-15.021 -75.1,-57.771 -74.521,-106.3c0,-47.366 37.55,-95.316 79.721,-110.916l-17.329,-87.23c-61.238,54.305 -128.825,119.005 -129.404,208.55c-0,90.117 76.254,145.575 158.866,142.109c13.288,-0.575 25.996,-2.888 38.705,-6.929l-38.125,-192.376m56.612,-428.645c-0.579,-18.488 -11.554,-36.971 -31.775,-36.971c-48.525,9.821 -65.854,93.008 -67.012,134.6c-0,24.262 4.045,49.104 9.82,72.787c46.217,-39.858 91.28,-105.137 88.967,-170.416m0,615.241c34.663,-18.483 58.346,-56.037 56.613,-97.629c-4.042,-53.15 -43.325,-91.854 -94.742,-91.275l38.129,188.904" style="fill:#d4d4d4;fill-rule:nonzero;"/></g></svg>