<?xml version="1.0" encoding="UTF-8" standalone="no"?><!DOCTYPE svg PUBLIC "-//W3C//DTD SVG 1.1//EN" "http://www.w3.org/Graphics/SVG/1.1/DTD/svg11.dtd"><svg width="100%" height="100%" viewBox="0 0 413 900" version="1.1" xmlns="http://www.w3.org/2000/svg" xmlns:xlink="http://www.w3.org/1999/xlink" xml:space="preserve" style="fill-rule:evenodd;clip-rule:evenodd;stroke-linejoin:round;stroke-miterlimit:2;"><g id="Layer-1"><g id="use980"><path id="path996" d="M408.425,38.85c3.258,-5.908 -1.892,-12.954 -10.329,-3.35c-13.571,15.45 -27.525,25.738 -35.808,30.379c-23.371,13.092 -52.992,26.917 -73.917,25.892c1.55,-5.938 2.383,-12.05 2.383,-18.192c0,-40.633 -32.941,-73.571 -73.571,-73.579l-0.008,0c-40.642,-0.004 -73.596,32.938 -73.6,73.579c0,40.654 32.954,73.071 73.608,73.609c46.292,0.595 93.321,-18.275 122.984,-43.23c-5.263,35.171 -38.371,135.55 -58.513,196.996c-20.854,10.742 -44.3,20.179 -61.721,19.329c1.55,-5.941 2.38,-12.054 2.38,-18.191c-0,-40.638 -32.946,-73.575 -73.58,-73.584l0.005,0c-40.646,-0.008 -73.6,32.934 -73.609,73.58c-0.004,40.654 32.959,73.07 73.609,73.608c46.295,0.596 93.316,-18.275 122.983,-43.229c-5.625,37.562 -42.625,139.504 -64.604,205.645c-21.046,10.909 -44.671,20.663 -62.309,19.8c1.55,-5.941 2.38,-12.049 2.38,-18.191c-0,-40.638 -32.946,-73.575 -73.58,-73.583c-40.646,-0.005 -73.6,32.933 -73.608,73.583c-0.008,40.658 32.954,73.071 73.608,73.608c44.73,0.596 91.888,-17.091 121.792,-40.791c-32.138,93.508 -95.413,280.583 -109.038,312.287c-5.82,13.533 47.53,15.446 50.067,3.267c15.363,-73.704 265.913,-838.213 271.996,-849.242Z" style="fill:#d082c4;fill-rule:nonzero;"/></g></g></svg>