<?xml version="1.0" encoding="UTF-8" standalone="no"?><!DOCTYPE svg PUBLIC "-//W3C//DTD SVG 1.1//EN" "http://www.w3.org/Graphics/SVG/1.1/DTD/svg11.dtd"><svg width="100%" height="100%" viewBox="0 0 64 75" version="1.1" xmlns="http://www.w3.org/2000/svg" xmlnsXlink="http://www.w3.org/1999/xlink" xmlSpace="preserve" xmlnsSerif="http://www.serif.com/" style="fill-rule:evenodd;clip-rule:evenodd;stroke-linejoin:round;stroke-miterlimit:2;"><g id="layer1"><path id="path51" d="M63.633,11.8c0,1.4 -1.2,2.6 -2.6,2.6l-23,0c-1.5,0 -2.6,-1.2 -2.6,-2.6l0,-9.2c0,-1.5 1.1,-2.6 2.6,-2.6l23,0c1.4,0 2.6,1.1 2.6,2.6l0,9.2Zm-11.3,27.211l0,1.001c3.3,-0 8.3,-6 9,-6.6c0.6,-0.401 0.9,-0.401 1.1,-0.401c0.2,0.095 1.2,0.6 1.2,1.6c-0.094,0.5 -0.6,2.101 -1,3.901c-0,-0 -9.8,35.1 -10.1,35.299c-1.001,0.8 -2.4,1.001 -3.5,1.001c-0.6,-0 -2.9,-0.095 -2.9,-1.3c1.8,-6.6 9,-26.5 9.3,-28c0.094,-0.401 0.094,-0.8 0.094,-1.1c0,-0.499 -0.094,-0.9 -0.499,-0.9c-0.095,0 -0.3,0 -0.5,0.095c-1.3,0.7 -2.2,1.099 -3.6,1.5c-1.1,0.4 -2.5,0.7 -3.9,0.7c-1.9,0 -3.8,-0.6 -5.4,-1.7c-1.5,-1.2 -2.7,-3 -2.7,-5.1c-0,-3.7 3,-6.7 6.7,-6.7c3.7,-0 6.7,3 6.7,6.7l0.005,0.004Zm-44.645,2.089l-4.9,-6c0,0 -1,-1 -1,-2.4c-0,-0.8 0.4,-1.9 1.4,-2.9c4.5,-4.7 6,-9 6,-12.7c-0,-7.2 -5.7,-12.3 -6.1,-13.4c-0.3,-0.6 -0.4,-1.1 -0.4,-1.6c-0,-1.4 1,-2.1 2,-2.1c0.6,-0 1.3,0.3 1.8,0.8c1.7,1.7 16.5,19.3 16.5,19.3c-0,-0 0.4,0.9 0.4,1.9c-0,0.499 -0.095,1 -0.4,1.5c-2.6,4.1 -6.2,8.9 -6.6,14.7l-0,0.3l-0.095,0.7l0,0.3c0,5.6 3.1,9.3 6.9,13.9c1.1,1.2 3.7,4.5 3.7,5.7c-0,0.3 -0.2,0.4 -0.5,0.4c-0.199,0 -0.4,0 -0.799,-0.094l-0.095,-0.095c-1.7,-0.6 -5,-1.7 -7.9,-1.7c-4.2,0 -6.3,3.2 -6.3,7.3c0,0.9 0.095,1.8 0.401,2.6c0.199,0.9 1.3,3.6 2.6,3.6c0.799,0.701 1.6,1.5 1.6,2.4c-0,0.2 -0.095,0.401 -0.2,0.701c-0.094,0.4 -0.8,0.6 -1.5,0.6c-0.8,-0 -1.8,-0.3 -2.6,-0.9c-7.3,-5.6 -11.6,-10.5 -11.6,-15.5c-0,-4.9 3.4,-9.6 8.6,-9.6l0.8,0.3l0.4,-0c0.4,0.094 1.2,0.3 1.6,0.3c0.5,-0 0.9,-0.095 1.1,-0.5c0.094,-0.094 0.094,-0.3 0.094,-0.4c0,-0.2 -0.4,-1 -0.6,-1.4c-1.3,-2.1 -2.7,-4 -4.3,-6l-0.006,-0.012Z" style="fill-rule:nonzero;"/></g></svg>