<?xml version="1.0" encoding="UTF-8" standalone="no"?><!DOCTYPE svg PUBLIC "-//W3C//DTD SVG 1.1//EN" "http://www.w3.org/Graphics/SVG/1.1/DTD/svg11.dtd"><svg width="100%" height="100%" viewBox="0 0 259 721" version="1.1" xmlns="http://www.w3.org/2000/svg" xmlns:xlink="http://www.w3.org/1999/xlink" xml:space="preserve" style="fill-rule:evenodd;clip-rule:evenodd;stroke-linejoin:round;stroke-miterlimit:2;"><g id="Layer-1"><g id="use980"><path id="path996" d="M67.408,14.408c29.875,37.95 108.313,132.45 127.58,193.788c6.883,21.912 -3.021,56.729 -31.284,88.221c-23.083,25.721 -34.133,57.679 -22.817,99.916c12.971,48.4 90.434,136.455 108.196,160.675c18.65,25.434 0.184,35.75 -25.837,16.155c-40.538,-30.513 -94.734,-44.513 -130.017,-17.7c-34.696,26.375 -34.333,54.083 16.029,141.316c11.034,19.113 1.559,29.117 -13.487,15.934c-36.479,-31.946 -92.554,-114.475 -95.379,-146.821c-7.584,-86.867 96.891,-111.425 146.145,-81.55c-36.295,-42.838 -81.625,-90.263 -96.083,-104.159c-18.912,-18.179 -24.108,-55.458 -6.458,-77.516c19.375,-24.225 42.75,-73.263 50.058,-100.929c11.304,-42.796 -8.071,-96.892 -21.8,-130c-7.412,-12.838 -18.771,-30.025 -29.875,-49.255c-11.104,-19.229 3.733,-35.129 25.029,-8.075Z" style="fill:#d082c4;fill-rule:nonzero;"/></g></g></svg>