<?xml version="1.0" encoding="UTF-8" standalone="no"?><!DOCTYPE svg PUBLIC "-//W3C//DTD SVG 1.1//EN" "http://www.w3.org/Graphics/SVG/1.1/DTD/svg11.dtd"><svg width="100%" height="100%" viewBox="0 0 275 450" version="1.1" xmlns="http://www.w3.org/2000/svg" xmlns:xlink="http://www.w3.org/1999/xlink" xml:space="preserve" style="fill-rule:evenodd;clip-rule:evenodd;stroke-linejoin:round;stroke-miterlimit:2;"><g id="Layer-1"><g id="use980"><path id="path996" d="M0.004,75.729c-0.008,41.838 33.917,75.2 75.75,75.75c47.642,0.613 96.038,-18.804 126.567,-44.487c-14.909,99.571 -77.392,269.471 -103.138,329.366c-5.991,13.934 51.05,11.642 53.663,-0.887c15.812,-75.854 70.125,-281.9 91.312,-327.975c8.855,-19.263 22.15,-56.158 28.413,-67.513c3.354,-6.079 -1.946,-13.333 -10.629,-3.45c-13.967,15.9 -28.325,26.492 -36.85,31.267c-24.055,13.475 -54.534,27.7 -76.063,26.646c1.592,-6.117 2.446,-12.404 2.446,-18.725c0,-41.817 -33.904,-75.713 -75.725,-75.721c-41.825,-0.008 -75.742,33.892 -75.75,75.721l0.004,0.008Z" style="fill:#d082c4;fill-rule:nonzero;"/></g></g></svg>