<?xml version="1.0" encoding="UTF-8" standalone="no"?><!DOCTYPE svg PUBLIC "-//W3C//DTD SVG 1.1//EN" "http://www.w3.org/Graphics/SVG/1.1/DTD/svg11.dtd"><svg width="100%" height="100%" viewBox="0 0 78 161" version="1.1" xmlns="http://www.w3.org/2000/svg" xmlnsXlink="http://www.w3.org/1999/xlink" xmlSpace="preserve" xmlnsSerif="http://www.serif.com/" style="fill-rule:evenodd;clip-rule:evenodd;stroke-linejoin:round;stroke-miterlimit:2;"><g id="Layer-1" serifId="Layer 1"><g id="use980"><path id="path996" d="M32.417,0c-9.623,-0.002 -17.425,7.797 -17.427,17.42c-0.001,9.625 7.803,17.3 17.427,17.427c10.96,0.141 22.093,-4.327 29.116,-10.235c-1.331,8.894 -7.294,31.967 -12.498,47.626c-4.983,2.583 -10.576,4.892 -14.751,4.688c0.366,-1.407 0.563,-2.854 0.563,-4.308c-0,-9.62 -7.8,-17.418 -17.42,-17.42c-9.623,-0.001 -17.425,7.797 -17.427,17.42c-0.002,9.626 7.802,17.301 17.427,17.428c10.59,0.14 21.754,-4.046 28.834,-9.658c-7.608,22.138 -26.205,69.476 -29.431,76.982c-1.378,3.205 10.933,3.571 11.853,0.774l49.011,-148.945c0.499,-1.517 -0.448,-3.067 -2.446,-0.793c-3.212,3.657 -6.515,6.093 -8.477,7.192c-5.533,3.1 -12.545,6.372 -17.499,6.13c0.367,-1.407 0.564,-2.854 0.564,-4.307c-0,-9.621 -7.8,-17.419 -17.42,-17.42l0.001,-0.001Z" style="fill:#222;fill-rule:nonzero;"/></g></g></svg>