<svg xmlns="http://www.w3.org/2000/svg" version="1.1" xmlns:xlink="http://www.w3.org/1999/xlink" xmlns:svgjs="http://svgjs.dev/svgjs" width="745" height="600"><rect width="745" height="1" y="54" fill="#698a96"></rect><rect width="745" height="1" y="63" fill="#698a96"></rect><rect width="745" height="1" y="72" fill="#698a96"></rect><rect width="745" height="1" y="81" fill="#698a96"></rect><rect width="745" height="1" y="90" fill="#698a96"></rect><path d="M16.619942182250924 64.20027761019483L17.619906701869333 70.00007143025194C17.739902444223546 70.7200458355004 17.739902444223546 70.7200458355004 18.779865544626702 70.7200458355004C24.659656919982986 70.7200458355004 28.41952351374823 75.23988515733801 28.41952351374823 80.359703150216C28.41952351374823 84.8795424720536 25.739618601170875 88.27942160794913 21.699761941912477 89.87936473072352C21.13978181092616 90.11935619913967 21.09978323014142 90.0793576210703 21.179780391710892 90.55934055790262C21.619764780342997 93.0392523982029 22.33973923446826 96.83911731479203 22.33973923446826 99.11903626474552C22.33973923446826 105.9187945365366 17.139923732452495 107.11875187861737 14.460018819875142 107.11875187861737C8.420233121379908 107.11875187861737 6.86028847077518 103.19889122782016 6.86028847077518 100.59898365331179C6.86028847077518 98.11907181301152 8.460231702164647 95.99914717533548 11.140136614742001 95.99914717533548C13.580050042610933 95.99914717533548 14.980000370076716 97.87908034459537 14.980000370076716 100.07900213841013C14.980000370076716 102.39891966643297 13.540051461826199 103.47888127430568 12.300095457499362 103.83886847692992C11.380128099450419 104.11885852341543 11.02014087238779 104.23885425762352 11.02014087238779 104.51884430410902C11.02014087238779 105.03882581901068 12.060103972790941 105.67880306812043 14.22002733516672 105.67880306812043C16.579943601466184 105.67880306812043 20.579801679939848 104.95882866287197 20.579801679939848 99.03903910860679C20.579801679939848 97.15910593934692 19.979822968168797 93.67922964731264 19.499839998751952 90.99932491666556C19.419842837182486 90.51934197983326 19.339845675613006 90.55934055790262 18.899861286980908 90.63933771404135C18.09988967128617 90.79933202631878 17.05992657088302 90.8793291824575 16.13995921283408 90.8793291824575C6.340306920573601 90.8793291824575 1.5804758071899414 84.27956380101321 1.5804758071899414 77.31981121694469C1.5804758071899414 69.24009844693411 7.700258667254648 63.52030178301573 13.460054300256722 58.760470992761974C13.940037269673564 58.36048521206838 13.900038688888827 58.280488055929666 13.820041527319354 57.80050511909735C13.540051461826197 56.160563418253616 13.26006139633304 53.560655843745266 13.26006139633304 51.240738315722425C13.26006139633304 47.080886196509056 14.22002733516672 42.08106393783914 17.179922313237228 38.801180536151676C17.979893928931965 37.92121181862578 19.2198499332588 36.88124878882243 19.77983006424511 36.88124878882243C20.21981445287721 36.88124878882243 21.259777553280365 38.001208974764495 21.85975626505141 38.8811776922904C23.499698077225624 41.28109237645196 24.459664016059293 44.720970090416856 24.459664016059293 48.20084638245112C24.459664016059293 54.32062882706309 21.179780391710892 59.40044824187173 16.859933666959336 63.44030462687701C16.619942182250917 63.68029609529317 16.539945020681444 63.72029467336253 16.619942182250917 64.20027761019485ZM20.379808776016162 43.08102838957312C17.939895348147225 43.08102838957312 15.05999753164619 46.92089188423162 15.05999753164619 53.16067006305167C15.05999753164619 54.440624561271164 15.139994693215664 55.800576215629384 15.299989016354608 56.84053924543272C15.379986177924085 57.360520760334396 15.53998050106303 57.400519338403754 15.819970566556186 57.160527869987604C18.97985844855038 54.400625983201806 22.77972362310036 50.80075395695947 22.77972362310036 46.360911791260584C22.77972362310036 44.160989997445824 21.699761941912477 43.08102838957312 20.379808776016162 43.08102838957312ZM16.01996347047987 70.32006005480682L15.179993274000399 65.20024206192882C15.099996112430928 64.76025770316588 15.019998950861455 64.7202591250965 14.620013143014086 65.04024774965139C12.740079846131465 66.56019371628703 10.900145130033579 68.04014110485333 8.500230282949381 70.7200458355004C5.180348077816239 74.47991217402017 4.780362269968873 77.63979984149957 4.780362269968873 79.99971594759177C4.780362269968873 85.5595182992327 9.300201898644112 89.43938037196055 16.299953535973025 89.43938037196055C17.09992515166776 89.43938037196055 17.899896767362485 89.35938321582185 18.539874059918276 89.23938748161376C19.139852771689327 89.1193917474057 19.17985135247406 89.1193917474057 19.099854190904587 88.67940738864274L17.09992515166776 76.75983112397367C17.01992799009828 76.31984676521071 16.939930828528812 76.27984818714135 16.299953535973025 76.43984249941879C13.860040108104089 77.1198183265979 12.300095457499358 78.83975718358035 12.300095457499358 81.11967613353383C12.300095457499358 82.95961072472434 13.50005288104146 84.6795495817068 15.179993274000399 85.39952398695527C15.459983339493554 85.51951972116336 15.77997198577145 85.63951545537142 15.77997198577145 85.91950550185695C15.77997198577145 86.1594969702731 15.619977662632502 86.3594898606199 15.299989016354608 86.3594898606199C15.019998950861451 86.3594898606199 14.540015981444611 86.23949412641181 14.22002733516672 86.11949839220375C11.500123841804626 85.19953109660847 9.620190544922004 82.63962210016948 9.620190544922004 79.03975007392714C9.620190544922004 75.6398709380316 11.900109649651993 72.47998327055221 15.419984758708816 71.28002592847143C16.13995921283408 71.04003446005528 16.13995921283408 71.08003303812464 16.019963470479865 70.32006005480682ZM18.779865544626695 76.67983396783494L20.739796003078794 88.07942871760234C20.819793164648267 88.55941165443465 20.89979032621774 88.55941165443465 21.37977329563458 88.3194201860185C23.619693819579837 87.19946000007644 25.139639889399817 85.15953251853911 25.139639889399817 82.63962210016948C25.139639889399817 79.11974723006585 22.459734976822467 76.39984392134943 19.2198499332588 76.1198538748639C18.739866963841955 76.07985529679455 18.699868383057222 76.19985103100262 18.779865544626695 76.67983396783494Z " fill="#698a96"></path><path d="M53.88004897665918 91.00000004394497C51.72006624702891 91.00000004394497 50 89.75992995905612 50 87.67986659042217C50 84.23997409444542 53.520051855054135 81 57.91993667531101 81C58.95984836058745 81 59.880001003409944 81.28007776060873 60.55991556708134 81.76007392274879L60.55991556708134 81L61.79998565197019 81L61.79998565197019 84.31989345544173C61.79998565197019 87.71994626996086 57.439940513170946 91.00000004394497 53.88004897665918 91.00000004394497Z " fill="#00cdb2"></path><rect width="1.3" height="29" rx="0.5" ry="0.5" x="60.5" y="54" fill="#00cdb2"></rect><path d="M69.21590424252804 83.26053748602457C69.03279701054217 83.88310212007454 68.41023242179016 84.10283081444513 68.1905037434071 83.95634501819808S67.60456060105227 83.48026618039515 67.60456060105227 82.89432299540694C67.60456060105227 82.74783719915987 67.64118204744945 82.56472995385107 67.7144249402438 82.34500125948048C68.3369895289958 80.69703605170113 68.59333965377604 78.97582794579824 68.59333965377604 77.3278627380189C68.59333965377604 75.16719724337486 68.26374663620146 73.07977464685433 67.7144249402438 71.83464537875439C66.39605286994545 68.72182220850449 62.91701546221366 63.741305136104664 60.5 63.3018477473635V54.54932142160204C60.5 54.10986403286088 60.79297157117741 53.99999968567559 61.19580748154635 53.99999968567559C61.562021945518126 53.99999968567559 61.85499351669554 54.21972838004616 61.96485785588707 54.80567156503439C62.5508009982419 58.321330674963676 64.08890174692331 61.47077529427533 65.95659551317932 64.36386977015465C68.26374663620146 68.02601467633099 70.16806184885463 72.34734566561907 70.16806184885463 76.9250267983395C70.16806184885463 79.78149982515706 69.21590424252804 83.26053748602459 69.21590424252804 83.26053748602459Z " fill="#00cdb2"></path><path d="M87.919936675311 54C90.07991940494128 54 91.79998565197019 55.24007008488885 91.79998565197019 57.3201334535228C91.79998565197019 60.76002594949955 88.27993379691605 64.00000004394497 83.88004897665918 64.00000004394497C82.84013729138275 64.00000004394497 81.91998464856024 63.71992228333623 81.24007008488886 63.23992612119618L81.24007008488886 64.00000004394497L80 64.00000004394497L80 60.68010658850323C80 57.28005377398411 84.36004513879925 54 87.919936675311 54Z " fill="#00cdb2"></path><rect width="1.3" height="29" rx="0.5" ry="0.5" x="80" y="62" fill="#00cdb2"></rect><path d="M88.75912316790968 62.75182474467532C88.3941597025801 61.69343061847358 89.01459759364037 60.999999984065546 89.56204279163472 60.999999984065546C89.81751721736542 60.999999984065546 90.03649529656317 61.145985380783024 90.14598433616204 61.5474452217561C90.4379551084257 62.715328395495945 91.16788203908483 65.30656918723123 91.16788203908483 68.15328442322212C91.16788203908483 72.7153280706434 88.94160490057446 77.05839362298845 86.64233506899816 80.67153219174611C84.78102139581736 83.55474377691635 82.08029175237854 86.72992615552157 81.45985386131828 90.19707932756174C81.38686116825237 90.78102091443166 80.91240866332393 90.99999900950789 80.58394154452732 90.99999900950789C80.29197077226365 90.99999900950789 80 90.81751726361104 80 90.45255377181734V81.87591171466532C84.89051043541623 80.23357600159366 86.71532776206408 77.27737171806467 88.06569258378349 74.21167838699758C88.61313778177785 72.97080251489899 89.52554644510177 69.90510918383188 89.52554644510177 67.75182458224904C89.52554644510177 66.10948886917738 89.27007201937107 64.28467141020887 88.75912316790968 62.75182474467532Z " fill="#00cdb2"></path></svg>