<?xml version="1.0" encoding="UTF-8" standalone="no"?><!DOCTYPE svg PUBLIC "-//W3C//DTD SVG 1.1//EN" "http://www.w3.org/Graphics/SVG/1.1/DTD/svg11.dtd"><svg width="100%" height="100%" viewBox="0 0 2134 2134" version="1.1" xmlns="http://www.w3.org/2000/svg" xmlns:xlink="http://www.w3.org/1999/xlink" xml:space="preserve" style="fill-rule:evenodd;clip-rule:evenodd;stroke-linejoin:round;stroke-miterlimit:2;"><g><path d="M1039.58,210c-6.666,3.333 -17.5,10.833 -23.75,17.5c-7.5,8.333 -82.5,190.417 -246.25,599.583c-129.583,322.917 -281.666,701.667 -337.5,841.667l-102.083,254.167l368.333,1.25c202.5,0.416 534.167,0.416 736.667,-0l368.333,-1.25l-148.333,-370c-106.667,-265.834 -150.417,-369.584 -155,-369.584c-5.833,0 -15,22.917 -68.333,171.667l-8.334,23.75l8.75,24.167c5,13.333 22.084,58.75 38.334,101.25c16.25,42.5 42.5,110.833 57.916,152.083l28.75,75l-245.416,1.25c-134.584,0.417 -355.417,0.417 -490.417,0l-245.417,-1.25l9.584,-25c5.416,-13.75 22.083,-57.083 37.083,-95.833c14.583,-39.167 80.417,-211.667 146.25,-383.334c65.417,-172.083 129.167,-338.75 141.667,-370.833c12.5,-32.083 36.25,-95 53.333,-139.583c17.083,-44.584 43.75,-114.584 59.167,-155c20,-52.5 30.416,-74.584 36.25,-76.25c17.5,-5.834 22.916,1.25 45.416,60.833c12.084,32.083 23.334,59.167 25,60c1.667,1.25 7.917,-4.583 14.167,-12.917c16.25,-21.666 55.417,-59.583 74.167,-71.666c8.333,-5.417 15.416,-12.5 15.416,-15c0,-2.5 -23.75,-63.75 -52.5,-135.834c-33.75,-84.166 -56.25,-135.416 -63.333,-143.333c-20.833,-22.083 -51.667,-29.167 -77.917,-17.5Z" style="fill:#afcfa4;fill-rule:nonzero;"/><path d="M1371.25,581.667c-81.25,21.666 -152.083,93.333 -173.333,175c-7.917,31.25 -7.917,92.916 -0,124.166c13.333,50.417 54.166,110 95.833,138.75l12.083,8.75l-12.916,34.584c-7.5,19.166 -50.834,137.916 -97.084,264.166c-45.833,125.834 -87.083,238.334 -91.666,250c-4.584,11.25 -14.584,39.167 -22.5,61.25l-14.584,40.834l122.5,-0l53.75,-147.084c29.584,-80.416 60.834,-166.25 70,-190.416c8.75,-24.167 35.417,-96.25 58.75,-160.417l42.917,-116.667l39.167,-2.5c76.666,-5 142.5,-43.333 184.583,-107.083c56.25,-85.417 56.25,-187.083 0,-272.5c-31.667,-48.333 -85,-86.667 -141.25,-101.25c-30.417,-7.917 -96.25,-7.917 -126.25,0.417Z" style="fill:#afcfa4;fill-rule:nonzero;"/></g></svg>