<?xml version="1.0" encoding="UTF-8" standalone="no"?><!DOCTYPE svg PUBLIC "-//W3C//DTD SVG 1.1//EN" "http://www.w3.org/Graphics/SVG/1.1/DTD/svg11.dtd"><svg width="100%" height="100%" viewBox="0 0 100 100" version="1.1" xmlns="http://www.w3.org/2000/svg" xmlns:xlink="http://www.w3.org/1999/xlink" xml:space="preserve" style="fill-rule:evenodd;clip-rule:evenodd;stroke-linejoin:round;stroke-miterlimit:2;"><path id="surface1" d="M70.833,8.333l0,12.5l-45.833,0c-7.083,0 -12.5,5.417 -12.5,12.5l0,28.388l8.333,-6.775l0,-21.613c0,-2.508 1.659,-4.166 4.167,-4.166l45.833,-0l0,12.5l20.834,-16.667l-20.834,-16.667Zm16.667,29.95l-8.333,6.767l-0,21.617c-0,2.508 -1.659,4.166 -4.167,4.166l-45.833,0l-0,-12.5l-20.834,16.667l20.834,16.667l-0,-12.5l45.833,-0c7.083,-0 12.5,-5.417 12.5,-12.5l0,-28.384Z" style="fill:#afcfa4;fill-rule:nonzero;"/></svg>