<?xml version="1.0" encoding="UTF-8" standalone="no"?><!DOCTYPE svg PUBLIC "-//W3C//DTD SVG 1.1//EN" "http://www.w3.org/Graphics/SVG/1.1/DTD/svg11.dtd"><svg width="100%" height="100%" viewBox="0 0 62 173" version="1.1" xmlns="http://www.w3.org/2000/svg" xmlnsXlink="http://www.w3.org/1999/xlink" xmlSpace="preserve" xmlnsSerif="http://www.serif.com/" style="fill-rule:evenodd;clip-rule:evenodd;stroke-linejoin:round;stroke-miterlimit:2;"><g id="Layer-1" serifId="Layer 1"><g id="use980"><path id="path996" d="M16.178,3.458c7.17,9.108 25.995,31.788 30.619,46.509c1.652,5.259 -0.725,13.615 -7.508,21.173c-5.54,6.173 -8.192,13.843 -5.476,23.98c3.113,11.616 21.704,32.749 25.967,38.562c4.476,6.104 0.044,8.58 -6.201,3.877c-9.729,-7.323 -22.736,-10.683 -31.204,-4.248c-8.327,6.33 -8.24,12.98 3.847,33.916c2.648,4.587 0.374,6.988 -3.237,3.824c-8.755,-7.667 -22.213,-27.474 -22.891,-35.237c-1.82,-20.848 23.254,-26.742 35.075,-19.572c-8.711,-10.281 -19.59,-21.663 -23.06,-24.998c-4.539,-4.363 -5.786,-13.31 -1.55,-18.604c4.65,-5.814 10.26,-17.583 12.014,-24.223c2.713,-10.271 -1.937,-23.254 -5.232,-31.2c-1.779,-3.081 -4.505,-7.206 -7.17,-11.821c-2.665,-4.615 0.896,-8.431 6.007,-1.938Z" style="fill:#222;fill-rule:nonzero;"/></g></g></svg>