<?xml version="1.0" encoding="UTF-8" standalone="no"?><!DOCTYPE svg PUBLIC "-//W3C//DTD SVG 1.1//EN" "http://www.w3.org/Graphics/SVG/1.1/DTD/svg11.dtd"><svg width="100%" height="100%" viewBox="0 0 66 108" version="1.1" xmlns="http://www.w3.org/2000/svg" xmlnsXlink="http://www.w3.org/1999/xlink" xmlSpace="preserve" xmlnsSerif="http://www.serif.com/" style="fill-rule:evenodd;clip-rule:evenodd;stroke-linejoin:round;stroke-miterlimit:2;"><g id="Layer-1" serifId="Layer 1"><g id="use980"><path id="path996" d="M0.001,18.175c-0.002,10.041 8.14,18.048 18.18,18.18c11.434,0.147 23.049,-4.513 30.376,-10.677c-3.578,23.897 -18.574,64.673 -24.753,79.048c-1.438,3.344 12.252,2.794 12.879,-0.213c3.795,-18.205 16.83,-67.656 21.915,-78.714c2.125,-4.623 5.316,-13.478 6.819,-16.203c0.805,-1.459 -0.467,-3.2 -2.551,-0.828c-3.352,3.816 -6.798,6.358 -8.844,7.504c-5.773,3.234 -13.088,6.648 -18.255,6.395c0.382,-1.468 0.587,-2.977 0.587,-4.494c0,-10.036 -8.137,-18.171 -18.174,-18.173c-10.038,-0.002 -18.178,8.134 -18.18,18.173l0.001,0.002Z" style="fill:#222;fill-rule:nonzero;"/></g></g></svg>