<?xml version="1.0" encoding="UTF-8" standalone="no"?><!DOCTYPE svg PUBLIC "-//W3C//DTD SVG 1.1//EN" "http://www.w3.org/Graphics/SVG/1.1/DTD/svg11.dtd"><svg width="100%" height="100%" viewBox="0 0 99 216" version="1.1" xmlns="http://www.w3.org/2000/svg" xmlnsXlink="http://www.w3.org/1999/xlink" xmlSpace="preserve" xmlnsSerif="http://www.serif.com/" style="fill-rule:evenodd;clip-rule:evenodd;stroke-linejoin:round;stroke-miterlimit:2;"><g id="Layer-1" serifId="Layer 1"><g id="use980"><path id="path996" d="M98.022,9.324c0.782,-1.418 -0.454,-3.109 -2.479,-0.804c-3.257,3.708 -6.606,6.177 -8.594,7.291c-5.609,3.142 -12.718,6.46 -17.74,6.214c0.372,-1.425 0.572,-2.892 0.572,-4.366c-0,-9.752 -7.906,-17.657 -17.657,-17.659l-0.002,0c-9.754,-0.001 -17.663,7.905 -17.664,17.659c-0,9.757 7.909,17.537 17.666,17.666c11.11,0.143 22.397,-4.386 29.516,-10.375c-1.263,8.441 -9.209,32.532 -14.043,47.279c-5.005,2.578 -10.632,4.843 -14.813,4.639c0.372,-1.426 0.571,-2.893 0.571,-4.366c0,-9.753 -7.907,-17.658 -17.659,-17.66l0.001,-0c-9.755,-0.002 -17.664,7.904 -17.666,17.659c-0.001,9.757 7.91,17.537 17.666,17.666c11.111,0.143 22.396,-4.386 29.516,-10.375c-1.35,9.015 -10.23,33.481 -15.505,49.355c-5.051,2.618 -10.721,4.959 -14.954,4.752c0.372,-1.426 0.571,-2.892 0.571,-4.366c0,-9.753 -7.907,-17.658 -17.659,-17.66c-9.755,-0.001 -17.664,7.904 -17.666,17.66c-0.002,9.758 7.909,17.537 17.666,17.666c10.735,0.143 22.053,-4.102 29.23,-9.79c-7.713,22.442 -22.899,67.34 -26.169,74.949c-1.397,3.248 11.407,3.707 12.016,0.784c3.687,-17.689 63.819,-201.171 65.279,-203.818Z" style="fill:#222;fill-rule:nonzero;"/></g></g></svg>