<?xml version="1.0" standalone="no"?>
<!DOCTYPE svg PUBLIC "-//W3C//DTD SVG 20010904//EN"
 "http://www.w3.org/TR/2001/REC-SVG-20010904/DTD/svg10.dtd">
<svg version="1.0" xmlns="http://www.w3.org/2000/svg"
 width="512.000000pt" height="512.000000pt" viewBox="0 0 512.000000 512.000000"
 preserveAspectRatio="xMidYMid meet">

<g transform="translate(0.000000,512.000000) scale(0.100000,-0.100000)"
fill="#222222" stroke="none">
<path d="M851 4663 c-73 -38 -235 -304 -300 -494 -60 -174 -75 -273 -75 -494
0 -171 3 -215 22 -304 47 -213 130 -403 250 -570 81 -113 122 -140 181 -123
52 16 82 52 88 104 4 40 0 49 -56 126 -117 162 -203 363 -235 547 -21 118 -20
325 0 446 17 99 69 260 110 341 30 60 84 144 141 222 29 40 43 68 43 90 -1 88
-93 148 -169 109z"/>
<path d="M1752 4670 c-53 -13 -108 -55 -131 -102 -21 -44 -21 -50 -21 -822 0
-819 1 -838 47 -976 46 -137 153 -302 261 -402 109 -99 278 -192 400 -219 l52
-12 0 -664 c0 -608 -1 -667 -17 -696 -25 -47 -23 -151 4 -202 44 -83 117 -129
208 -129 115 -1 210 75 236 188 11 50 10 62 -9 121 -22 64 -22 77 -22 723 l0
658 53 13 c28 7 87 28 129 47 265 115 466 350 549 639 23 80 23 81 26 884 l4
803 -22 45 c-31 64 -95 103 -168 103 -63 0 -124 -24 -158 -61 -54 -59 -53 -38
-53 -847 0 -713 -1 -752 -20 -826 -27 -105 -71 -183 -144 -256 -75 -76 -159
-124 -261 -150 -92 -24 -155 -25 -248 -5 -188 40 -347 181 -420 372 -21 57
-22 65 -27 843 -5 778 -5 785 -26 825 -12 22 -30 47 -40 56 -48 42 -125 63
-182 49z"/>
<path d="M4183 4669 c-45 -13 -83 -62 -83 -107 1 -41 7 -55 66 -132 112 -148
198 -352 230 -548 22 -136 16 -359 -14 -487 -37 -161 -103 -310 -196 -444 -28
-40 -59 -85 -68 -100 -61 -92 45 -214 145 -166 69 32 227 284 295 471 17 44
43 134 58 200 25 109 28 136 28 314 0 165 -3 211 -22 300 -47 215 -137 421
-250 576 -91 122 -121 142 -189 123z"/>
<path d="M1200 4337 c-40 -14 -93 -79 -144 -177 -131 -251 -152 -563 -55 -836
31 -89 89 -201 136 -263 51 -66 128 -74 184 -19 49 50 44 93 -26 210 -170 282
-162 607 22 885 65 97 39 182 -62 207 -11 2 -36 -1 -55 -7z"/>
<path d="M3840 4336 c-46 -15 -75 -58 -74 -109 0 -33 11 -58 47 -112 86 -128
129 -272 129 -435 0 -170 -41 -314 -128 -445 -57 -87 -65 -127 -32 -175 47
-69 138 -73 193 -9 73 87 151 259 181 399 26 119 26 346 0 455 -33 143 -110
307 -183 393 -33 40 -85 54 -133 38z"/>
</g>
</svg>
