<?xml version="1.0" encoding="UTF-8" standalone="no"?><!DOCTYPE svg PUBLIC "-//W3C//DTD SVG 1.1//EN" "http://www.w3.org/Graphics/SVG/1.1/DTD/svg11.dtd"><svg width="100%" height="100%" viewBox="0 0 2134 2134" version="1.1" xmlns="http://www.w3.org/2000/svg" xmlns:xlink="http://www.w3.org/1999/xlink" xml:space="preserve" style="fill-rule:evenodd;clip-rule:evenodd;stroke-linejoin:round;stroke-miterlimit:2;"><g><path d="M354.583,190.417c-30.416,15.833 -97.916,126.666 -125,205.833c-25,72.5 -31.25,113.75 -31.25,205.833c0,71.25 1.25,89.584 9.167,126.667c19.583,88.75 54.167,167.917 104.167,237.5c33.75,47.083 50.833,58.333 75.416,51.25c21.667,-6.667 34.167,-21.667 36.667,-43.333c1.667,-16.667 0,-20.417 -23.333,-52.5c-48.75,-67.5 -84.584,-151.25 -97.917,-227.917c-8.75,-49.167 -8.333,-135.417 0,-185.833c7.083,-41.25 28.75,-108.334 45.833,-142.084c12.5,-25 35,-60 58.75,-92.5c12.084,-16.666 17.917,-28.333 17.917,-37.5c-0.417,-36.666 -38.75,-61.666 -70.417,-45.416Z" style="fill:#afcfa4;fill-rule:nonzero;"/><path d="M730,187.5c-22.083,5.417 -45,22.917 -54.583,42.5c-8.75,18.333 -8.75,20.833 -8.75,342.5c-0,341.25 0.416,349.167 19.583,406.667c19.167,57.083 63.75,125.833 108.75,167.5c45.417,41.25 115.833,80 166.667,91.25l21.666,5l0,276.666c0,253.334 -0.416,277.917 -7.083,290c-10.417,19.584 -9.583,62.917 1.667,84.167c18.333,34.583 48.75,53.75 86.666,53.75c47.917,0.417 87.5,-31.25 98.334,-78.333c4.583,-20.834 4.166,-25.834 -3.75,-50.417c-9.167,-26.667 -9.167,-32.083 -9.167,-301.25l0,-274.167l22.083,-5.416c11.667,-2.917 36.25,-11.667 53.75,-19.584c110.417,-47.916 194.167,-145.833 228.75,-266.25c9.584,-33.333 9.584,-33.75 10.834,-368.333l1.666,-334.583l-9.166,-18.75c-12.917,-26.667 -39.584,-42.917 -70,-42.917c-26.25,0 -51.667,10 -65.834,25.417c-22.5,24.583 -22.083,15.833 -22.083,352.916c0,297.084 -0.417,313.334 -8.333,344.167c-11.25,43.75 -29.584,76.25 -60,106.667c-31.25,31.666 -66.25,51.666 -108.75,62.5c-38.334,10 -64.584,10.416 -103.334,2.083c-78.333,-16.667 -144.583,-75.417 -175,-155c-8.75,-23.75 -9.166,-27.083 -11.25,-351.25c-2.083,-324.167 -2.083,-327.083 -10.833,-343.75c-5,-9.167 -12.5,-19.583 -16.667,-23.333c-20,-17.5 -52.083,-26.25 -75.833,-20.417Z" style="fill:#afcfa4;fill-rule:nonzero;"/><path d="M1742.92,187.917c-18.75,5.416 -34.584,25.833 -34.584,44.583c0.417,17.083 2.917,22.917 27.5,55c46.667,61.667 82.5,146.667 95.834,228.333c9.166,56.667 6.666,149.584 -5.834,202.917c-15.416,67.083 -42.916,129.167 -81.666,185c-11.667,16.667 -24.584,35.417 -28.334,41.667c-25.416,38.333 18.75,89.166 60.417,69.166c28.75,-13.333 94.583,-118.333 122.917,-196.25c7.083,-18.333 17.916,-55.833 24.166,-83.333c10.417,-45.417 11.667,-56.667 11.667,-130.833c0,-68.75 -1.25,-87.917 -9.167,-125c-19.583,-89.584 -57.083,-175.417 -104.166,-240c-37.917,-50.834 -50.417,-59.167 -78.75,-51.25Z" style="fill:#afcfa4;fill-rule:nonzero;"/><path d="M500,326.25c-16.667,5.833 -38.75,32.917 -60,73.75c-54.583,104.583 -63.333,234.583 -22.917,348.333c12.917,37.084 37.084,83.75 56.667,109.584c21.25,27.5 53.333,30.833 76.667,7.916c20.416,-20.833 18.333,-38.75 -10.834,-87.5c-70.833,-117.5 -67.5,-252.916 9.167,-368.75c27.083,-40.416 16.25,-75.833 -25.833,-86.25c-4.584,-0.833 -15,0.417 -22.917,2.917Z" style="fill:#afcfa4;fill-rule:nonzero;"/><path d="M1600,326.667c-19.167,6.25 -31.25,24.166 -30.833,45.416c-0,13.75 4.583,24.167 19.583,46.667c35.833,53.333 53.75,113.333 53.75,181.25c0,70.833 -17.083,130.833 -53.333,185.417c-23.75,36.25 -27.084,52.916 -13.334,72.916c19.584,28.75 57.5,30.417 80.417,3.75c30.417,-36.25 62.917,-107.916 75.417,-166.25c10.833,-49.583 10.833,-144.166 -0,-189.583c-13.75,-59.583 -45.834,-127.917 -76.25,-163.75c-13.75,-16.667 -35.417,-22.5 -55.417,-15.833Z" style="fill:#afcfa4;fill-rule:nonzero;"/></g></svg>