<?xml version="1.0" encoding="UTF-8" standalone="no"?><!DOCTYPE svg PUBLIC "-//W3C//DTD SVG 1.1//EN" "http://www.w3.org/Graphics/SVG/1.1/DTD/svg11.dtd"><svg width="100%" height="100%" viewBox="0 0 292 241" version="1.1" xmlns="http://www.w3.org/2000/svg" xmlns:xlink="http://www.w3.org/1999/xlink" xml:space="preserve" xmlns:serif="http://www.serif.com/" style="fill-rule:evenodd;clip-rule:evenodd;stroke-linecap:round;stroke-linejoin:bevel;"><g><g><path d="M170.167,143.933c-0.4,0.534 -0.8,0.667 -1.2,0.667c-0.4,-0 -0.8,-0.267 -0.8,-0.267c-4,-2.266 -7.2,-5.866 -10.533,-8.133c-11.867,-8.267 -16,-16.4 -16,-22.8c-0,-7.333 5.867,-12.133 12,-12.533c2.267,-0 5.467,1.066 7.333,2.266c0.8,0.667 2.267,1.867 2.934,1.867c0.266,-0 0.4,-0 0.666,-0.133c0.934,-0.4 1.467,-1.334 1.467,-2.267c-0.133,-2.933 -0.933,-34.933 -0.933,-37.6c-0,-1.467 1.2,-2.267 2.533,-2.267c1.867,0 4,1.334 4.133,3.734c0,-0 -0.533,76.133 -1.6,77.466Zm-4.666,-11.866c-0,-0 0.4,-8 0.4,-13.334c-0,-2.133 -0.134,-3.733 -0.267,-4.266c-0.933,-2.667 -6.267,-6.534 -9.333,-6.534c-3.867,0 -5.467,4.4 -5.467,7.734c-0,7.2 6.133,14.4 11.867,18c0.533,0.266 0.933,0.4 1.333,0.4c1.2,-0 1.467,-1.334 1.467,-2Z" style="fill:#222;fill-rule:nonzero;"/></g></g><g><g><path d="M221.594,46.433l-0,6.4c-0,0.534 -0.4,1.067 -1.334,1.334c0,-0 -18.533,7.2 -18.933,7.333c-0.4,0.133 -0.8,0.4 -0.8,1.333l-0,1.334l-0.267,4.266l0,1.334c0,0.933 0.534,1.866 1.467,2.133c0.267,0.133 0.533,0.133 0.8,0.133c0.533,0 2,-1.066 2.933,-1.733c1.734,-0.933 3.2,-1.467 4.8,-1.867c0.8,-0.266 1.734,-0.4 2.534,-0.4c6.133,0.4 12,5.067 12,12.667c-0,6.133 -4.134,14.4 -16,22.667c-3.334,2.266 -6.667,6 -10.667,8.133c-0,-0 -0.4,0.267 -0.8,0.267c-0.267,-0 -0.667,-0.134 -1.067,-0.667c-0.666,-0.8 -1.066,-25.467 -1.333,-46.533c-0,-0.267 -0.267,-0.534 -0.8,-0.534c-0.267,0.267 -6.4,2.534 -6.667,2.534c-0.666,-0 -0.933,-0.534 -0.933,-1.067l-0,-6.667c-0,-0.666 0.4,-0.933 1.2,-1.066l6,-2.267c1.067,-0.4 1.067,-1.6 1.067,-2c-0.134,-11.467 -0.134,-19.867 -0.134,-19.867c0.134,-2.4 2.267,-3.733 4,-3.733c1.334,-0 2.534,0.8 2.534,2.267c-0,1.333 -0.267,10.533 -0.4,19.333c-0,0.4 0.133,0.8 0.8,0.8c0.533,-0.267 18.666,-6.933 18.666,-6.933c0.134,-0.134 0.4,-0.134 0.534,-0.134c0.666,0 0.8,0.8 0.8,1.2Zm-18.134,54.4c6.267,-3.466 12.134,-10.666 12.134,-18.133c-0,-3.467 -1.334,-7.6 -5.334,-7.6c-3.333,-0 -8.666,3.6 -9.6,6.533c-0.133,0.534 -0.266,2.134 -0.266,4.267c-0,5.333 0.4,13.333 0.4,13.333c-0,0.8 0.266,2 1.333,2c0.4,0 0.8,-0.133 1.333,-0.4Z" style="fill:#222;fill-rule:nonzero;"/></g></g><g><path d="M2.151,187.034l287.5,0" style="fill:none;stroke:#000;stroke-width:4.3px;"/><path d="M2.151,153.725l287.5,0" style="fill:none;stroke:#000;stroke-width:4.3px;"/><path d="M2.151,120.417l287.5,-0" style="fill:none;stroke:#000;stroke-width:4.3px;"/><path d="M2.151,87.108l287.5,-0" style="fill:none;stroke:#000;stroke-width:4.3px;"/><path d="M2.151,53.799l287.5,-0" style="fill:none;stroke:#000;stroke-width:4.3px;"/></g><g><path d="M72.501,115.894c1.803,-0.277 3.605,-0.416 5.407,-0.416c17.609,-0.138 29.948,15.667 29.81,33.553c-0,14.835 -8.874,25.788 -22.045,32.166l5.545,28.145c0.416,2.357 0.416,4.437 0.416,6.378c0,14.142 -8.873,23.292 -23.569,24.817c-11.508,1.248 -24.679,-6.655 -25.927,-19.133c-0.832,-8.319 4.852,-16.914 12.894,-17.885c7.348,-0.832 14.003,5.684 14.28,13.31c0.416,10.676 -10.121,14.142 -14.141,13.171c0.416,4.714 8.596,6.517 12.478,6.101c12.894,-1.526 18.994,-9.429 19.41,-20.659c0,-3.05 -0.277,-6.655 -1.109,-10.121l-4.714,-22.184c-4.437,1.249 -8.735,1.803 -12.894,1.803c-23.847,0 -43.258,-20.242 -45.199,-46.446c-2.079,-27.036 19.688,-47.14 36.464,-64.332c-2.496,-10.26 -4.02,-20.242 -4.02,-30.779c-0,-12.617 5.823,-38.406 18.994,-43.258c5.684,-2.218 16.222,25.649 15.944,41.039c-0.277,19.41 -9.151,37.989 -22.738,51.438l4.714,23.292m-1.247,16.499c-7.764,2.357 -14.42,10.399 -14.281,18.995c-0,7.348 4.852,12.062 10.953,14.974c0.693,0.277 0.971,0.832 0.971,1.386c-0,0.832 -0.971,1.525 -1.942,1.387c-10.537,-3.605 -18.024,-13.865 -17.885,-25.512c0,-11.368 9.012,-22.876 19.133,-26.62l-4.159,-20.935c-14.697,13.033 -30.918,28.561 -31.057,50.052c0,21.628 18.301,34.938 38.128,34.106c3.189,-0.138 6.239,-0.693 9.289,-1.663l-9.15,-46.17m13.587,-102.875c-0.139,-4.437 -2.773,-8.873 -7.626,-8.873c-11.646,2.357 -15.805,22.322 -16.083,32.304c0,5.823 0.971,11.785 2.357,17.469c11.092,-9.566 21.907,-25.233 21.352,-40.9m-0,147.658c8.319,-4.436 14.003,-13.449 13.587,-23.431c-0.97,-12.756 -10.398,-22.045 -22.738,-21.906l9.151,45.337" style="fill-rule:nonzero;"/></g></svg>