<?xml version="1.0" encoding="UTF-8" standalone="no"?><!DOCTYPE svg PUBLIC "-//W3C//DTD SVG 1.1//EN" "http://www.w3.org/Graphics/SVG/1.1/DTD/svg11.dtd"><svg width="100%" height="100%" viewBox="0 0 292 241" version="1.1" xmlns="http://www.w3.org/2000/svg" xmlns:xlink="http://www.w3.org/1999/xlink" xml:space="preserve" xmlns:serif="http://www.serif.com/" style="fill-rule:evenodd;clip-rule:evenodd;stroke-linecap:round;stroke-linejoin:bevel;"><g><path d="M2.151,187.034l287.5,0" style="fill:none;stroke:#000;stroke-width:4.3px;"/><path d="M2.151,153.725l287.5,0" style="fill:none;stroke:#000;stroke-width:4.3px;"/><path d="M2.151,120.417l287.5,-0" style="fill:none;stroke:#000;stroke-width:4.3px;"/><path d="M2.151,87.108l287.5,-0" style="fill:none;stroke:#000;stroke-width:4.3px;"/><path d="M2.151,53.799l287.5,-0" style="fill:none;stroke:#000;stroke-width:4.3px;"/></g><g><path d="M72.501,115.894c1.803,-0.277 3.605,-0.416 5.407,-0.416c17.609,-0.138 29.948,15.667 29.81,33.553c-0,14.835 -8.874,25.788 -22.045,32.166l5.545,28.145c0.416,2.357 0.416,4.437 0.416,6.378c0,14.142 -8.873,23.292 -23.569,24.817c-11.508,1.248 -24.679,-6.655 -25.927,-19.133c-0.832,-8.319 4.852,-16.914 12.894,-17.885c7.348,-0.832 14.003,5.684 14.28,13.31c0.416,10.676 -10.121,14.142 -14.141,13.171c0.416,4.714 8.596,6.517 12.478,6.101c12.894,-1.526 18.994,-9.429 19.41,-20.659c0,-3.05 -0.277,-6.655 -1.109,-10.121l-4.714,-22.184c-4.437,1.249 -8.735,1.803 -12.894,1.803c-23.847,0 -43.258,-20.242 -45.199,-46.446c-2.079,-27.036 19.688,-47.14 36.464,-64.332c-2.496,-10.26 -4.02,-20.242 -4.02,-30.779c-0,-12.617 5.823,-38.406 18.994,-43.258c5.684,-2.218 16.222,25.649 15.944,41.039c-0.277,19.41 -9.151,37.989 -22.738,51.438l4.714,23.292m-1.247,16.499c-7.764,2.357 -14.42,10.399 -14.281,18.995c-0,7.348 4.852,12.062 10.953,14.974c0.693,0.277 0.971,0.832 0.971,1.386c-0,0.832 -0.971,1.525 -1.942,1.387c-10.537,-3.605 -18.024,-13.865 -17.885,-25.512c0,-11.368 9.012,-22.876 19.133,-26.62l-4.159,-20.935c-14.697,13.033 -30.918,28.561 -31.057,50.052c0,21.628 18.301,34.938 38.128,34.106c3.189,-0.138 6.239,-0.693 9.289,-1.663l-9.15,-46.17m13.587,-102.875c-0.139,-4.437 -2.773,-8.873 -7.626,-8.873c-11.646,2.357 -15.805,22.322 -16.083,32.304c0,5.823 0.971,11.785 2.357,17.469c11.092,-9.566 21.907,-25.233 21.352,-40.9m-0,147.658c8.319,-4.436 14.003,-13.449 13.587,-23.431c-0.97,-12.756 -10.398,-22.045 -22.738,-21.906l9.151,45.337" style="fill-rule:nonzero;"/></g><g><g><path d="M220.66,38.067l-3.466,1.333c-1.067,0.4 -1.734,2.933 -1.734,3.867l0,12.4c0,1.6 0.934,2.4 1.734,2.4l3.466,-1.334c0.267,-0.133 0.4,-0.133 0.667,-0.133c0.533,-0 0.933,0.4 0.933,1.067l0,9.466c0,0.8 -0.666,1.867 -1.6,2.267c0,-0 -2.8,1.067 -3.733,1.467c-0.933,0.4 -1.467,2 -1.467,3.066l0,18.934c0,0.8 -0.8,1.466 -2.266,1.466c-0.934,0 -1.734,-0.666 -1.734,-1.466l0,-16.667c0,-0.8 -0.666,-2.4 -1.866,-2.4l-0.267,0.133l-0.133,0l-8.134,3.334c-0.666,0.266 -1.333,1.2 -1.333,2.933l-0,18.533c-0,0.8 -0.933,1.467 -2.267,1.467c-0.933,-0 -1.733,-0.667 -1.733,-1.467l-0,-16.4c-0,-0.666 -0.667,-2.133 -1.6,-2.133c-0.133,-0 -0.267,-0 -0.4,0.133c-1.2,0.4 -3.067,1.2 -3.2,1.2l-0.267,0.134c-0.8,-0 -1.2,-0.4 -1.2,-1.2l0,-9.467c0,-0.8 0.667,-1.867 1.6,-2.133c0,-0 2.8,-1.2 3.6,-1.467c0.8,-0.4 1.467,-1.6 1.467,-3.067l-0,-13.2c-0,-1.066 -0.8,-2.4 -1.867,-2.4l-0.133,0.134c-1.067,0.533 -3.067,1.333 -3.2,1.333l-0.267,0.133c-0.8,0 -1.2,-0.4 -1.2,-1.2l0,-9.466c0,-0.8 0.667,-1.867 1.6,-2.134c0,0 2.667,-1.066 3.467,-1.466c0.8,-0.4 1.6,-1.734 1.6,-3.6l-0,-18c-0,-0.8 0.8,-1.467 2.133,-1.467c0.934,-0 1.867,0.667 1.867,1.467l-0,16c-0,1.066 0.4,2.666 1.6,2.666c2.267,-0.533 6.8,-2.4 8.4,-3.333c1.2,-0.8 1.6,-2.533 1.733,-3.867l0,-17.333c0,-0.8 0.8,-1.467 2.134,-1.467c1.066,0 1.866,0.667 1.866,1.467l0,16.267c0,1.066 0.934,1.733 1.867,1.733c0.667,-0.133 3.333,-1.2 3.333,-1.2c0.267,-0.133 0.4,-0.133 0.667,-0.133c0.533,-0 0.933,0.4 0.933,1.066l0,9.467c0,0.8 -0.666,1.867 -1.6,2.267Zm-9.2,21.733c0.267,-1.2 0.534,-4.933 0.534,-8.533c-0,-3.6 -0.267,-6.934 -0.534,-7.6c-0.266,-0.534 -1.066,-0.8 -2,-0.8c-3.333,-0 -9.466,2.8 -9.733,5.066c-0.267,1.067 -0.4,5.734 -0.4,9.867c-0,3.2 0.133,6.133 0.4,6.667c0.133,0.4 0.8,0.666 1.6,0.666c3.067,0 9.333,-2.666 10.133,-5.333Z" style="fill:#222;fill-rule:nonzero;"/></g></g><g><g><path d="M269.62,88.067l-3.467,1.333c-1.066,0.4 -1.733,2.933 -1.733,3.867l0,12.4c0,1.6 0.933,2.4 1.733,2.4l3.467,-1.334c0.267,-0.133 0.4,-0.133 0.667,-0.133c0.533,-0 0.933,0.4 0.933,1.067l0,9.466c0,0.8 -0.667,1.867 -1.6,2.267c0,-0 -2.8,1.067 -3.733,1.467c-0.934,0.4 -1.467,2 -1.467,3.066l0,18.934c0,0.8 -0.8,1.466 -2.267,1.466c-0.933,0 -1.733,-0.666 -1.733,-1.466l0,-16.667c0,-0.8 -0.667,-2.4 -1.867,-2.4l-0.266,0.133l-0.134,0l-8.133,3.334c-0.667,0.266 -1.333,1.2 -1.333,2.933l-0,18.533c-0,0.8 -0.934,1.467 -2.267,1.467c-0.933,-0 -1.733,-0.667 -1.733,-1.467l-0,-16.4c-0,-0.666 -0.667,-2.133 -1.6,-2.133c-0.134,-0 -0.267,-0 -0.4,0.133c-1.2,0.4 -3.067,1.2 -3.2,1.2l-0.267,0.134c-0.8,-0 -1.2,-0.4 -1.2,-1.2l0,-9.467c0,-0.8 0.667,-1.867 1.6,-2.133c0,-0 2.8,-1.2 3.6,-1.467c0.8,-0.4 1.467,-1.6 1.467,-3.067l-0,-13.2c-0,-1.066 -0.8,-2.4 -1.867,-2.4l-0.133,0.134c-1.067,0.533 -3.067,1.333 -3.2,1.333l-0.267,0.133c-0.8,0 -1.2,-0.4 -1.2,-1.2l0,-9.466c0,-0.8 0.667,-1.867 1.6,-2.134c0,0 2.667,-1.066 3.467,-1.466c0.8,-0.4 1.6,-1.734 1.6,-3.6l-0,-18c-0,-0.8 0.8,-1.467 2.133,-1.467c0.933,-0 1.867,0.667 1.867,1.467l-0,16c-0,1.066 0.4,2.666 1.6,2.666c2.266,-0.533 6.8,-2.4 8.4,-3.333c1.2,-0.8 1.6,-2.533 1.733,-3.867l0,-17.333c0,-0.8 0.8,-1.467 2.133,-1.467c1.067,0 1.867,0.667 1.867,1.467l0,16.267c0,1.066 0.933,1.733 1.867,1.733c0.666,-0.133 3.333,-1.2 3.333,-1.2c0.267,-0.133 0.4,-0.133 0.667,-0.133c0.533,-0 0.933,0.4 0.933,1.066l0,9.467c0,0.8 -0.667,1.867 -1.6,2.267Zm-9.2,21.733c0.267,-1.2 0.533,-4.933 0.533,-8.533c0,-3.6 -0.266,-6.934 -0.533,-7.6c-0.267,-0.534 -1.067,-0.8 -2,-0.8c-3.333,-0 -9.467,2.8 -9.733,5.066c-0.267,1.067 -0.4,5.734 -0.4,9.867c-0,3.2 0.133,6.133 0.4,6.667c0.133,0.4 0.8,0.666 1.6,0.666c3.066,0 9.333,-2.666 10.133,-5.333Z" style="fill:#222;fill-rule:nonzero;"/></g></g><g><g><path d="M172.634,79.267l-0,6.4c-0,0.533 -0.4,1.066 -1.333,1.333c-0,-0 -18.534,7.2 -18.934,7.333c-0.4,0.134 -0.8,0.4 -0.8,1.334l0,1.333l-0.266,4.267l-0,1.333c-0,0.933 0.533,1.867 1.466,2.133c0.267,0.134 0.534,0.134 0.8,0.134c0.534,-0 2,-1.067 2.934,-1.734c1.733,-0.933 3.2,-1.466 4.8,-1.866c0.8,-0.267 1.733,-0.4 2.533,-0.4c6.133,0.4 12,5.066 12,12.666c-0,6.134 -4.133,14.4 -16,22.667c-3.333,2.267 -6.667,6 -10.667,8.133c0,0 -0.4,0.267 -0.8,0.267c-0.266,-0 -0.666,-0.133 -1.066,-0.667c-0.667,-0.8 -1.067,-25.466 -1.334,-46.533c0,-0.267 -0.266,-0.533 -0.8,-0.533c-0.266,0.266 -6.4,2.533 -6.666,2.533c-0.667,-0 -0.934,-0.533 -0.934,-1.067l0,-6.666c0,-0.667 0.4,-0.934 1.2,-1.067l6,-2.267c1.067,-0.4 1.067,-1.6 1.067,-2c-0.133,-11.466 -0.133,-19.866 -0.133,-19.866c0.133,-2.4 2.266,-3.734 4,-3.734c1.333,0 2.533,0.8 2.533,2.267c-0,1.333 -0.267,10.533 -0.4,19.333c-0,0.4 0.133,0.8 0.8,0.8c0.533,-0.266 18.667,-6.933 18.667,-6.933c0.133,-0.133 0.4,-0.133 0.533,-0.133c0.667,-0 0.8,0.8 0.8,1.2Zm-18.133,54.4c6.266,-3.467 12.133,-10.667 12.133,-18.134c-0,-3.466 -1.333,-7.6 -5.333,-7.6c-3.334,0 -8.667,3.6 -9.6,6.534c-0.134,0.533 -0.267,2.133 -0.267,4.266c-0,5.334 0.4,13.334 0.4,13.334c-0,0.8 0.267,2 1.333,2c0.4,-0 0.8,-0.134 1.334,-0.4Z" style="fill:#222;fill-rule:nonzero;"/></g></g></svg>