<?xml version="1.0" encoding="UTF-8" standalone="no"?><!DOCTYPE svg PUBLIC "-//W3C//DTD SVG 1.1//EN" "http://www.w3.org/Graphics/SVG/1.1/DTD/svg11.dtd"><svg width="100%" height="100%" viewBox="0 0 1434 134" version="1.1" xmlns="http://www.w3.org/2000/svg" xmlns:xlink="http://www.w3.org/1999/xlink" xml:space="preserve" xmlns:serif="http://www.serif.com/" style="fill-rule:evenodd;clip-rule:evenodd;stroke-linejoin:round;stroke-miterlimit:2;"><g><g><path d="M25.308,42.933l2,-0.666c0.134,-0.134 0.4,-0.134 0.534,-0.134c0.533,0 1.066,0.4 1.066,1.067l0,66.933c0,0.934 -0.8,1.6 -1.6,1.6l-1.733,0c-0.933,0 -1.6,-0.666 -1.6,-1.6l0,-19.866c0,-1.067 -0.933,-1.467 -2.267,-1.467c-3.866,0 -11.333,3.2 -13.2,4c-0.133,0.133 -0.4,0.133 -0.533,0.133l-0.267,0.134c-0.8,-0 -1.2,-0.4 -1.2,-1.2l0,-68.667c0,-0.933 0.667,-1.6 1.6,-1.6l1.734,0c0.8,0 1.6,0.667 1.6,1.6l-0,22.267c-0,0.533 0.533,0.666 1.333,0.666c3.467,0 12,-3.066 12,-3.066c0.133,-0 0.267,-0.134 0.533,-0.134Zm-13.866,18.934l-0,13.733c-0,0.533 0.666,0.8 1.6,0.8c3.333,0 10.933,-3.067 10.933,-5.467l0,-13.733c0,-0.533 -0.4,-0.667 -1.2,-0.667c-3.2,0 -11.333,3.467 -11.333,5.334Z" style="fill:#ddb974;fill-rule:nonzero;"/></g></g><g><g><g><path d="M144.1,51.067l-3.467,1.333c-1.066,0.4 -1.733,2.933 -1.733,3.867l0,12.4c0,1.6 0.933,2.4 1.733,2.4l3.467,-1.334c0.267,-0.133 0.4,-0.133 0.667,-0.133c0.533,0 0.933,0.4 0.933,1.067l0,9.466c0,0.8 -0.667,1.867 -1.6,2.267c0,0 -2.8,1.067 -3.733,1.467c-0.934,0.4 -1.467,2 -1.467,3.066l0,18.934c0,0.8 -0.8,1.466 -2.267,1.466c-0.933,0 -1.733,-0.666 -1.733,-1.466l0,-16.667c0,-0.8 -0.667,-2.4 -1.867,-2.4l-0.266,0.133l-0.134,0l-8.133,3.334c-0.667,0.266 -1.333,1.2 -1.333,2.933l-0,18.533c-0,0.8 -0.934,1.467 -2.267,1.467c-0.933,0 -1.733,-0.667 -1.733,-1.467l-0,-16.4c-0,-0.666 -0.667,-2.133 -1.6,-2.133c-0.134,0 -0.267,0 -0.4,0.133c-1.2,0.4 -3.067,1.2 -3.2,1.2l-0.267,0.134c-0.8,-0 -1.2,-0.4 -1.2,-1.2l0,-9.467c0,-0.8 0.667,-1.867 1.6,-2.133c0,-0 2.8,-1.2 3.6,-1.467c0.8,-0.4 1.467,-1.6 1.467,-3.067l-0,-13.2c-0,-1.066 -0.8,-2.4 -1.867,-2.4l-0.133,0.134c-1.067,0.533 -3.067,1.333 -3.2,1.333l-0.267,0.133c-0.8,0 -1.2,-0.4 -1.2,-1.2l0,-9.466c0,-0.8 0.667,-1.867 1.6,-2.134c0,0 2.667,-1.066 3.467,-1.466c0.8,-0.4 1.6,-1.734 1.6,-3.6l-0,-18c-0,-0.8 0.8,-1.467 2.133,-1.467c0.933,0 1.867,0.667 1.867,1.467l-0,16c-0,1.066 0.4,2.666 1.6,2.666c2.266,-0.533 6.8,-2.4 8.4,-3.333c1.2,-0.8 1.6,-2.533 1.733,-3.867l0,-17.333c0,-0.8 0.8,-1.467 2.133,-1.467c1.067,0 1.867,0.667 1.867,1.467l0,16.267c0,1.066 0.933,1.733 1.867,1.733c0.666,-0.133 3.333,-1.2 3.333,-1.2c0.267,-0.133 0.4,-0.133 0.667,-0.133c0.533,-0 0.933,0.4 0.933,1.066l0,9.467c0,0.8 -0.667,1.867 -1.6,2.267Zm-9.2,21.733c0.267,-1.2 0.533,-4.933 0.533,-8.533c0,-3.6 -0.266,-6.934 -0.533,-7.6c-0.267,-0.534 -1.067,-0.8 -2,-0.8c-3.333,-0 -9.467,2.8 -9.733,5.066c-0.267,1.067 -0.4,5.734 -0.4,9.867c-0,3.2 0.133,6.133 0.4,6.667c0.133,0.4 0.8,0.666 1.6,0.666c3.066,0 9.333,-2.666 10.133,-5.333Z" style="fill:#ddb974;fill-rule:nonzero;"/></g></g></g><g><g><path d="M263.033,71.067l1.334,-0c2.266,-0 4.666,0.266 5.333,0.933c0.533,0.667 0.933,3.067 0.933,5.333c0,4.8 -0.933,6.134 -6,6.134c-2.266,-0 -4.4,-0.534 -5.333,-1.334c-0.533,-0.4 -0.667,-2.666 -0.667,-5.066c-0.533,-1.867 -2.8,-6.134 -4.533,-6.134c-1.733,0 -3.333,3.734 -4.133,5.6c-0.134,0.134 -0.267,0.4 -0.267,0.534c-0,2.133 -0.267,4.4 -1.067,5.066c-0.8,0.934 -2.933,1.334 -4.933,1.334c-2.267,-0 -4.4,-0.534 -5.333,-1.334c-0.4,-0.266 -0.667,-2.666 -0.667,-5.066c-0,-2.4 0.267,-4.667 0.667,-5.067c0.8,-0.667 3.333,-0.933 5.733,-0.933l1.333,-0c1.867,-0.667 6.134,-2.8 6.134,-4.534c-0,-0.933 -4.8,-3.6 -6.267,-4.4c-0.4,0 -0.8,0.134 -1.333,0.134c-2.267,-0 -4.667,-0.534 -5.6,-1.334c-0.4,-0.4 -0.667,-2.8 -0.667,-5.2c-0,-2.4 0.267,-4.666 0.667,-4.933c0.8,-0.667 3.2,-0.933 5.466,-0.933c2.134,-0 4.267,0.266 4.8,0.933c0.667,0.533 1.067,2.933 1.067,5.2c0.533,1.867 2.667,6.267 4.533,6.267c1.6,-0 3.734,-4.8 4.4,-6.267c0,-2.4 0.134,-4.8 0.667,-5.2c0.667,-0.667 3.067,-0.933 5.467,-0.933c5.466,-0 5.866,0.8 5.866,6.266c0,2.134 -0.266,4.134 -0.933,4.8c-1.333,1.067 -3.867,1.334 -5.467,1.334l-0.8,-0.134l-0.4,0c-1.866,0.667 -6.266,2.667 -6.266,4.534c-0,0.933 4.8,3.6 6.266,4.4Z" style="fill:#ddb974;fill-rule:nonzero;"/></g></g><g><g><g><path d="M1021.17,64l0.8,0c6.267,0.133 12.133,5.067 12.133,12.533c0,6.134 -4.266,14.267 -16.266,22.667c-3.067,2.133 -6.267,5.867 -10.4,8c-0,0 -0.4,0.267 -0.801,0.267c-0.266,-0 -0.666,-0.134 -1.066,-0.667c-0.4,-0.4 -0.667,-8 -0.933,-18c-2.534,3.2 -6.267,6.8 -11.2,10.267c-3.067,2.266 -6.4,6 -10.534,8.133c0,0 -0.4,0.267 -0.8,0.267c-0.4,-0 -0.8,-0.134 -1.2,-0.667c-0.933,-1.2 -1.6,-77.467 -1.6,-77.467c0.134,-2.266 2.267,-3.466 4.134,-3.466c1.333,-0 2.533,0.666 2.533,2.133c-0,2.533 -0.933,34.667 -0.933,37.467c-0,1.066 0.533,2 1.466,2.266c0.267,0.134 0.4,0.134 0.667,0.134c1.2,-0 2.133,-1.2 3.2,-1.734c2.133,-1.2 3.733,-2.133 6.266,-2.133l0.801,0c2.533,0 4.799,0.8 6.799,2.133c-0.266,-18.533 -0.399,-36.8 -0.399,-36.8c0.266,-2.266 2.399,-3.466 4.133,-3.466c1.333,-0 2.533,0.666 2.533,2.133c0,2.533 -0.8,34.667 -0.8,37.467c0,1.066 0.4,2 1.333,2.266c0.134,0.134 0.4,0.134 0.667,0.134c1.2,-0 2.267,-1.2 3.2,-1.734c2.133,-1.2 3.867,-2.133 6.267,-2.133Zm-32.934,32.533c6,-3.733 12,-10.4 12,-17.866c0,-3.334 -1.333,-7.867 -5.333,-7.867c-3.2,0 -8.667,4 -9.467,6.667c-0.133,0.533 -0.266,2.133 -0.266,4.266c-0,5.2 0.4,13.067 0.4,13.067c-0,0.8 0.4,2.133 1.466,2.133c0.267,0 0.8,-0.133 1.2,-0.4Zm24.534,0c6,-3.733 11.866,-10.4 11.866,-17.866c0,-2.667 -0.8,-4.934 -2,-6.534c-0.8,-0.933 -1.866,-1.333 -3.2,-1.333c-3.2,0 -8.8,4 -9.6,6.667c-0.133,0.4 -0.133,1.6 -0.133,3.066c0,5.067 0.4,14.267 0.4,14.267c0,0.8 0.4,2.133 1.467,2.133c0.266,0 0.666,-0.133 1.2,-0.4Z" style="fill:#ddb974;fill-rule:nonzero;"/></g></g></g><g><g><path d="M925.188,106.933c-1.067,-1.333 -1.6,-77.466 -1.6,-77.466c0.133,-2.4 2.4,-3.734 4.266,-3.734c1.334,0 2.534,0.667 2.534,2.267l-1.067,37.6c-0,1.067 0.533,2 1.467,2.267c0.266,0.133 0.4,0.133 0.666,0.133c1.067,0 2,-1.2 3.067,-1.867c1.467,-0.933 2.933,-1.466 4.533,-2c0.934,-0.133 1.734,-0.266 2.667,-0.266c6,0.266 12,5.2 12,12.666c-0,6.267 -4.267,14.4 -16.133,22.667c-3.067,2.267 -6.4,6 -10.4,8.133c-0,0 -0.4,0.267 -0.8,0.267c-0.4,0 -0.8,-0.133 -1.2,-0.667Zm-6.8,0.4c-4.134,-2.133 -7.334,-5.866 -10.4,-8c-12,-8.4 -16.267,-16.533 -16.267,-22.8c-0,-7.333 5.867,-12.4 12.133,-12.666c0.933,-0 1.734,0.133 2.8,0.266l0.134,0.134c1.466,0.533 2.933,1.066 4.266,1.866c1.067,0.667 2,1.867 3.067,1.867c0.267,0 0.4,0 0.667,-0.133c0.933,-0.267 1.466,-1.2 1.466,-2.267l-1.066,-37.6c-0,-1.467 1.2,-2.133 2.533,-2.133c1.867,-0 4.133,1.2 4.267,3.6c-0,-0 -0.667,76.133 -1.734,77.466c-0.4,0.534 -0.933,0.667 -1.2,0.667c-0.4,-0 -0.666,-0.267 -0.666,-0.267Zm-2.534,-29.733c-0.533,-1.867 -4,-4.667 -5.866,-5.733c-1.334,-0.667 -2.4,-0.934 -3.467,-0.934c-1.333,0 -2.533,0.534 -3.467,1.467c-1.2,1.467 -2,3.733 -2,6.267c0,7.466 5.867,14.133 11.867,18c0.533,0.266 0.933,0.4 1.333,0.4c1.2,-0 1.467,-1.334 1.467,-2.134c-0,0 0.4,-7.866 0.4,-13.066c-0,-2.134 -0.133,-3.734 -0.267,-4.267Zm14,17.333c0,0.8 0.4,2.134 1.467,2.134c0.4,-0 0.667,-0.134 1.2,-0.4c6.133,-4 11.867,-10.267 11.867,-18c-0,-3.334 -1.2,-7.734 -5.2,-7.734c-3.2,0 -8.667,3.867 -9.467,6.667c-0.133,0.533 -0.267,2.133 -0.267,4.267c0,5.2 0.4,13.066 0.4,13.066Z" style="fill:#ddb974;fill-rule:nonzero;"/></g></g><g><g><g><path d="M86.346,41.333l-0,9.467c-0,0.933 -0.8,1.867 -1.6,2.267c-0,-0 -5.6,2.133 -6.8,2.666c-1.067,0.4 -1.734,2.8 -1.734,3.867l0,12.4c0,1.467 0.934,2.267 1.867,2.267c0.533,-0.134 6.667,-2.667 6.667,-2.667l-0,0.133l0.133,0l0.267,-0.133c0.8,0 1.2,0.4 1.2,1.2l-0,9.467c-0,0.8 -0.8,1.866 -1.6,2.133c-0,0 -6,2.4 -7.067,2.667c-0.533,0.266 -1.067,1.066 -1.2,1.866c-0.133,0.4 -0.133,0.667 -0.133,1.067l-0,18.4c-0,1.333 -0.267,2.267 -2.267,2.267c-1.067,-0 -1.867,-0.667 -1.867,-1.467l0,-16.667c0,-1.066 -1.2,-2.8 -1.866,-2.533c-1.2,0.533 -6.267,2.667 -6.4,2.667l-0.267,0.133c-0.8,0 -1.2,-0.4 -1.2,-1.2l0,-9.467c0,-0.8 0.8,-1.866 1.6,-2.133l6.933,-2.933c0.8,-0.267 1.334,-1.467 1.334,-2.934l-0,-13.333c-0,-1.067 -0.8,-2.267 -1.734,-2.267l-0.133,0.134c-1.2,0.4 -6.4,2.666 -6.533,2.666l-0.267,0.134c-0.8,-0 -1.2,-0.4 -1.2,-1.2l0,-9.467c0,-0.8 0.8,-1.867 1.6,-2.133c2.267,-0.934 4.4,-2 6.8,-2.934c0.933,-0.8 1.333,-2.4 1.333,-3.466l0,-17.334c0,-1.066 0.267,-2.266 2.267,-2.266c1.067,-0 1.867,0.666 1.867,1.466l-0,16c-0,1.2 0.533,2.667 1.733,2.667c0.267,0 6.667,-2.4 6.667,-2.4c0.133,-0.133 0.4,-0.133 0.533,-0.133c0.533,-0 1.067,0.4 1.067,1.066Z" style="fill:#ddb974;fill-rule:nonzero;"/></g></g></g><g><g><g><path d="M212.925,38.133l0,10.267c0,0.533 -0.4,0.933 -1.067,1.067c0,-0 -4.4,1.733 -4.933,1.866c-0.667,0.267 -0.8,0.8 -0.8,1.734l0,15.6c0,0.933 0.4,1.6 1.2,1.6l0.133,-0.134c0.934,-0.4 4.4,-1.733 4.667,-1.733c0.533,0 0.8,0.667 0.8,1.067l0,10.4c0,0.533 -0.4,0.8 -1.067,1.066l-4.666,1.734c-0.4,0.133 -1.067,0.8 -1.067,1.6l0,19.733c0,1.733 -0.4,2.133 -2.133,2.133c-1.734,0 -2.134,-0.266 -2.134,-2.133l0,-17.867c0,-0.666 -0.266,-1.066 -0.8,-1.066c-0.266,-0 -0.533,0.133 -0.8,0.266l-4.8,1.734c-0.8,0.266 -1.333,1.066 -1.333,2.133l0,18.933c0,1.734 -0.4,2.134 -2.133,2.134c-1.734,-0 -2.134,-0.267 -2.134,-2.134l0,-17.466c0,-0.8 -0.266,-1.067 -1.066,-1.067l-6.4,2.533c-0.534,0.134 -0.8,0.934 -0.8,1.734l-0,18.4c-0,1.733 -0.4,2.133 -2.134,2.133c-1.733,0 -2.133,-0.4 -2.133,-2.133l0,-16.534c0,-0.8 -0.267,-1.2 -0.933,-1.2c-0.267,0 -0.534,0 -0.8,0.134c-1.2,0.4 -3.467,1.333 -3.6,1.333c-0.534,0 -0.934,-0.533 -0.934,-1.067l0,-10.4c0,-0.533 0.4,-0.8 1.067,-1.066l3.867,-1.467c0.666,-0.267 1.333,-1.2 1.333,-2.267l0,-15.466c0,-0.8 -0.133,-1.334 -0.8,-1.334c-0.133,0 -0.267,0 -0.533,0.134c-1.067,0.533 -3.867,1.466 -4.134,1.466c-0.4,0 -0.8,-0.533 -0.8,-1.066l0,-10.267c0,-0.533 0.4,-0.8 1.067,-1.067l4.133,-1.6c0.667,-0.266 1.067,-0.666 1.067,-2l0,-19.333c0,-1.733 0.4,-2.133 2.133,-2.133c1.734,-0 2.134,0.4 2.134,2.133l-0,17.733c-0,0.8 0.4,1.2 1.066,1.2l0.134,-0.133l0.133,0l5.733,-2.133c0.934,-0.4 1.2,-1.2 1.2,-2.134l0,-18.533c0,-1.733 0.4,-2.133 2.134,-2.133c1.733,-0 2.133,0.266 2.133,2.133l0,16.933c0,0.667 0.267,1.2 1.333,1.2c1.734,-0.8 4.8,-1.866 5.334,-2.133c0.8,-0.267 1.066,-0.8 1.066,-2.533l0,-17.6c0,-1.734 0.4,-2.134 2.134,-2.134c1.733,0 2.133,0.267 2.133,2.134l0,16.933c0,0.667 0.267,0.933 0.533,0.933c0.134,0 0.267,0 0.4,-0.133c0.667,-0.267 4.8,-1.733 5.067,-1.733c0.533,-0 0.8,0.533 0.8,1.066Zm-11.067,34.134c0.267,-0.667 0.4,-6.4 0.4,-11.334c0,-3.866 -0.133,-7.333 -0.4,-7.733c0,0 -0.266,-0.133 -0.4,-0.133c-1.6,-0 -6.4,2 -6.933,3.066c-0.267,0.667 -0.4,5.6 -0.4,10.267c0,4.267 0.133,8.267 0.4,8.667c0.133,0.133 0.4,0.266 0.8,0.266c1.867,0 6.133,-2 6.533,-3.066Zm-20.266,7.6c0.133,0.133 0.4,0.266 0.8,0.266c2,0 7.066,-2 7.466,-3.333c0.267,-0.8 0.4,-6 0.4,-10.667c0,-4.133 -0.133,-7.866 -0.4,-8.266c-0.133,-0.134 -0.266,-0.267 -0.666,-0.267c-1.867,0 -7.2,2.133 -7.6,3.333c-0.267,0.934 -0.4,6.667 -0.4,11.6c-0,3.6 -0,6.8 0.4,7.334Z" style="fill:#ddb974;fill-rule:nonzero;"/></g></g></g><g><g><g><path d="M1155.84,42.4l-0,6.4c-0,0.667 -0.4,1.2 -1.2,1.467c-0,-0 -17.867,6.533 -18.8,6.933c-0.934,0.267 -0.934,1.6 -0.934,2.133c-0.133,3.067 -0.133,5.467 -0.133,6.134c0,1.066 0.533,2 1.6,2.4l0.133,0.133c1.334,0 2.4,-1.333 3.467,-1.867c2,-1.2 4.8,-2.266 7.067,-2.266c6.133,0.4 12,5.066 12,12.666c-0,6.267 -4.267,14.267 -16,22.534c-3.067,2.266 -6.4,6 -10.4,8.133c-0,0 -0.4,0.267 -0.8,0.267c-0.4,-0 -0.8,-0.134 -1.2,-0.8c-0.534,-0.534 -1.067,-24.534 -1.334,-45.6c0,-0.534 -0.266,-1.067 -1.2,-1.067c-0.8,0.4 -5.866,2.4 -6.133,2.4c-0.8,0 -1.067,-0.533 -1.067,-1.067l0,-6.8c0,-0.666 0.4,-0.933 1.334,-0.933c-0,0 5.6,-2.267 6.133,-2.533c0.667,-0.267 0.8,-0.534 0.8,-1.6c-0.133,-0.934 -0.133,-2.134 -0.133,-3.334c-0,-0.266 -0.267,-0.666 -0.934,-0.666c-0.666,0.4 -5.866,2.133 -6,2.133l-0.133,0.133c-0.8,0 -1.067,-0.533 -1.067,-1.066l0,-6.8c0,-0.534 0.4,-0.934 1.334,-1.067c-0,-0 5.6,-2.133 6,-2.4c0.666,-0.133 0.8,-0.8 0.8,-1.067l-0,-5.733c0.133,-2.4 2.266,-3.733 4.133,-3.733c1.333,-0 2.533,0.666 2.533,2.133c0,0.533 -0.133,2.133 -0.133,4.667c0,0.266 0.267,0.666 0.933,0.666c0.4,-0.133 18.134,-6.666 18.534,-6.666c0.666,-0 0.8,0.533 0.8,1.066l-0,6.534c-0,0.533 -0.4,1.066 -1.2,1.333c-0,0 -17.867,6.533 -18.4,6.8c-0.534,0.267 -0.934,0.667 -0.934,1.467c0,0.8 0,2.533 -0.133,3.733c0,0.267 0.667,0.667 0.8,0.667c0.533,-0.267 18.667,-6.934 19.067,-6.934c0.666,0 0.8,0.534 0.8,1.067Zm-17.867,54.133c6,-3.6 11.867,-10.666 11.867,-18c-0,-2.666 -0.8,-4.8 -2,-6.266c-0.934,-0.934 -2.134,-1.334 -3.467,-1.334c-1.067,0 -2.133,0.267 -3.333,0.8c-2,1.067 -5.467,4 -6,5.734c-0.134,0.533 -0.134,1.866 -0.134,3.6c0,5.2 0.4,13.733 0.4,13.733c0,0.8 0.4,2.133 1.467,2.133c0.267,0 0.667,-0.133 1.2,-0.4Z" style="fill:#ddb974;fill-rule:nonzero;"/></g></g></g><g><g><g><path d="M839.138,106.933c-1.067,-1.333 -1.6,-77.466 -1.6,-77.466c0.133,-2.4 2.266,-3.734 4.133,-3.734c1.333,0 2.533,0.8 2.533,2.267c0,2.667 -0.8,34.667 -0.933,37.6c-0,0.933 0.533,1.867 1.466,2.267c0.267,0.133 0.401,0.133 0.667,0.133c0.667,0 2.134,-1.2 2.933,-1.867c1.867,-1.2 5.067,-2.266 7.334,-2.266c6.133,0.4 12,5.2 12,12.8c-0,6.133 -4.133,14.266 -16,22.533c-3.333,2.267 -6.533,5.867 -10.533,8.133c-0,0 -0.4,0.267 -0.8,0.267c-0.4,0 -0.8,-0.133 -1.2,-0.667Zm4.666,-11.866c0,0.666 0.267,2 1.467,2c0.4,-0 0.8,-0.134 1.333,-0.4c5.734,-3.6 11.867,-10.8 11.867,-18c-0,-3.334 -1.6,-7.734 -5.467,-7.734c-3.066,0 -8.4,3.867 -9.333,6.534c-0.133,0.533 -0.267,2.133 -0.267,4.266c0,5.334 0.4,13.334 0.4,13.334Z" style="fill:#ddb974;fill-rule:nonzero;"/></g></g></g><g><g><g><path d="M1093.41,42.267l0,6.4c0,0.533 -0.4,1.066 -1.333,1.333c0,0 -18.533,7.2 -18.933,7.333c-0.4,0.134 -0.8,0.4 -0.8,1.334l-0,1.333l-0.267,4.267l0,1.333c0,0.933 0.533,1.867 1.467,2.133c0.266,0.134 0.533,0.134 0.8,0.134c0.533,-0 2,-1.067 2.933,-1.734c1.733,-0.933 3.2,-1.466 4.8,-1.866c0.8,-0.267 1.733,-0.4 2.533,-0.4c6.134,0.4 12,5.066 12,12.666c0,6.134 -4.133,14.4 -16,22.667c-3.333,2.267 -6.666,6 -10.666,8.133c-0,0 -0.4,0.267 -0.8,0.267c-0.267,0 -0.667,-0.133 -1.067,-0.667c-0.667,-0.8 -1.067,-25.466 -1.333,-46.533c-0,-0.267 -0.267,-0.533 -0.8,-0.533c-0.267,0.266 -6.4,2.533 -6.667,2.533c-0.667,0 -0.933,-0.533 -0.933,-1.067l-0,-6.666c-0,-0.667 0.4,-0.934 1.2,-1.067l6,-2.267c1.066,-0.4 1.066,-1.6 1.066,-2c-0.133,-11.466 -0.133,-19.866 -0.133,-19.866c0.133,-2.4 2.267,-3.734 4,-3.734c1.333,0 2.533,0.8 2.533,2.267c0,1.333 -0.266,10.533 -0.4,19.333c0,0.4 0.134,0.8 0.8,0.8c0.534,-0.266 18.667,-6.933 18.667,-6.933c0.133,-0.133 0.4,-0.133 0.533,-0.133c0.667,-0 0.8,0.8 0.8,1.2Zm-18.133,54.4c6.267,-3.467 12.133,-10.667 12.133,-18.134c0,-3.466 -1.333,-7.6 -5.333,-7.6c-3.333,0 -8.667,3.6 -9.6,6.534c-0.133,0.533 -0.267,2.133 -0.267,4.266c0,5.334 0.4,13.334 0.4,13.334c0,0.8 0.267,2 1.334,2c0.4,-0 0.8,-0.134 1.333,-0.4Z" style="fill:#ddb974;fill-rule:nonzero;"/></g></g></g><g><g><g><path d="M812.033,106.933c-0.4,0.534 -0.8,0.667 -1.2,0.667c-0.4,0 -0.8,-0.267 -0.8,-0.267c-4,-2.266 -7.2,-5.866 -10.533,-8.133c-11.867,-8.267 -16,-16.4 -16,-22.8c0,-7.333 5.867,-12.133 12,-12.533c2.267,-0 5.467,1.066 7.333,2.266c0.8,0.667 2.267,1.867 2.934,1.867c0.266,-0 0.4,-0 0.666,-0.133c0.934,-0.4 1.467,-1.334 1.467,-2.267c-0.133,-2.933 -0.933,-34.933 -0.933,-37.6c-0,-1.467 1.2,-2.267 2.533,-2.267c1.867,0 4,1.334 4.133,3.734c0,-0 -0.533,76.133 -1.6,77.466Zm-4.666,-11.866c-0,-0 0.4,-8 0.4,-13.334c-0,-2.133 -0.134,-3.733 -0.267,-4.266c-0.933,-2.667 -6.267,-6.534 -9.333,-6.534c-3.867,0 -5.467,4.4 -5.467,7.734c0,7.2 6.133,14.4 11.867,18c0.533,0.266 0.933,0.4 1.333,0.4c1.2,-0 1.467,-1.334 1.467,-2Z" style="fill:#ddb974;fill-rule:nonzero;"/></g></g></g><g><g><g><path d="M320.292,57l-0,2c-0,0.133 -0,0.4 0.533,0.4l0.267,-0.133c0.933,-0.267 18.4,-6.934 18.4,-6.934l-0,0.134l0.133,-0l0.267,-0.267c1.066,0 1.2,0.933 1.2,1.6l-0,8.4c-0,0.8 -0.4,1.333 -1.6,1.733c-0,0 -18.267,6.934 -18.667,7.067c-0.4,0.133 -0.533,0.267 -0.533,0.8l-0,1.733c-0,0.667 0.4,0.934 1.333,0.934l10.8,-4.134c0.267,-0.133 0.533,-0.133 0.667,-0.133c0.666,0 0.933,0.4 0.933,1.067l0,9.466c0,0.934 -0.667,1.867 -1.6,2.267c0,0 -9.733,3.733 -10.667,4.133c-0.666,0.267 -1.066,1.067 -1.333,1.867c-0.133,0.267 -0.133,0.533 -0.133,0.933l-0,18.534c-0,1.2 -0.267,2.133 -2.267,2.133c-0.933,0 -1.733,-0.667 -1.733,-1.467l-0,-17.866c-0,-0.8 -0.134,-1.6 -0.8,-1.6l-0.134,0.133c-1.066,0.267 -10.266,4 -10.266,4c-0.267,0.133 -0.4,0.133 -0.667,0.133c-0.533,0 -0.933,-0.4 -0.933,-1.066l-0,-9.467c-0,-0.933 0.666,-1.867 1.6,-2.267c-0,0 9.466,-3.866 10.266,-4.266c0.8,-0.267 0.934,-0.667 0.934,-1.6l-0,-2c-0,-0.267 -0.134,-0.4 -0.534,-0.4l-18.8,6.933c-0.8,0 -1.2,-0.8 -1.2,-1.467l0,-8.666c0,-0.8 0.534,-1.2 1.6,-1.467c0,-0 18,-6.8 18.534,-6.933c0.4,-0.134 0.4,-0.534 0.4,-0.934l-0,-2c-0,-0.133 -0.134,-0.266 -0.4,-0.266c-0.134,-0 -0.4,-0 -0.534,0.133l-10.266,3.733c-0.267,0.134 -0.4,0.134 -0.667,0.134c-0.533,-0 -0.933,-0.4 -0.933,-1.067l-0,-9.467c-0,-0.933 0.666,-1.866 1.6,-2.266c2.533,-0 6.933,-2.4 9.733,-3.467c0.933,-0.933 1.333,-2.4 1.467,-3.6l-0,-17.333c-0,-1.067 0.133,-2.134 2.266,-2.134c0.934,0 1.734,0.667 1.734,1.467l-0,16c-0,1.067 0.533,2.667 1.733,2.667c0.267,-0.134 10.4,-3.867 10.4,-3.867c0.267,-0.133 0.533,-0.133 0.667,-0.133c0.666,-0 0.933,0.4 0.933,1.066l0,9.467c0,0.933 -0.667,1.867 -1.6,2.267l-11.467,4.4c-0.533,0.266 -0.666,0.4 -0.666,0.933Z" style="fill:#ddb974;fill-rule:nonzero;"/></g></g></g><g><g><path d="M404.117,51.067l-3.467,1.333c-1.6,0.667 -1.867,0.933 -1.867,2.267c0,0.133 0.134,1.066 0.134,1.733c-0,0.267 0.133,0.4 0.4,0.4c0.266,-0.133 11.333,-4.267 11.333,-4.267l0,0.134l0.133,-0l0.267,-0.267c0.933,0 1.2,0.933 1.2,1.467l0,8.4c0,0.8 -0.533,1.466 -1.6,1.733l-11.333,4.267c-0.4,0.133 -0.4,0.4 -0.4,0.666l-0,1.334c-0,0.8 0.133,1.2 0.533,1.2c0.267,-0 0.667,-0.134 1.2,-0.4l3.467,-1.334c0.266,-0.133 0.4,-0.133 0.666,-0.133c0.534,0 0.934,0.4 0.934,1.067l-0,9.466c-0,0.8 -0.667,1.867 -1.6,2.267c-0,0 -2.8,1.067 -3.734,1.467c-0.933,0.4 -1.466,2 -1.466,3.066l-0,18.934c-0,0.8 -0.8,1.466 -2.267,1.466c-0.933,0 -1.733,-0.666 -1.733,-1.466l-0,-16.667c-0,-0.8 -0.667,-2.4 -1.867,-2.4l-0.267,0.133l-0.133,0l-8.133,3.334c-0.667,0.266 -1.334,1.2 -1.334,2.933l0,18.533c0,0.8 -0.933,1.467 -2.266,1.467c-0.934,0 -1.734,-0.667 -1.734,-1.467l0,-16.4c0,-0.666 -0.666,-2.133 -1.6,-2.133c-0.133,0 -0.266,0 -0.4,0.133c-1.2,0.4 -3.066,1.2 -3.2,1.2l-0.266,0.134c-0.8,-0 -1.2,-0.4 -1.2,-1.2l-0,-9.467c-0,-0.8 0.666,-1.867 1.6,-2.133c-0,-0 3.2,-1.334 4,-1.734c0.933,-0.4 1.066,-0.8 1.066,-1.866l0,-1.6c0,-0.267 0,-0.667 -0.533,-0.667l-0.133,0.133c-0.667,0.267 -10.134,3.734 -10.534,3.734c-0.8,-0 -1.2,-0.667 -1.2,-1.334l0,-8.8c0,-0.8 0.667,-1.066 1.6,-1.333c0,0 10,-3.733 10.267,-3.867c0.4,-0.133 0.4,-0.4 0.4,-0.666l0,-2c0,-0.267 -0.267,-0.4 -0.533,-0.4c-0.4,-0 -0.934,0.266 -1.467,0.4c-0.933,0.533 -2.933,1.333 -3.067,1.333l-0.266,0.133c-0.8,0 -1.2,-0.4 -1.2,-1.2l-0,-9.466c-0,-0.8 0.666,-1.867 1.6,-2.134c-0,0 2.666,-1.066 3.466,-1.466c0.8,-0.4 1.6,-1.734 1.6,-3.6l0,-18c0,-0.8 0.8,-1.467 2.134,-1.467c0.933,0 1.866,0.667 1.866,1.467l0,16c0,1.066 0.4,2.666 1.6,2.666c2.267,-0.533 6.8,-2.4 8.4,-3.333c1.2,-0.8 1.6,-2.533 1.734,-3.867l-0,-17.333c-0,-0.8 0.8,-1.467 2.133,-1.467c1.067,0 1.867,0.667 1.867,1.467l-0,16.267c-0,1.066 0.933,1.733 1.866,1.733c0.667,-0.133 3.334,-1.2 3.334,-1.2c0.266,-0.133 0.4,-0.133 0.666,-0.133c0.534,-0 0.934,0.4 0.934,1.066l-0,9.467c-0,0.8 -0.667,1.867 -1.6,2.267Zm-20.934,8.8c-0.266,0.266 -0.133,2 -0.266,2.666c-0,0.134 0.266,0.267 0.4,0.267c0.133,-0.133 9.733,-3.733 11.6,-4.4c0.266,-0.133 0.266,-0.4 0.266,-0.533c-0.133,-0.267 -0.133,-1.067 -0.133,-1.6c0,-0.534 0,-1.067 -0.4,-1.067c-3.6,0 -9.733,3.067 -11.467,4.667Zm11.867,12.666c0.133,-0.533 0.133,-1.2 0.133,-2.133c0,-0.133 -0.266,-0.4 -0.4,-0.4c-2.133,0.8 -11.333,4.267 -11.466,4.267c-0.4,0.133 -0.534,0.266 -0.534,0.8c0.134,1.2 0.134,2.133 0.4,2.4c0.134,0.133 0.267,0.266 0.667,0.266c2.4,0 10.8,-3.333 11.2,-5.2Z" style="fill:#ddb974;fill-rule:nonzero;"/></g></g><g><g><path d="M474.996,24.467l4.133,-14.267c0.4,-0.533 1.067,-1.333 1.6,-1.333c1.067,0.266 1.334,0.266 2.667,0.266c0.8,0 1.6,-0.266 2.533,-0.266c0.934,-0 1.334,0.533 1.334,1.6l-0,27.733c-0,1.2 1.2,2.4 2.133,2.4c1.067,0 1.067,1.067 1.067,1.067c-0,-0 -0,1.066 -1.067,1.066l-11.2,0c-1.067,0 -1.733,-0.266 -1.733,-1.066c-0,-0.8 0.666,-1.067 1.2,-1.067c1.333,0 2.666,-0.933 2.666,-2.533l0,-19.067c0,-0.4 -0.133,-0.933 -0.4,-0.933c-0.133,-0 -0.4,0.133 -0.666,0.666c-0.8,1.334 -2.4,6.8 -2.534,7.2c-0.133,0.134 -0.4,0.534 -0.8,0.534c-0.533,-0 -1.066,-0.534 -1.066,-1.067c-0,-0.4 0.133,-0.933 0.133,-0.933Zm-5.6,37.866l-3.467,1.334c-1.066,0.4 -1.733,2.933 -1.733,3.866l-0,12.4c-0,1.6 0.933,2.4 1.733,2.4l3.467,-1.333c0.267,-0.133 0.4,-0.133 0.667,-0.133c0.533,-0 0.933,0.4 0.933,1.066l-0,9.467c-0,0.8 -0.667,1.867 -1.6,2.267c-0,-0 -2.8,1.066 -3.733,1.466c-0.934,0.4 -1.467,2 -1.467,3.067l-0,18.933c-0,0.8 -0.8,1.467 -2.267,1.467c-0.933,0 -1.733,-0.667 -1.733,-1.467l-0,-16.666c-0,-0.8 -0.667,-2.4 -1.867,-2.4l-0.266,0.133l-0.134,0l-8.133,3.333c-0.667,0.267 -1.333,1.2 -1.333,2.934l-0,18.533c-0,0.8 -0.934,1.467 -2.267,1.467c-0.933,-0 -1.733,-0.667 -1.733,-1.467l-0,-16.4c-0,-0.667 -0.667,-2.133 -1.6,-2.133c-0.134,-0 -0.267,-0 -0.4,0.133c-1.2,0.4 -3.067,1.2 -3.2,1.2l-0.267,0.133c-0.8,0 -1.2,-0.4 -1.2,-1.2l-0,-9.466c-0,-0.8 0.667,-1.867 1.6,-2.134c-0,0 2.8,-1.2 3.6,-1.466c0.8,-0.4 1.467,-1.6 1.467,-3.067l-0,-13.2c-0,-1.067 -0.8,-2.4 -1.867,-2.4l-0.133,0.133c-1.067,0.534 -3.067,1.334 -3.2,1.334l-0.267,0.133c-0.8,0 -1.2,-0.4 -1.2,-1.2l-0,-9.467c-0,-0.8 0.667,-1.866 1.6,-2.133c-0,0 2.667,-1.067 3.467,-1.467c0.8,-0.4 1.6,-1.733 1.6,-3.6l-0,-18c-0,-0.8 0.8,-1.466 2.133,-1.466c0.933,-0 1.867,0.666 1.867,1.466l-0,16c-0,1.067 0.4,2.667 1.6,2.667c2.266,-0.533 6.8,-2.4 8.399,-3.333c1.201,-0.8 1.601,-2.534 1.734,-3.867l-0,-17.333c-0,-0.8 0.8,-1.467 2.133,-1.467c1.067,0 1.867,0.667 1.867,1.467l-0,16.266c-0,1.067 0.933,1.734 1.867,1.734c0.666,-0.134 3.333,-1.2 3.333,-1.2c0.267,-0.134 0.4,-0.134 0.666,-0.134c0.534,0 0.934,0.4 0.934,1.067l-0,9.467c-0,0.8 -0.667,1.866 -1.6,2.266Zm-9.2,21.734c0.266,-1.2 0.533,-4.934 0.533,-8.534c0,-3.6 -0.267,-6.933 -0.533,-7.6c-0.267,-0.533 -1.067,-0.8 -2,-0.8c-3.334,0 -9.467,2.8 -9.734,5.067c-0.266,1.067 -0.4,5.733 -0.4,9.867c0,3.2 0.134,6.133 0.4,6.666c0.134,0.4 0.8,0.667 1.6,0.667c3.067,0 9.334,-2.667 10.134,-5.333Z" style="fill:#ddb974;fill-rule:nonzero;"/></g></g><g><g><path d="M581.4,32.067c-1.067,10.266 -6.267,10.533 -9.067,10.533c-6,0 -6.933,-3.6 -9.6,-3.6c-4,0 -4.8,4.133 -6.266,4.133c-0.134,0 -0.4,0 -0.534,-0.133c-0.8,-0.4 -1.2,-1.467 -1.2,-2.4c1.2,-4.267 3.734,-8.133 7.467,-10.4c3.333,-2.133 7.733,-3.2 10.133,-6.267c1.334,-1.866 2.134,-4.133 2.134,-6.533c-0,-1.6 -2.134,-6.8 -8.4,-6.8c-4,0 -5.334,1.6 -5.334,2.533c0,1.334 3.334,1.6 3.334,4.667c-0,1.467 -0.4,4.667 -3.734,4.667c-1.866,-0 -3.6,-1.2 -4.4,-2.8c-0.4,-1.2 -0.8,-2.267 -0.8,-3.2c0,-1.067 0.4,-2.134 1.334,-3.2c3.466,-4 7.333,-4.267 12.133,-4.267c1.467,0 6.533,0.4 10,3.2c1.733,1.6 3.067,3.733 3.067,6.933c-0,5.2 -4,8 -8.8,8.667c-1.467,0.4 -8.4,3.733 -9.867,6.267c0.8,-0.267 1.6,-0.4 2.533,-0.4c2.667,-0 5.867,1.066 7.2,1.6l2,0.666c0.267,0.134 0.534,0.134 0.8,0.134c2,-0 3.467,-2.4 4.134,-4.267c0.133,-0.4 0.4,-0.8 0.933,-0.8c0.4,0 0.8,0.133 0.8,1.067Zm-31.467,30.133l-3.466,1.333c-1.067,0.4 -1.734,2.934 -1.734,3.867l0,12.4c0,1.6 0.934,2.4 1.734,2.4l3.466,-1.333c0.267,-0.134 0.4,-0.134 0.667,-0.134c0.533,0 0.933,0.4 0.933,1.067l0,9.467c0,0.8 -0.666,1.866 -1.6,2.266c0,0 -2.8,1.067 -3.733,1.467c-0.933,0.4 -1.467,2 -1.467,3.067l0,18.933c0,0.8 -0.8,1.467 -2.266,1.467c-0.934,-0 -1.734,-0.667 -1.734,-1.467l0,-16.667c0,-0.8 -0.666,-2.4 -1.866,-2.4l-0.267,0.134l-0.133,-0l-8.134,3.333c-0.666,0.267 -1.333,1.2 -1.333,2.933l0,18.534c0,0.8 -0.933,1.466 -2.267,1.466c-0.933,0 -1.733,-0.666 -1.733,-1.466l0,-16.4c0,-0.667 -0.667,-2.134 -1.6,-2.134c-0.133,0 -0.267,0 -0.4,0.134c-1.2,0.4 -3.067,1.2 -3.2,1.2l-0.267,0.133c-0.8,0 -1.2,-0.4 -1.2,-1.2l0,-9.467c0,-0.8 0.667,-1.866 1.6,-2.133c0,0 2.8,-1.2 3.6,-1.467c0.8,-0.4 1.467,-1.6 1.467,-3.066l0,-13.2c0,-1.067 -0.8,-2.4 -1.867,-2.4l-0.133,0.133c-1.067,0.533 -3.067,1.333 -3.2,1.333l-0.267,0.134c-0.8,-0 -1.2,-0.4 -1.2,-1.2l0,-9.467c0,-0.8 0.667,-1.867 1.6,-2.133c0,-0 2.667,-1.067 3.467,-1.467c0.8,-0.4 1.6,-1.733 1.6,-3.6l0,-18c0,-0.8 0.8,-1.467 2.133,-1.467c0.934,0 1.867,0.667 1.867,1.467l0,16c0,1.067 0.4,2.667 1.6,2.667c2.267,-0.534 6.8,-2.4 8.4,-3.334c1.2,-0.8 1.6,-2.533 1.733,-3.866l0,-17.334c0,-0.8 0.8,-1.466 2.134,-1.466c1.066,-0 1.866,0.666 1.866,1.466l0,16.267c0,1.067 0.934,1.733 1.867,1.733c0.667,-0.133 3.333,-1.2 3.333,-1.2c0.267,-0.133 0.4,-0.133 0.667,-0.133c0.533,0 0.933,0.4 0.933,1.067l0,9.466c0,0.8 -0.666,1.867 -1.6,2.267Zm-9.2,21.733c0.267,-1.2 0.534,-4.933 0.534,-8.533c-0,-3.6 -0.267,-6.933 -0.534,-7.6c-0.266,-0.533 -1.066,-0.8 -2,-0.8c-3.333,0 -9.466,2.8 -9.733,5.067c-0.267,1.066 -0.4,5.733 -0.4,9.866c0,3.2 0.133,6.134 0.4,6.667c0.133,0.4 0.8,0.667 1.6,0.667c3.067,-0 9.333,-2.667 10.133,-5.334Z" style="fill:#ddb974;fill-rule:nonzero;"/></g></g><g><g><path d="M656.058,9.4l1.067,0c2.933,0.267 11.2,2 11.2,8.267c0,1.466 -0.4,3.2 -1.467,4.266c-0.666,0.934 -1.6,1.334 -2.533,1.867l-2.133,0.667c-0.267,-0 -0.4,0.266 -0.4,0.533c-0,0.133 -0,0.267 0.133,0.4c0.133,0.267 0.267,0.133 0.667,0.267l0.8,0.266l0.133,0l0.4,0.134l0.133,-0l0.8,0.266l1.467,0.8c0.533,0.4 1.067,0.8 1.467,1.334c0.533,0.533 1.066,1.2 1.333,2c0.4,0.8 0.667,1.866 0.667,3.2c-0,5.866 -6.8,9.333 -13.334,9.333l-0.8,0c-6.666,-0.133 -10.4,-3.733 -10.533,-8c-0,-1.2 0.267,-2.4 1.2,-3.2c0.667,-0.667 1.6,-1.2 2.533,-1.467l0.534,0c2.4,0 4,1.467 4,3.867c-0.134,1.333 -0.534,2.933 -0.534,4.4l0,0.8c0.134,0.667 1.467,1.067 2.267,1.067c1.6,-0 7.867,-0.267 7.867,-8c-0,-2 -1.067,-6 -8.8,-6c-0.534,-0 -1.734,-0 -1.734,-0.8c0,-0.8 0.934,-1.2 1.867,-1.2c2,-0.134 8.4,-0.667 8.4,-6.934c-0,-2.266 -2,-5.866 -8.8,-5.866c-0.533,-0 -2.533,0.533 -2.8,2c-0,0.933 0.533,1.466 0.8,1.6c0.267,0.133 1.6,0.266 1.733,2.266l0,0.534c0,1.733 -1.2,3.333 -3.733,3.333c-3.333,-0.133 -4.4,-2.4 -4.4,-4.267c-0,-2.8 3.2,-7.733 10.533,-7.733Zm-15.6,52.4l-3.466,1.333c-1.067,0.4 -1.734,2.934 -1.734,3.867l0,12.4c0,1.6 0.934,2.4 1.734,2.4l3.466,-1.333c0.267,-0.134 0.4,-0.134 0.667,-0.134c0.533,0 0.933,0.4 0.933,1.067l0,9.467c0,0.8 -0.666,1.866 -1.6,2.266c0,0 -2.8,1.067 -3.733,1.467c-0.933,0.4 -1.467,2 -1.467,3.067l0,18.933c0,0.8 -0.8,1.467 -2.266,1.467c-0.934,-0 -1.734,-0.667 -1.734,-1.467l0,-16.667c0,-0.8 -0.666,-2.4 -1.866,-2.4l-0.267,0.134l-0.133,-0l-8.134,3.333c-0.666,0.267 -1.333,1.2 -1.333,2.933l-0,18.534c-0,0.8 -0.933,1.466 -2.267,1.466c-0.933,0 -1.733,-0.666 -1.733,-1.466l-0,-16.4c-0,-0.667 -0.667,-2.134 -1.6,-2.134c-0.133,0 -0.267,0 -0.4,0.134c-1.2,0.4 -3.067,1.2 -3.2,1.2l-0.267,0.133c-0.8,0 -1.2,-0.4 -1.2,-1.2l0,-9.467c0,-0.8 0.667,-1.866 1.6,-2.133c0,0 2.8,-1.2 3.6,-1.467c0.8,-0.4 1.467,-1.6 1.467,-3.066l0,-13.2c0,-1.067 -0.8,-2.4 -1.867,-2.4l-0.133,0.133c-1.067,0.533 -3.067,1.333 -3.2,1.333l-0.267,0.134c-0.8,-0 -1.2,-0.4 -1.2,-1.2l0,-9.467c0,-0.8 0.667,-1.867 1.6,-2.133c0,-0 2.667,-1.067 3.467,-1.467c0.8,-0.4 1.6,-1.733 1.6,-3.6l0,-18c0,-0.8 0.8,-1.467 2.133,-1.467c0.934,0 1.867,0.667 1.867,1.467l0,16c0,1.067 0.4,2.667 1.6,2.667c2.267,-0.534 6.8,-2.4 8.4,-3.334c1.2,-0.8 1.6,-2.533 1.733,-3.866l0,-17.334c0,-0.8 0.8,-1.466 2.134,-1.466c1.066,-0 1.866,0.666 1.866,1.466l0,16.267c0,1.067 0.934,1.733 1.867,1.733c0.667,-0.133 3.333,-1.2 3.333,-1.2c0.267,-0.133 0.4,-0.133 0.667,-0.133c0.533,0 0.933,0.4 0.933,1.067l0,9.466c0,0.8 -0.666,1.867 -1.6,2.267Zm-9.2,21.733c0.267,-1.2 0.534,-4.933 0.534,-8.533c-0,-3.6 -0.267,-6.933 -0.534,-7.6c-0.266,-0.533 -1.066,-0.8 -2,-0.8c-3.333,0 -9.466,2.8 -9.733,5.067c-0.267,1.066 -0.4,5.733 -0.4,9.866c0,3.2 0.133,6.134 0.4,6.667c0.133,0.4 0.8,0.667 1.6,0.667c3.067,-0 9.333,-2.667 10.133,-5.334Z" style="fill:#ddb974;fill-rule:nonzero;"/></g></g><g><g><path d="M734.067,26l0.8,-15.467c-0,-0.533 0.4,-1.066 1.6,-1.066c1.2,-0 7.2,0.666 9.333,0.666c2.267,0 7.733,-0.666 8.667,-0.666c0.666,-0 0.933,0.666 0.933,1.333c0,0.933 -0.4,5.2 -10,5.2c-2.533,0 -5.6,-0.533 -7.067,-0.667c-0.666,0 -1.066,0.4 -1.066,0.934c-0.134,0.666 -0.4,6.133 -0.4,6.133c-0,0.667 0.133,0.667 0.666,0.667c2.267,-1.334 5.2,-2 9.2,-2c6.4,-0 11.467,5.066 11.467,11.466c0,6.267 -4.533,11.334 -12.933,11.334c-8.534,-0 -11.734,-4 -11.734,-8.934l0,-0.933c0.134,-1.867 2,-4.133 5.067,-4.133c2.267,-0 4.267,2 4.267,4.4c-0,1.733 -1.467,3.733 -3.734,3.733c-0.533,-0 -0.8,0.267 -0.8,0.667c0,0.8 0.934,2 1.6,2.266c1.067,0.267 1.6,0.267 2.134,0.267l0.8,-0c1.866,-0 8.666,-1.067 8.666,-8.667c0,-7.733 -5.866,-9.066 -8.266,-9.066c-2.4,-0 -5.6,1.6 -6.4,2.266c-0.667,0.8 -1.2,1.467 -1.467,1.467c-0.667,-0 -1.333,-0.267 -1.333,-1.2Zm-5.2,35.733l-3.467,1.334c-1.067,0.4 -1.733,2.933 -1.733,3.866l-0,12.4c-0,1.6 0.933,2.4 1.733,2.4l3.467,-1.333c0.266,-0.133 0.4,-0.133 0.666,-0.133c0.534,-0 0.934,0.4 0.934,1.066l-0,9.467c-0,0.8 -0.667,1.867 -1.6,2.267c-0,-0 -2.8,1.066 -3.734,1.466c-0.933,0.4 -1.466,2 -1.466,3.067l-0,18.933c-0,0.8 -0.8,1.467 -2.267,1.467c-0.933,0 -1.733,-0.667 -1.733,-1.467l-0,-16.666c-0,-0.8 -0.667,-2.4 -1.867,-2.4l-0.267,0.133l-0.133,0l-8.133,3.333c-0.667,0.267 -1.334,1.2 -1.334,2.934l0,18.533c0,0.8 -0.933,1.467 -2.266,1.467c-0.934,-0 -1.734,-0.667 -1.734,-1.467l0,-16.4c0,-0.667 -0.666,-2.133 -1.6,-2.133c-0.133,-0 -0.266,-0 -0.4,0.133c-1.2,0.4 -3.066,1.2 -3.2,1.2l-0.266,0.133c-0.8,0 -1.2,-0.4 -1.2,-1.2l-0,-9.466c-0,-0.8 0.666,-1.867 1.6,-2.134c-0,0 2.8,-1.2 3.6,-1.466c0.8,-0.4 1.466,-1.6 1.466,-3.067l0,-13.2c0,-1.067 -0.8,-2.4 -1.866,-2.4l-0.134,0.133c-1.066,0.534 -3.066,1.334 -3.2,1.334l-0.266,0.133c-0.8,0 -1.2,-0.4 -1.2,-1.2l-0,-9.467c-0,-0.8 0.666,-1.866 1.6,-2.133c-0,0 2.666,-1.067 3.466,-1.467c0.8,-0.4 1.6,-1.733 1.6,-3.6l0,-18c0,-0.8 0.8,-1.466 2.134,-1.466c0.933,-0 1.866,0.666 1.866,1.466l0,16c0,1.067 0.4,2.667 1.6,2.667c2.267,-0.533 6.8,-2.4 8.4,-3.333c1.2,-0.8 1.6,-2.534 1.734,-3.867l-0,-17.333c-0,-0.8 0.8,-1.467 2.133,-1.467c1.067,0 1.867,0.667 1.867,1.467l-0,16.266c-0,1.067 0.933,1.734 1.866,1.734c0.667,-0.134 3.334,-1.2 3.334,-1.2c0.266,-0.134 0.4,-0.134 0.666,-0.134c0.534,0 0.934,0.4 0.934,1.067l-0,9.467c-0,0.8 -0.667,1.866 -1.6,2.266Zm-9.2,21.734c0.266,-1.2 0.533,-4.934 0.533,-8.534c0,-3.6 -0.267,-6.933 -0.533,-7.6c-0.267,-0.533 -1.067,-0.8 -2,-0.8c-3.334,0 -9.467,2.8 -9.734,5.067c-0.266,1.067 -0.4,5.733 -0.4,9.867c0,3.2 0.134,6.133 0.4,6.666c0.134,0.4 0.8,0.667 1.6,0.667c3.067,0 9.334,-2.667 10.134,-5.333Z" style="fill:#ddb974;fill-rule:nonzero;"/></g></g><g><g><path d="M1204.68,37.667l4.134,-14.267c0.399,-0.533 1.066,-1.333 1.6,-1.333c1.066,0.266 1.333,0.266 2.666,0.266c0.8,0 1.6,-0.266 2.534,-0.266c0.933,-0 1.333,0.533 1.333,1.6l-0,27.733c-0,1.2 1.2,2.4 2.133,2.4c1.067,0 1.067,1.067 1.067,1.067c-0,-0 -0,1.066 -1.067,1.066l-11.2,0c-1.066,0 -1.733,-0.266 -1.733,-1.066c-0,-0.8 0.667,-1.067 1.2,-1.067c1.333,0 2.666,-0.933 2.666,-2.533l0,-19.067c0,-0.4 -0.133,-0.933 -0.399,-0.933c-0.134,-0 -0.401,0.133 -0.667,0.666c-0.8,1.334 -2.4,6.8 -2.534,7.2c-0.133,0.134 -0.4,0.534 -0.8,0.534c-0.533,-0 -1.066,-0.534 -1.066,-1.067c-0,-0.4 0.133,-0.933 0.133,-0.933Zm-18.8,72.933c-1.067,-1.333 -1.6,-77.467 -1.6,-77.467c0.133,-2.4 2.267,-3.733 4.133,-3.733c1.334,-0 2.534,0.8 2.534,2.267c-0,2.666 -0.8,34.666 -0.934,37.6c0,0.933 0.534,1.866 1.467,2.266c0.267,0.134 0.4,0.134 0.667,0.134c0.666,-0 2.133,-1.2 2.933,-1.867c1.867,-1.2 5.067,-2.267 7.333,-2.267c6.134,0.4 12,5.2 12,12.8c0,6.134 -4.133,14.267 -16,22.534c-3.333,2.266 -6.533,5.866 -10.533,8.133c0,0 -0.4,0.267 -0.8,0.267c-0.4,-0 -0.8,-0.134 -1.2,-0.667Zm4.667,-11.867c-0,0.667 0.266,2 1.466,2c0.4,0 0.8,-0.133 1.334,-0.4c5.733,-3.6 11.866,-10.8 11.866,-18c0,-3.333 -1.6,-7.733 -5.466,-7.733c-3.067,0 -8.4,3.867 -9.334,6.533c-0.133,0.534 -0.266,2.134 -0.266,4.267c-0,5.333 0.4,13.333 0.4,13.333Z" style="fill:#ddb974;fill-rule:nonzero;"/></g></g><g><g><g><path d="M1291.87,45.667c-1.067,10.266 -6.267,10.533 -9.067,10.533c-6,0 -6.933,-3.6 -9.6,-3.6c-4,0 -4.8,4.133 -6.266,4.133c-0.134,0 -0.4,0 -0.534,-0.133c-0.8,-0.4 -1.2,-1.467 -1.2,-2.4c1.2,-4.267 3.734,-8.133 7.467,-10.4c3.333,-2.133 7.733,-3.2 10.133,-6.267c1.333,-1.866 2.134,-4.133 2.134,-6.533c-0,-1.6 -2.134,-6.8 -8.4,-6.8c-4,0 -5.334,1.6 -5.334,2.533c0,1.334 3.334,1.6 3.334,4.667c-0,1.467 -0.4,4.667 -3.734,4.667c-1.866,-0 -3.6,-1.2 -4.4,-2.8c-0.4,-1.2 -0.8,-2.267 -0.8,-3.2c0,-1.067 0.4,-2.134 1.334,-3.2c3.466,-4 7.333,-4.267 12.133,-4.267c1.466,-0 6.533,0.4 10,3.2c1.733,1.6 3.066,3.733 3.066,6.933c0,5.2 -3.999,8 -8.8,8.667c-1.466,0.4 -8.399,3.733 -9.866,6.267c0.8,-0.267 1.6,-0.4 2.533,-0.4c2.667,-0 5.867,1.066 7.2,1.6l2,0.666c0.267,0.134 0.534,0.134 0.8,0.134c2,-0 3.467,-2.4 4.133,-4.267c0.134,-0.4 0.4,-0.8 0.934,-0.8c0.4,0 0.8,0.133 0.8,1.067Zm-43.734,64.4c-1.066,-1.334 -1.6,-77.467 -1.6,-77.467c0.134,-2.4 2.267,-3.733 4.134,-3.733c1.333,-0 2.533,0.8 2.533,2.266c0,2.667 -0.8,34.667 -0.933,37.6c-0,0.934 0.533,1.867 1.466,2.267c0.267,0.133 0.4,0.133 0.667,0.133c0.667,0 2.134,-1.2 2.934,-1.866c1.866,-1.2 5.066,-2.267 7.333,-2.267c6.133,0.4 12,5.2 12,12.8c-0,6.133 -4.133,14.267 -16,22.533c-3.333,2.267 -6.534,5.867 -10.534,8.134c0.001,-0 -0.399,0.266 -0.799,0.266c-0.4,0 -0.8,-0.133 -1.2,-0.666Zm4.666,-11.867c0,0.667 0.267,2 1.467,2c0.4,0 0.8,-0.133 1.333,-0.4c5.734,-3.6 11.867,-10.8 11.867,-18c-0,-3.333 -1.6,-7.733 -5.467,-7.733c-3.066,-0 -8.4,3.866 -9.333,6.533c-0.133,0.533 -0.267,2.133 -0.267,4.267c0,5.333 0.4,13.333 0.4,13.333Z" style="fill:#ddb974;fill-rule:nonzero;"/></g></g></g><g><g><path d="M1346.4,23.133l1.067,0c2.933,0.267 11.2,2 11.2,8.267c-0,1.467 -0.4,3.2 -1.467,4.267c-0.667,0.933 -1.6,1.333 -2.533,1.866l-2.134,0.667c-0.266,0 -0.4,0.267 -0.4,0.533c0,0.134 0,0.267 0.134,0.4c0.133,0.267 0.266,0.134 0.666,0.267l0.8,0.267l0.134,-0l0.4,0.133l0.133,-0l0.8,0.267l1.467,0.8c0.533,0.4 1.066,0.8 1.466,1.333c0.534,0.533 1.067,1.2 1.334,2c0.4,0.8 0.666,1.867 0.666,3.2c0,5.867 -6.8,9.333 -13.333,9.333l-0.8,0c-6.667,-0.133 -10.4,-3.733 -10.533,-8c-0,-1.2 0.266,-2.4 1.2,-3.2c0.666,-0.666 1.6,-1.2 2.533,-1.466l0.533,-0c2.4,-0 4,1.466 4,3.866c-0.133,1.334 -0.533,2.934 -0.533,4.4l0,0.8c0.133,0.667 1.467,1.067 2.267,1.067c1.6,0 7.866,-0.267 7.866,-8c0,-2 -1.066,-6 -8.8,-6c-0.533,0 -1.733,0 -1.733,-0.8c0,-0.8 0.933,-1.2 1.867,-1.2c2,-0.133 8.4,-0.667 8.4,-6.933c-0,-2.267 -2,-5.867 -8.8,-5.867c-0.534,0 -2.534,0.533 -2.8,2c-0,0.933 0.533,1.467 0.8,1.6c0.266,0.133 1.6,0.267 1.733,2.267l-0,0.533c-0,1.733 -1.2,3.333 -3.733,3.333c-3.334,-0.133 -4.4,-2.4 -4.4,-4.266c-0,-2.8 3.2,-7.734 10.533,-7.734Zm-27.2,86.4c-1.067,-1.333 -1.6,-77.466 -1.6,-77.466c0.133,-2.4 2.267,-3.734 4.133,-3.734c1.334,0 2.534,0.8 2.534,2.267c-0,2.667 -0.8,34.667 -0.934,37.6c0,0.933 0.534,1.867 1.467,2.267c0.267,0.133 0.4,0.133 0.667,0.133c0.666,0 2.133,-1.2 2.933,-1.867c1.867,-1.2 5.067,-2.266 7.333,-2.266c6.134,0.4 12,5.2 12,12.8c0,6.133 -4.133,14.266 -16,22.533c-3.333,2.267 -6.533,5.867 -10.533,8.133c-0,0 -0.4,0.267 -0.8,0.267c-0.4,0 -0.8,-0.133 -1.2,-0.667Zm4.667,-11.866c-0,0.666 0.266,2 1.466,2c0.4,-0 0.8,-0.134 1.334,-0.4c5.733,-3.6 11.866,-10.8 11.866,-18c0,-3.334 -1.6,-7.734 -5.466,-7.734c-3.067,0 -8.4,3.867 -9.334,6.534c-0.133,0.533 -0.266,2.133 -0.266,4.266c-0,5.334 0.4,13.334 0.4,13.334Z" style="fill:#ddb974;fill-rule:nonzero;"/></g></g><g><g><g><path d="M1427.8,43.933l4.933,0c0.8,0 1.067,0.534 1.067,1.334c0,0.8 -0.4,1.333 -1.067,1.333l-4.933,0l0,3.867c0,2.133 1.467,2.533 2.133,2.533c0.667,0 1.467,0.4 1.467,1.333c0,0.934 -0.667,1.467 -1.333,1.467l-11.467,0c-1.2,0 -1.466,-0.8 -1.466,-1.467c-0.001,-0.666 0.533,-1.2 1.733,-1.2c1.066,0 2.133,-0.533 2.133,-2.4l0,-4.133l-12,0c-0.8,0 -1.333,-0.667 -1.333,-1.333c-0,-0.4 0.266,-0.8 0.533,-1.067c1.734,-2.4 8.667,-12.133 8.667,-20.667c-0,-1.066 0.933,-1.333 1.6,-1.333c0.533,0 1.333,0.267 2.533,0.267c1.2,-0 4,-0.267 4.667,-0.267c0.4,0 0.933,0.4 0.933,1.067l-0.133,0.133c-0.133,0.933 -8.667,16 -14.133,20.533l8.666,0l0,-5.466c0,-0.934 0.4,-1.334 0.667,-1.6l4,-7.734c0.4,-0.533 0.8,-0.666 1.333,-0.666c0.667,-0 0.8,0.533 0.8,1.2l0,14.266Zm-38,66.534c-1.066,-1.334 -1.6,-77.467 -1.6,-77.467c0.134,-2.4 2.267,-3.733 4.134,-3.733c1.333,-0 2.533,0.8 2.533,2.266c-0,2.667 -0.8,34.667 -0.933,37.6c-0,0.934 0.533,1.867 1.466,2.267c0.267,0.133 0.4,0.133 0.667,0.133c0.667,0 2.133,-1.2 2.933,-1.866c1.867,-1.2 5.067,-2.267 7.334,-2.267c6.133,0.4 12,5.2 12,12.8c-0,6.133 -4.134,14.267 -16,22.533c-3.334,2.267 -6.534,5.867 -10.534,8.134c0,-0 -0.4,0.266 -0.8,0.266c-0.4,0 -0.8,-0.133 -1.2,-0.666Zm4.667,-11.867c-0,0.667 0.267,2 1.467,2c0.4,0 0.8,-0.133 1.333,-0.4c5.733,-3.6 11.867,-10.8 11.867,-18c-0,-3.333 -1.6,-7.733 -5.467,-7.733c-3.067,-0 -8.4,3.866 -9.333,6.533c-0.134,0.533 -0.267,2.133 -0.267,4.267c-0,5.333 0.4,13.333 0.4,13.333Z" style="fill:#ddb974;fill-rule:nonzero;"/></g></g></g></svg>