<?xml version="1.0" encoding="UTF-8"?>
<svg width="47.375mm" height="5.7268mm" version="1.1" viewBox="0 0 47.375 5.7268" xmlns="http://www.w3.org/2000/svg" xmlns:cc="http://creativecommons.org/ns#" xmlns:dc="http://purl.org/dc/elements/1.1/" xmlns:rdf="http://www.w3.org/1999/02/22-rdf-syntax-ns#">
 <metadata>
  <rdf:RDF>
   <cc:Work rdf:about="">
    <dc:format>image/svg+xml</dc:format>
    <dc:type rdf:resource="http://purl.org/dc/dcmitype/StillImage"/>
    <dc:title/>
   </cc:Work>
  </rdf:RDF>
 </metadata>
 <g transform="translate(-2.2748 -1.6774)" fill="#222222">
  <g stroke-width=".26458">
   <path d="m3.8665 5.5585c0.6858 0 1.5155 0.38947 1.5155 0.9144 0 0.508-0.381 0.93133-1.5917 0.93133-1.0922 0-1.5155-0.44026-1.5155-0.93133 0-0.508 0.6096-0.9144 1.5917-0.9144zm-0.77046 0.4572c-0.0254 0.0593-0.0254 0.11853-0.0254 0.18627 0 0.2286 0.11006 0.47413 0.254 0.64346 0.0508 0.0677 0.1016 0.11854 0.1524 0.16934 0.1016 0.0847 0.2286 0.1524 0.34713 0.19473 0.0677 0.0169 0.127 0.0254 0.19473 0.0254 0.0762 0 0.1524-8e-3 0.2286-0.0254 0.1778-0.0508 0.28787-0.1778 0.32174-0.36407 8e-3 -0.0339 0.0169-0.0847 0.0169-0.13546 0-0.44027-0.4064-0.98214-0.90593-0.98214-0.23707 0-0.508 0.0339-0.5842 0.28787z"/>
   <path d="m9.8919 1.7908v4.3011c0 0.27093-0.26248 1.3123-1.5494 1.3123-0.4318 0-0.762-0.23706-0.762-0.65193 0-0.4064 0.36406-1.3123 1.5409-1.3123 0.23706 0 0.4318 0.0677 0.56727 0.1778v-3.8269zm-0.57574 3.9709c-0.37253 0-1.5071 0.61807-1.5071 1.0075 0 0.18627 0.18628 0.3302 0.36408 0.3302 0.36406 0 1.4732-0.6858 1.4732-1.0245 0-0.0508-0.0169-0.1016-0.0508-0.1524-0.0508-0.0931-0.13547-0.16087-0.2794-0.16087z"/>
   <path d="m14.139 5.6685v-3.8777h0.2032v4.3349c0 0.64347-0.8382 1.2785-1.5155 1.2785-0.41487 0-0.7366-0.23707-0.7366-0.635 0-0.6604 0.66886-1.2785 1.5071-1.2785 0.22014 0 0.4064 0.0593 0.54187 0.1778z"/>
   <path d="m18.649 1.7311h0.0423c0.0508 0 0.1016 0.0169 0.13546 0.11854 0.1016 0.49106 0.33867 0.93133 0.64347 1.3462 0.37253 0.52493 0.65193 1.1515 0.67733 1.8119v0.0423c0 0.33866-0.127 0.80433-0.14393 0.87206-0.0423 0.0762-0.0847 0.1016-0.127 0.1016-0.0169 0-0.0339 0-0.0423-8e-3 -0.0423-0.0169-0.0931-0.0677-0.0931-0.15239 0-0.0169 0-0.0423 0.0169-0.0762 0.0931-0.23707 0.13546-0.49107 0.13546-0.71967 0-0.70273-0.33866-1.6087-1.1007-1.7611v2.8194c0 0.64347-0.8382 1.2785-1.5155 1.2785-0.41486 0-0.7366-0.23707-0.7366-0.635 0-0.6604 0.66887-1.2785 1.5071-1.2785 0.22013 0 0.4064 0.0593 0.54187 0.1778v-3.8862c0-0.0508 0.0254-0.0508 0.0593-0.0508z"/>
   <path d="m24.599 1.7822v0.0339c0.0931 0.52494 0.381 0.61807 0.6604 0.92287 0.38946 0.4064 0.52493 0.5588 0.5842 0.92287 8e-3 0.0593 8e-3 0.127 8e-3 0.19473 0 0.32173-0.11007 0.64347-0.13547 0.67733v0.0847c0.1016 0.19473 0.16086 0.41486 0.16086 0.635v0.11853c0 0.254-0.0169 0.5588-0.0339 0.5842-0.0339 0.0677-0.0677 0.0931-0.11007 0.0931-8e-3 0-0.0254-8e-3 -0.0508-0.0169-0.0339-8e-3 -0.0677-0.0508-0.0677-0.127v-0.0423c0.0339-0.16087 0.0508-0.32173 0.0508-0.4826 0-0.62653-0.37253-1.4817-1.0668-1.5494v2.2945c0 0.64347-0.8382 1.2785-1.5155 1.2785-0.41487 0-0.73661-0.23707-0.73661-0.635 0-0.6604 0.66887-1.2785 1.5071-1.2785 0.22013 0 0.4064 0.0593 0.54187 0.1778v-3.9539s0.0508-8e-3 0.0847-8e-3 0.0931 0.0169 0.11006 0.0677v8e-3zm0.127 1.0922h-0.0508c-0.0423 0-0.0677 8e-3 -0.0677 0.0339-8e-3 8e-3 0 0.0254 0 0.0339 0.11854 0.44027 0.3556 0.5588 0.6096 0.85513 0.11007 0.127 0.19474 0.2286 0.28787 0.36407 8e-3 0.0169 0.0169 0.0254 0.0423 0.0254s0.0593-0.0254 0.0677-0.0339c0.0254-0.0423 0.0254-0.0931 0.0339-0.13547 0-0.22013-8e-3 -0.39793-0.13546-0.5842-0.1778-0.26246-0.46567-0.5588-0.7874-0.5588z"/>
   <path d="m45.758 6.4323c0 0.18626-0.1524 0.33866-0.33867 0.33866-0.18626 0-0.33866-0.1524-0.33866-0.33866 0-0.18627 0.1524-0.33867 0.33866-0.33867 0.18627 0 0.33867 0.1524 0.33867 0.33867z"/>
  </g>
  <path d="m41.696 1.6774c-0.02953 0-0.05891 0.058911-0.05891 0.058911v3.9279c-0.13531-0.11738-0.32093-0.17673-0.54002-0.17673-0.8382 0-1.5069 0.61808-1.5069 1.2785 0 0.39793 0.32152 0.6351 0.73639 0.6351 0.64953 0 1.4446-0.58404 1.509-1.1994 0.11476 0.024453 0.22141 0.056693 0.30851 0.11731 0.40108 0.27131 0.55467 0.79621 0.56017 0.98495 0 0.10027 0.05309 0.10025 0.10025 0.10025 0.05309 0 0.0708-0.070781 0.0708-0.17105v-0.040824c0-0.11796-0.01165-0.18919-0.11782-0.40153 0.04718-0.12976 0.12402-0.38337 0.12402-0.6134 0-0.04129-0.0057-0.088118-0.0057-0.12351-0.0236-0.14156-0.0709-0.24812-0.15348-0.36018 0.03542-0.094374 0.08268-0.27686 0.08268-0.4656 0-0.058978-0.0058-0.11228-0.01757-0.16536-0.01182-0.094374-0.03569-0.17675-0.077-0.24753 0.02952-0.07668 0.09457-0.28892 0.09457-0.50126 0-0.053084-0.0058-0.10636-0.01757-0.16536-0.01178-0.088474-0.03541-0.16538-0.07079-0.23616 0.03538-0.088474 0.08837-0.27716 0.08837-0.47181 0-0.058978-0.0058-0.11796-0.01757-0.17105-0.04718-0.27722-0.15342-0.40092-0.45423-0.73122-0.23003-0.24773-0.47803-0.32429-0.5488-0.77256-0.0059-0.041312-0.06476-0.088367-0.08837-0.088367zm0.14625 0.94878c0.15772 0.026324 0.61415 0.3403 0.73846 0.55501 0.05309 0.088474 0.06511 0.15338 0.06511 0.21239 0 0.035368-0.0064 0.0651-0.01189 0.094568-0.0177 0.064879-0.0415 0.12362-0.06511 0.20619-0.058979-0.082573-0.14126-0.16492-0.23564-0.27699-0.1875-0.19713-0.38533-0.28768-0.49093-0.55604zm0 0.91209c0.24523 0.019507 0.50834 0.13661 0.73846 0.52193 0.05309 0.088474 0.06511 0.15931 0.06511 0.21239 0 0.041269-0.0064 0.064863-0.01189 0.10025-0.0177 0.064878-0.0415 0.12938-0.06511 0.22376-0.06488-0.07668-0.14126-0.16483-0.23564-0.2651-0.18755-0.20198-0.38534-0.29355-0.49092-0.56224zm0 0.90589c0.23241 0.01502 0.50752 0.13431 0.73846 0.5302 0.05309 0.088474 0.06511 0.15338 0.06511 0.21239 0 0.035361-0.0064 0.0651-0.01189 0.094568-0.0177 0.070779-0.0415 0.13528-0.06511 0.22376l-0.2005-0.21239h5.16e-4c-0.21789-0.22827-0.38791-0.38329-0.52658-0.68006zm0 0.91726c0.25258 0.026986 0.53524 0.18892 0.7798 0.6041 0.06488 0.094367 0.08268 0.21207 0.08268 0.30644 0 0.047191-0.0058 0.088354-0.01757 0.11782-0.01184 0.041283-0.0353 0.09443-0.05891 0.14159-0.04129-0.070779-0.09448-0.13572-0.15348-0.21239-0.10026-0.12976-0.35388-0.37727-0.44235-0.51883-0.085302-0.15053-0.13686-0.20549-0.19017-0.35812z" stroke-width=".18432"/>
  <path d="m48.633 6.4323c0 0.18626-0.1524 0.33866-0.33867 0.33866-0.18626 0-0.33866-0.1524-0.33866-0.33866 0-0.18627 0.1524-0.33867 0.33866-0.33867 0.18627 0 0.33867 0.1524 0.33867 0.33867zm1.016 0c0 0.18626-0.1524 0.33866-0.33867 0.33866-0.18626 0-0.33866-0.1524-0.33866-0.33866 0-0.18627 0.1524-0.33867 0.33866-0.33867 0.18627 0 0.33867 0.1524 0.33867 0.33867z" stroke-width=".26458"/>
  <path d="m35.997 1.7027c-0.03476 0-0.06976 0.062528-0.06976 0.062528v3.9021c-0.13531-0.11738-0.32093-0.17673-0.54002-0.17673-0.8382 0-1.5069 0.61808-1.5069 1.2785 0 0.39793 0.32152 0.6351 0.73639 0.6351 0.67733 0 1.5157-0.635 1.5157-1.2785v-0.15089c0.14881 0.026733 0.28129 0.065971 0.39222 0.14314 0.4721 0.32631 0.65279 0.94417 0.65939 1.1663 0 0.11802 0.06283 0.11834 0.11834 0.11834 0.06248 0 0.0832-0.083514 0.0832-0.20154v-0.055294c0-0.13886-0.01405-0.21515-0.13901-0.46509 0.05554-0.15274 0.14573-0.45167 0.14573-0.72244 0-0.048602-0.0067-0.10407-0.0067-0.14573-0.02777-0.16663-0.08337-0.29132-0.17363-0.42323 0.03475-0.11109 0.08992-0.32641 0.08992-0.55552 0-0.062484 4.23e-4 -0.13207-0.01344-0.18759-0.02086-0.11109-0.04904-0.20814-0.09767-0.29146 0.03475-0.097204 0.1111-0.34744 0.1111-0.59738 0-0.062485 4.23e-4 -0.12458-0.01344-0.18707-0.0625-0.3263-0.18056-0.47214-0.54158-0.86093-0.26382-0.28466-0.55569-0.37514-0.64595-0.90279-0.0069-0.048626-0.07607-0.10387-0.10387-0.10387zm0.13539 1.141c0.29944 0.013542 0.63066 0.14947 0.9064 0.62218 0.06248 0.10414 0.0832 0.18066 0.0832 0.25011 0 0.041689-0.01395 0.076166-0.01395 0.11782l-0.0832 0.25683c-0.076371-0.083313-0.16694-0.18738-0.27802-0.30541-0.23999-0.26526-0.50094-0.36746-0.61443-0.78031zm0 1.0682c0.28663 0.00665 0.62261 0.13666 0.9064 0.62322 0.06248 0.11109 0.08372 0.18763 0.08372 0.25011 0 0.041681-0.01395 0.083136-0.01395 0.11782l-0.08371 0.26407c-0.0486-0.048602-0.09022-0.10417-0.14573-0.15968l-0.08992-0.090434c-0.26204-0.30136-0.48644-0.46962-0.65681-0.8723zm0.0036 1.0816c0.30548 0.020828 0.65282 0.20809 0.95136 0.70797 0.07637 0.11802 0.09715 0.25708 0.09715 0.36122 0 0.055539-0.0073 0.11121-0.02119 0.13901h5.19e-4c-0.01394 0.055539-0.04197 0.11088-0.06977 0.1664-0.0486-0.076367-0.1109-0.15263-0.18035-0.24288-0.118-0.15274-0.41673-0.44471-0.52087-0.61133-0.11802-0.20828-0.18049-0.25656-0.25683-0.52038z" stroke-width=".21696"/>
  <path d="m30.124 5.6685v-3.3486h0.2032v3.8058c0 0.64347-0.8382 1.2785-1.5155 1.2785-0.41487 0-0.7366-0.23707-0.7366-0.635 0-0.6604 0.66886-1.2785 1.5071-1.2785 0.22014 0 0.4064 0.0593 0.54187 0.1778zm1.551-0.74123c0 0.044391 7e-3 0.10359 7e-3 0.15537 0 0.28854-0.09618 0.60668-0.15537 0.76945 0.13317 0.26635 0.14797 0.35513 0.14797 0.5031v0.051819c0 0.12577-0.0222 0.21455-0.08878 0.21455-0.05916 0-0.12577 0-0.12577-0.12577-7e-3 -0.23676-0.19978-0.89523-0.70288-1.2356-0.17016-0.11837-0.38116-0.21635-0.6327-0.24594l-0.0035-3.2536s0.03696-0.074015 0.07402-0.074015c0.02963 0 0.10359 0.059159 0.11098 0.11098 0.08878 0.56229 0.39952 0.65848 0.68806 0.96921 0.37732 0.41432 0.5105 0.56968 0.56969 0.91741 0.01477 0.066586 0.02219 0.13317 0.02219 0.20716 0 0.23675-0.05916 0.46611-0.10358 0.58449 0.10358 0.14057 0.16277 0.27374 0.19237 0.4513zm-1.3613-2.0272c-7e-3 0.00699-7e-3 0.014768-7e-3 0.022195v0.044391c0.18497 0.4883 0.42172 0.68066 0.73246 1.0062l0.25155 0.26635c0.02963-0.11098 0.05916-0.19236 0.08135-0.28114 7e-3 -0.036964 0.01477-0.074015 0.01477-0.11838 0-0.074015-0.01477-0.15537-0.08135-0.26635-0.31074-0.53269-0.68807-0.67326-0.9914-0.67326zm1.1246 2.4489c0.01477-0.036964 0.02221-0.088783 0.02221-0.14797 0-0.11838-0.02221-0.26635-0.10358-0.38473-0.31814-0.54009-0.68806-0.73985-1.0136-0.76204 0.08136 0.28854 0.14797 0.33293 0.27374 0.55489 0.11098 0.17756 0.42912 0.4883 0.55489 0.65107 0.07402 0.096184 0.14058 0.17756 0.19237 0.26635 0.02963-0.059158 0.05916-0.12577 0.07402-0.17756z" stroke-width=".26458"/>
 </g>
</svg>
