<?xml version="1.0" encoding="UTF-8" standalone="no"?><!DOCTYPE svg PUBLIC "-//W3C//DTD SVG 1.1//EN" "http://www.w3.org/Graphics/SVG/1.1/DTD/svg11.dtd"><svg width="100%" height="100%" viewBox="0 0 560 68" version="1.1" xmlns="http://www.w3.org/2000/svg" xmlns:xlink="http://www.w3.org/1999/xlink" xml:space="preserve" xmlns:serif="http://www.serif.com/" style="fill-rule:evenodd;clip-rule:evenodd;stroke-linejoin:round;stroke-miterlimit:2;"><g><g><path d="M18.8,45.84c8.1,-0 17.899,4.6 17.899,10.8c0,6 -4.5,11 -18.799,11c-12.9,-0 -17.9,-5.2 -17.9,-11c0,-6 7.2,-10.8 18.8,-10.8Zm-9.1,5.4c-0.3,0.7 -0.3,1.4 -0.3,2.2c-0,2.7 1.3,5.6 3,7.6c0.6,0.799 1.2,1.4 1.8,2c1.2,1 2.7,1.8 4.1,2.3c0.799,0.199 1.5,0.3 2.3,0.3c0.9,-0 1.8,-0.095 2.7,-0.3c2.1,-0.6 3.4,-2.1 3.8,-4.3c0.094,-0.401 0.199,-1.001 0.199,-1.6c0,-5.2 -4.8,-11.6 -10.7,-11.6c-2.8,-0 -6,0.4 -6.9,3.4l0.001,-0Z" style="fill:#d78d72;fill-rule:nonzero;"/><path d="M89.966,1.339l-0,50.801c-0,3.2 -3.1,15.499 -18.3,15.499c-5.1,0 -9,-2.8 -9,-7.7c-0,-4.8 4.3,-15.499 18.199,-15.499c2.8,-0 5.1,0.799 6.7,2.1l0,-45.2l2.401,-0.001Zm-6.8,46.901c-4.4,-0 -17.801,7.3 -17.801,11.899c0,2.2 2.2,3.9 4.3,3.9c4.3,0 17.4,-8.1 17.4,-12.1c0,-0.6 -0.199,-1.2 -0.6,-1.8c-0.6,-1.1 -1.6,-1.9 -3.3,-1.9l0.001,0.001Z" style="fill:#d78d72;fill-rule:nonzero;"/><path d="M140.128,47.139l0,-45.8l2.4,0l0,51.2c0,7.6 -9.9,15.1 -17.899,15.1c-4.9,0 -8.7,-2.8 -8.7,-7.5c-0,-7.8 7.9,-15.1 17.8,-15.1c2.6,-0 4.8,0.7 6.4,2.1l-0.001,-0Z" style="fill:#d78d72;fill-rule:nonzero;"/><path d="M193.396,0.634l0.5,0c0.6,0 1.2,0.2 1.6,1.4c1.2,5.8 4,11 7.6,15.9c4.4,6.2 7.7,13.601 8,21.401l-0,0.499c-0,4 -1.5,9.5 -1.7,10.3c-0.5,0.9 -1.001,1.2 -1.5,1.2c-0.2,0 -0.401,0 -0.5,-0.094c-0.5,-0.2 -1.1,-0.8 -1.1,-1.8c0,-0.2 0,-0.5 0.2,-0.9c1.1,-2.8 1.6,-5.8 1.6,-8.5c-0,-8.3 -4,-19.001 -13,-20.801l-0,33.3c-0,7.6 -9.9,15.101 -17.9,15.101c-4.9,-0 -8.7,-2.8 -8.7,-7.5c-0,-7.8 7.9,-15.101 17.8,-15.101c2.6,0 4.8,0.701 6.4,2.1l0,-45.9c0,-0.6 0.3,-0.6 0.701,-0.6l-0.001,-0.005Z" style="fill:#d78d72;fill-rule:nonzero;"/><path d="M263.672,1.238l-0,0.4c1.099,6.2 4.5,7.3 7.8,10.9c4.6,4.8 6.2,6.6 6.9,10.9c0.094,0.701 0.094,1.5 0.094,2.3c0,3.8 -1.3,7.6 -1.6,8l0,1.001c1.2,2.3 1.9,4.9 1.9,7.5l0,1.4c0,3 -0.2,6.6 -0.4,6.9c-0.401,0.799 -0.8,1.099 -1.3,1.099c-0.095,0 -0.3,-0.094 -0.6,-0.199c-0.401,-0.095 -0.8,-0.6 -0.8,-1.5l-0,-0.5c0.4,-1.9 0.6,-3.8 0.6,-5.7c-0,-7.4 -4.4,-17.5 -12.6,-18.3l-0,27.1c-0,7.6 -9.9,15.101 -17.9,15.101c-4.9,-0 -8.7,-2.8 -8.7,-7.5c0,-7.8 7.9,-15.101 17.801,-15.101c2.6,0 4.8,0.701 6.4,2.1l-0,-46.699c-0,-0 0.6,-0.095 1,-0.095c0.4,0 1.1,0.2 1.3,0.8l0,0.094l0.105,-0.001Zm1.5,12.9l-0.6,-0c-0.5,-0 -0.8,0.094 -0.8,0.4c-0.094,0.095 0,0.3 0,0.401c1.4,5.2 4.2,6.6 7.2,10.1c1.3,1.5 2.3,2.7 3.4,4.3c0.095,0.199 0.2,0.3 0.5,0.3c0.3,-0 0.7,-0.3 0.799,-0.401c0.3,-0.499 0.3,-1.099 0.401,-1.6c-0,-2.6 -0.095,-4.7 -1.6,-6.9c-2.1,-3.1 -5.5,-6.6 -9.3,-6.6l-0,-0Z" style="fill:#d78d72;fill-rule:nonzero;"/><path d="M513.581,56.16c0,2.2 -1.8,4 -4,4c-2.2,0 -4,-1.8 -4,-4c0,-2.2 1.8,-4 4,-4c2.2,0 4,1.8 4,4Z" style="fill:#d78d72;fill-rule:nonzero;"/></g><path d="M465.605,0c-0.349,0 -0.696,0.696 -0.696,0.696l-0,46.392c-1.598,-1.386 -3.791,-2.087 -6.378,-2.087c-9.9,-0 -17.798,7.3 -17.798,15.1c-0,4.7 3.797,7.502 8.697,7.502c7.672,-0 17.062,-6.899 17.823,-14.167c1.356,0.289 2.615,0.67 3.644,1.386c4.737,3.204 6.551,9.404 6.616,11.633c0,1.185 0.627,1.184 1.184,1.184c0.627,0 0.836,-0.836 0.836,-2.02l0,-0.482c0,-1.393 -0.137,-2.235 -1.391,-4.743c0.557,-1.532 1.465,-4.528 1.465,-7.245c-0,-0.487 -0.068,-1.04 -0.068,-1.458c-0.278,-1.672 -0.837,-2.931 -1.813,-4.254c0.419,-1.115 0.977,-3.27 0.977,-5.5c0,-0.696 -0.068,-1.326 -0.207,-1.953c-0.14,-1.114 -0.422,-2.087 -0.91,-2.923c0.349,-0.906 1.117,-3.413 1.117,-5.921c0,-0.627 -0.068,-1.256 -0.207,-1.953c-0.14,-1.045 -0.419,-1.953 -0.837,-2.789c0.418,-1.045 1.044,-3.274 1.044,-5.573c0,-0.696 -0.068,-1.393 -0.207,-2.02c-0.558,-3.274 -1.812,-4.735 -5.365,-8.636c-2.717,-2.926 -5.646,-3.831 -6.482,-9.125c-0.07,-0.488 -0.765,-1.044 -1.044,-1.044l-0,0Zm1.727,11.206c1.863,0.311 7.254,4.019 8.722,6.555c0.627,1.045 0.769,1.812 0.769,2.509c0,0.418 -0.076,0.769 -0.14,1.117c-0.209,0.766 -0.491,1.46 -0.769,2.435c-0.697,-0.975 -1.669,-1.948 -2.784,-3.271c-2.214,-2.329 -4.551,-3.398 -5.798,-6.568l0,-2.777Zm0,10.773c2.897,0.23 6.004,1.613 8.722,6.164c0.627,1.045 0.769,1.882 0.769,2.509c0,0.487 -0.076,0.766 -0.14,1.184c-0.209,0.766 -0.491,1.528 -0.769,2.643c-0.767,-0.906 -1.669,-1.947 -2.784,-3.131c-2.215,-2.386 -4.551,-3.467 -5.798,-6.641l0,-2.728Zm0,10.699c2.745,0.178 5.994,1.587 8.722,6.262c0.627,1.045 0.769,1.812 0.769,2.509c0,0.418 -0.076,0.769 -0.14,1.117c-0.209,0.836 -0.491,1.598 -0.769,2.643l-2.368,-2.509l0.006,0c-2.574,-2.696 -4.582,-4.527 -6.22,-8.032l0,-1.99Zm0,10.834c2.983,0.319 6.322,2.231 9.21,7.135c0.767,1.115 0.977,2.505 0.977,3.619c-0,0.558 -0.069,1.044 -0.208,1.392c-0.14,0.488 -0.417,1.115 -0.695,1.672c-0.488,-0.836 -1.116,-1.603 -1.813,-2.508c-1.184,-1.533 -4.18,-4.456 -5.225,-6.128c-1.007,-1.778 -1.616,-2.427 -2.246,-4.23l0,-0.952Z" style="fill:#d78d72;fill-rule:nonzero;"/><path d="M547.538,56.16c-0,2.2 -1.8,4 -4,4c-2.2,0 -4,-1.8 -4,-4c-0,-2.2 1.8,-4 4,-4c2.2,0 4,1.8 4,4Zm12,0c-0,2.2 -1.8,4 -4,4c-2.2,0 -4,-1.8 -4,-4c-0,-2.2 1.8,-4 4,-4c2.2,0 4,1.8 4,4Z" style="fill:#d78d72;fill-rule:nonzero;"/><path d="M398.294,0.299c-0.411,-0 -0.824,0.738 -0.824,0.738l-0,46.088c-1.598,-1.386 -3.791,-2.087 -6.378,-2.087c-9.9,-0 -17.798,7.3 -17.798,15.1c-0,4.7 3.797,7.501 8.697,7.501c8,0 17.902,-7.5 17.902,-15.1l0,-1.782c1.758,0.316 3.322,0.779 4.633,1.69c5.576,3.854 7.71,11.152 7.788,13.776c-0,1.394 0.742,1.397 1.397,1.397c0.738,0 0.983,-0.986 0.983,-2.38l0,-0.653c0,-1.64 -0.166,-2.541 -1.642,-5.493c0.656,-1.804 1.721,-5.335 1.721,-8.533c0,-0.574 -0.079,-1.229 -0.079,-1.721c-0.328,-1.968 -0.984,-3.441 -2.05,-4.999c0.41,-1.312 1.062,-3.855 1.062,-6.561c-0,-0.738 0.005,-1.56 -0.159,-2.216c-0.247,-1.312 -0.579,-2.458 -1.154,-3.442c0.411,-1.148 1.312,-4.104 1.312,-7.056c0,-0.738 0.005,-1.472 -0.158,-2.21c-0.738,-3.854 -2.133,-5.576 -6.397,-10.168c-3.116,-3.362 -6.563,-4.431 -7.629,-10.663c-0.082,-0.574 -0.899,-1.227 -1.227,-1.227l-0,0.001Zm1.599,13.476c3.536,0.16 7.449,1.766 10.705,7.349c0.738,1.23 0.983,2.134 0.983,2.954c-0,0.492 -0.165,0.899 -0.165,1.391l-0.982,3.034c-0.902,-0.984 -1.972,-2.213 -3.284,-3.607c-2.835,-3.133 -5.917,-4.34 -7.257,-9.217l-0,-1.904Zm-0,12.617c3.385,0.078 7.353,1.614 10.705,7.361c0.738,1.312 0.989,2.216 0.989,2.954c0,0.492 -0.165,0.982 -0.165,1.391l-0.988,3.119c-0.574,-0.574 -1.066,-1.23 -1.722,-1.886l-1.062,-1.068c-3.095,-3.559 -5.745,-5.547 -7.757,-10.303l-0,-1.568Zm0.042,12.775c3.608,0.246 7.711,2.457 11.237,8.361c0.902,1.394 1.147,3.037 1.147,4.267c0,0.656 -0.086,1.313 -0.25,1.642l0.006,-0c-0.164,0.656 -0.496,1.309 -0.824,1.965c-0.574,-0.902 -1.31,-1.803 -2.13,-2.869c-1.394,-1.804 -4.922,-5.252 -6.152,-7.22c-1.394,-2.46 -2.132,-3.03 -3.033,-6.146l-0.001,-0Z" style="fill:#d78d72;fill-rule:nonzero;"/><path d="M328.928,47.139l-0,-39.55l2.4,-0l-0,44.95c-0,7.6 -9.9,15.1 -17.9,15.1c-4.9,0 -8.7,-2.8 -8.7,-7.5c-0,-7.8 7.9,-15.1 17.8,-15.1c2.6,-0 4.8,0.7 6.4,2.1l-0,-0Zm18.318,-8.755c0,0.525 0.083,1.224 0.083,1.835c0,3.408 -1.136,7.166 -1.835,9.088c1.573,3.146 1.748,4.195 1.748,5.942l-0,0.613c-0,1.485 -0.262,2.534 -1.049,2.534c-0.699,-0 -1.485,-0 -1.485,-1.486c-0.083,-2.796 -2.36,-10.573 -8.302,-14.594c-2.01,-1.398 -4.502,-2.555 -7.473,-2.904l-0.041,-38.429c-0,0 0.436,-0.874 0.874,-0.874c0.35,0 1.224,0.699 1.311,1.311c1.048,6.641 4.719,7.777 8.127,11.447c4.456,4.894 6.029,6.729 6.728,10.836c0.175,0.786 0.262,1.573 0.262,2.447c0,2.796 -0.699,5.505 -1.223,6.903c1.223,1.66 1.922,3.233 2.272,5.33l0.003,0.001Zm-16.078,-23.943c-0.083,0.083 -0.083,0.174 -0.083,0.262l0,0.524c2.185,5.768 4.981,8.04 8.652,11.885l2.971,3.146c0.35,-1.311 0.698,-2.272 0.96,-3.321c0.083,-0.437 0.175,-0.874 0.175,-1.398c-0,-0.874 -0.175,-1.835 -0.961,-3.146c-3.67,-6.292 -8.127,-7.952 -11.709,-7.952l-0.005,-0Zm13.283,28.924c0.174,-0.437 0.262,-1.049 0.262,-1.748c0,-1.398 -0.262,-3.146 -1.223,-4.544c-3.758,-6.379 -8.127,-8.738 -11.972,-9c0.961,3.408 1.748,3.932 3.233,6.554c1.311,2.097 5.069,5.767 6.554,7.689c0.874,1.136 1.66,2.098 2.272,3.146c0.35,-0.698 0.699,-1.485 0.874,-2.097l-0,0Z" style="fill:#d78d72;fill-rule:nonzero;"/></g></svg>