<?xml version="1.0" encoding="UTF-8" standalone="no"?><!DOCTYPE svg PUBLIC "-//W3C//DTD SVG 1.1//EN" "http://www.w3.org/Graphics/SVG/1.1/DTD/svg11.dtd"><svg width="100%" height="100%" viewBox="0 0 1651 417" version="1.1" xmlns="http://www.w3.org/2000/svg" xmlns:xlink="http://www.w3.org/1999/xlink" xml:space="preserve" xmlns:serif="http://www.serif.com/" style="fill-rule:evenodd;clip-rule:evenodd;stroke-linecap:round;stroke-linejoin:bevel;"><g><g><path d="M128.17,124.423c-0.922,-1.152 -1.383,-66.965 -1.383,-66.965c0.116,-2.075 1.96,-3.228 3.573,-3.228c1.153,-0 2.19,0.691 2.19,1.959c0,2.306 -0.691,29.969 -0.806,32.504c-0,0.806 0.46,1.614 1.267,1.96c0.231,0.115 0.346,0.115 0.576,0.115c0.577,-0 1.844,-1.038 2.536,-1.614c1.614,-1.038 4.38,-1.959 6.34,-1.959c5.302,0.346 10.373,4.495 10.373,11.065c0,5.302 -3.573,12.332 -13.831,19.479c-2.882,1.959 -5.648,5.071 -9.106,7.03c-0,0 -0.346,0.231 -0.692,0.231c-0.345,0 -0.691,-0.115 -1.037,-0.577Zm4.034,-10.257c0,0.576 0.231,1.729 1.269,1.729c0.345,-0 0.691,-0.116 1.152,-0.346c4.956,-3.112 10.258,-9.336 10.258,-15.56c0,-2.882 -1.383,-6.686 -4.726,-6.686c-2.651,0 -7.261,3.343 -8.068,5.648c-0.115,0.461 -0.23,1.844 -0.23,3.688c-0,4.611 0.345,11.527 0.345,11.527Z" style="fill:#222;fill-rule:nonzero;"/></g></g><g><path d="M1.859,161.682l248.531,0" style="fill:none;stroke:#000;stroke-width:3.72px;"/><path d="M1.859,132.888l248.531,0" style="fill:none;stroke:#000;stroke-width:3.72px;"/><path d="M1.859,104.095l248.531,-0" style="fill:none;stroke:#000;stroke-width:3.72px;"/><path d="M1.859,75.301l248.531,-0" style="fill:none;stroke:#000;stroke-width:3.72px;"/><path d="M1.859,46.507l248.531,-0" style="fill:none;stroke:#000;stroke-width:3.72px;"/></g><g><path d="M62.674,100.185c1.558,-0.239 3.116,-0.36 4.674,-0.36c15.222,-0.119 25.889,13.544 25.769,29.005c0,12.825 -7.671,22.293 -19.057,27.806l4.794,24.33c0.359,2.038 0.359,3.836 0.359,5.514c0,12.225 -7.67,20.135 -20.374,21.453c-9.948,1.079 -21.334,-5.753 -22.413,-16.54c-0.719,-7.191 4.195,-14.621 11.147,-15.46c6.352,-0.719 12.105,4.913 12.344,11.506c0.36,9.229 -8.749,12.225 -12.224,11.385c0.359,4.075 7.431,5.634 10.786,5.274c11.147,-1.319 16.42,-8.151 16.779,-17.858c0,-2.637 -0.239,-5.753 -0.958,-8.75l-4.075,-19.177c-3.836,1.08 -7.551,1.559 -11.147,1.559c-20.614,0 -37.394,-17.498 -39.072,-40.15c-1.797,-23.372 17.019,-40.751 31.521,-55.612c-2.157,-8.87 -3.475,-17.499 -3.475,-26.607c0,-10.907 5.034,-33.201 16.42,-37.395c4.913,-1.917 14.023,22.172 13.783,35.476c-0.24,16.779 -7.911,32.84 -19.656,44.466l4.075,20.135m-1.078,14.263c-6.712,2.037 -12.466,8.989 -12.345,16.42c-0,6.352 4.194,10.427 9.468,12.944c0.599,0.24 0.839,0.719 0.839,1.198c0,0.72 -0.839,1.319 -1.679,1.199c-9.108,-3.116 -15.58,-11.985 -15.46,-22.054c-0,-9.827 7.79,-19.775 16.539,-23.011l-3.595,-18.098c-12.705,11.267 -26.727,24.69 -26.847,43.268c-0,18.696 15.82,30.202 32.96,29.483c2.756,-0.119 5.393,-0.599 8.03,-1.438l-7.91,-39.911m11.745,-88.931c-0.12,-3.836 -2.397,-7.67 -6.592,-7.67c-10.068,2.037 -13.663,19.296 -13.903,27.925c-0,5.034 0.839,10.188 2.037,15.101c9.589,-8.269 18.938,-21.813 18.458,-35.356m0,127.643c7.192,-3.834 12.105,-11.626 11.745,-20.255c-0.838,-11.027 -8.988,-19.056 -19.656,-18.936l7.911,39.191" style="fill-rule:nonzero;"/></g><clipPath id="_clip1"><rect x="0.14" y="208.333" width="252.28" height="208.333"/></clipPath><g clip-path="url(#_clip1)"><g><path d="M1.998,283.572l248.325,-0" style="fill:none;stroke:#d082c4;stroke-width:3.71px;"/><path d="M1.998,369.881l248.325,0" style="fill:none;stroke:#d082c4;stroke-width:3.71px;"/><path d="M1.998,341.111l248.325,0" style="fill:none;stroke:#d082c4;stroke-width:3.71px;"/><path d="M1.998,312.342l248.325,0" style="fill:none;stroke:#d082c4;stroke-width:3.71px;"/><path d="M1.998,254.802l248.325,-0" style="fill:none;stroke:#d082c4;stroke-width:3.71px;"/></g><g><g><path d="M128.204,332.654c-0.921,-1.152 -1.382,-66.911 -1.382,-66.911c0.116,-2.073 1.958,-3.225 3.571,-3.225c1.151,0 2.188,0.691 2.188,1.958c-0,2.304 -0.692,29.943 -0.806,32.477c-0,0.806 0.46,1.612 1.266,1.958c0.23,0.115 0.345,0.115 0.576,0.115c0.576,-0 1.842,-1.037 2.533,-1.613c1.613,-1.036 4.377,-1.957 6.335,-1.957c5.297,0.345 10.365,4.491 10.365,11.056c-0,5.297 -3.571,12.322 -13.82,19.462c-2.88,1.958 -5.644,5.068 -9.099,7.025c0,0 -0.345,0.231 -0.691,0.231c-0.345,-0 -0.691,-0.115 -1.036,-0.576Zm4.031,-10.25c-0,0.576 0.23,1.728 1.267,1.728c0.346,0 0.691,-0.116 1.151,-0.346c4.952,-3.109 10.25,-9.328 10.25,-15.547c0,-2.88 -1.382,-6.68 -4.722,-6.68c-2.649,0 -7.255,3.34 -8.061,5.644c-0.116,0.46 -0.231,1.842 -0.231,3.684c0,4.608 0.346,11.517 0.346,11.517Z" style="fill:#d4d4d4;fill-rule:nonzero;"/></g></g><g><path d="M62.762,308.435c1.557,-0.239 3.114,-0.359 4.67,-0.359c15.21,-0.119 25.867,13.532 25.748,28.981c0,12.813 -7.665,22.274 -19.041,27.783l4.79,24.31c0.359,2.036 0.359,3.832 0.359,5.509c-0,12.215 -7.664,20.118 -20.358,21.435c-9.939,1.078 -21.316,-5.748 -22.394,-16.526c-0.718,-7.185 4.191,-14.609 11.137,-15.448c6.347,-0.718 12.095,4.91 12.335,11.497c0.359,9.221 -8.742,12.214 -12.215,11.376c0.36,4.071 7.425,5.629 10.778,5.269c11.137,-1.318 16.406,-8.144 16.765,-17.843c0,-2.635 -0.239,-5.749 -0.958,-8.742l-4.071,-19.161c-3.833,1.078 -7.545,1.557 -11.137,1.557c-20.598,-0 -37.364,-17.484 -39.04,-40.117c-1.796,-23.352 17.005,-40.717 31.495,-55.566c-2.156,-8.862 -3.472,-17.484 -3.472,-26.585c-0,-10.898 5.029,-33.173 16.406,-37.364c4.909,-1.916 14.011,22.154 13.771,35.447c-0.239,16.765 -7.904,32.813 -19.64,44.429l4.072,20.118m-1.077,14.251c-6.706,2.036 -12.455,8.982 -12.335,16.407c-0,6.346 4.191,10.418 9.46,12.933c0.599,0.24 0.839,0.719 0.839,1.197c0,0.719 -0.839,1.318 -1.677,1.198c-9.101,-3.113 -15.568,-11.975 -15.448,-22.035c-0,-9.819 7.784,-19.759 16.526,-22.993l-3.593,-18.082c-12.694,11.257 -26.705,24.669 -26.825,43.231c0,18.681 15.808,30.178 32.933,29.459c2.754,-0.119 5.389,-0.598 8.023,-1.436l-7.903,-39.879m11.735,-88.857c-0.12,-3.832 -2.395,-7.664 -6.586,-7.664c-10.059,2.036 -13.652,19.28 -13.892,27.902c0,5.03 0.839,10.179 2.036,15.089c9.581,-8.263 18.922,-21.795 18.442,-35.327m0,127.538c7.186,-3.832 12.095,-11.617 11.736,-20.238c-0.838,-11.018 -8.981,-19.042 -19.64,-18.921l7.904,39.159" style="fill:#d4d4d4;fill-rule:nonzero;stroke:#d4d4d4;stroke-width:0.86px;stroke-linecap:butt;stroke-linejoin:round;stroke-miterlimit:2;"/></g></g><g><g><path d="M426.783,124.423c-0.346,0.462 -0.692,0.577 -1.038,0.577c-0.346,0 -0.691,-0.231 -0.691,-0.231c-3.458,-1.959 -6.224,-5.071 -9.106,-7.03c-10.258,-7.147 -13.831,-14.177 -13.831,-19.71c0,-6.339 5.072,-10.488 10.374,-10.834c1.959,-0 4.726,0.921 6.339,1.959c0.691,0.576 1.959,1.614 2.536,1.614c0.23,-0 0.346,-0 0.576,-0.115c0.807,-0.346 1.268,-1.154 1.268,-1.96c-0.115,-2.535 -0.807,-30.198 -0.807,-32.504c0,-1.268 1.038,-1.959 2.19,-1.959c1.614,-0 3.458,1.153 3.573,3.228c-0,-0 -0.461,65.813 -1.383,66.965Zm-4.034,-10.257c0,-0 0.346,-6.916 0.346,-11.527c-0,-1.844 -0.116,-3.227 -0.231,-3.688c-0.807,-2.305 -5.418,-5.648 -8.068,-5.648c-3.343,0 -4.726,3.804 -4.726,6.686c0,6.224 5.302,12.448 10.259,15.56c0.46,0.23 0.806,0.346 1.152,0.346c1.037,-0 1.268,-1.153 1.268,-1.729Z" style="fill:#222;fill-rule:nonzero;"/></g></g><g><path d="M281.541,161.682l248.53,0" style="fill:none;stroke:#000;stroke-width:3.72px;"/><path d="M281.541,132.888l248.53,0" style="fill:none;stroke:#000;stroke-width:3.72px;"/><path d="M281.541,104.095l248.53,-0" style="fill:none;stroke:#000;stroke-width:3.72px;"/><path d="M281.541,75.301l248.53,-0" style="fill:none;stroke:#000;stroke-width:3.72px;"/><path d="M281.541,46.507l248.53,-0" style="fill:none;stroke:#000;stroke-width:3.72px;"/></g><g><path d="M342.355,100.185c1.558,-0.239 3.116,-0.36 4.674,-0.36c15.222,-0.119 25.889,13.544 25.769,29.005c0,12.825 -7.671,22.293 -19.057,27.806l4.794,24.33c0.359,2.038 0.359,3.836 0.359,5.514c0,12.225 -7.67,20.135 -20.374,21.453c-9.948,1.079 -21.334,-5.753 -22.413,-16.54c-0.719,-7.191 4.195,-14.621 11.147,-15.46c6.352,-0.719 12.105,4.913 12.344,11.506c0.36,9.229 -8.749,12.225 -12.224,11.385c0.359,4.075 7.431,5.634 10.787,5.274c11.146,-1.319 16.419,-8.151 16.779,-17.858c-0,-2.637 -0.24,-5.753 -0.959,-8.75l-4.075,-19.177c-3.836,1.08 -7.551,1.559 -11.146,1.559c-20.615,0 -37.395,-17.498 -39.073,-40.15c-1.797,-23.372 17.02,-40.751 31.522,-55.612c-2.158,-8.87 -3.476,-17.499 -3.476,-26.607c0,-10.907 5.034,-33.201 16.42,-37.395c4.913,-1.917 14.023,22.172 13.783,35.476c-0.24,16.779 -7.911,32.84 -19.656,44.466l4.075,20.135m-1.078,14.263c-6.712,2.037 -12.466,8.989 -12.345,16.42c-0,6.352 4.194,10.427 9.468,12.944c0.599,0.24 0.839,0.719 0.839,1.198c0,0.72 -0.839,1.319 -1.678,1.199c-9.109,-3.116 -15.581,-11.985 -15.461,-22.054c-0,-9.827 7.79,-19.775 16.539,-23.011l-3.595,-18.098c-12.705,11.267 -26.727,24.69 -26.847,43.268c-0,18.696 15.82,30.202 32.96,29.483c2.756,-0.119 5.393,-0.599 8.03,-1.438l-7.91,-39.911m11.745,-88.931c-0.12,-3.836 -2.397,-7.67 -6.592,-7.67c-10.068,2.037 -13.663,19.296 -13.903,27.925c-0,5.034 0.839,10.188 2.037,15.101c9.589,-8.269 18.938,-21.813 18.458,-35.356m0,127.643c7.192,-3.834 12.105,-11.626 11.746,-20.255c-0.839,-11.027 -8.989,-19.056 -19.656,-18.936l7.91,39.191" style="fill-rule:nonzero;"/></g><g><path d="M281.679,369.881l248.325,0" style="fill:none;stroke:#d082c4;stroke-width:3.71px;"/><path d="M281.679,341.111l248.325,0" style="fill:none;stroke:#d082c4;stroke-width:3.71px;"/><path d="M281.679,312.342l248.325,0" style="fill:none;stroke:#d082c4;stroke-width:3.71px;"/><path d="M281.679,283.572l248.325,-0" style="fill:none;stroke:#d082c4;stroke-width:3.71px;"/><path d="M281.679,254.802l248.325,-0" style="fill:none;stroke:#d082c4;stroke-width:3.71px;"/></g><g><g><path d="M426.801,332.654c-0.346,0.461 -0.691,0.576 -1.037,0.576c-0.345,-0 -0.691,-0.231 -0.691,-0.231c-3.455,-1.957 -6.219,-5.067 -9.097,-7.025c-10.25,-7.14 -13.82,-14.165 -13.82,-19.693c-0,-6.334 5.067,-10.48 10.365,-10.825c1.958,-0 4.722,0.921 6.333,1.957c0.691,0.576 1.959,1.613 2.535,1.613c0.229,-0 0.345,-0 0.575,-0.115c0.807,-0.346 1.267,-1.152 1.267,-1.958c-0.115,-2.534 -0.806,-30.173 -0.806,-32.477c0,-1.267 1.037,-1.958 2.188,-1.958c1.613,0 3.455,1.152 3.57,3.225c-0,0 -0.461,65.759 -1.382,66.911Zm-4.03,-10.25c-0,0 0.345,-6.909 0.345,-11.517c0,-1.842 -0.116,-3.224 -0.23,-3.684c-0.806,-2.304 -5.414,-5.644 -8.062,-5.644c-3.34,0 -4.722,3.8 -4.722,6.68c0,6.219 5.297,12.438 10.25,15.547c0.461,0.23 0.806,0.346 1.152,0.346c1.036,-0 1.267,-1.152 1.267,-1.728Z" style="fill:#d4d4d4;fill-rule:nonzero;"/></g></g><g><path d="M342.443,308.435c1.557,-0.239 3.114,-0.359 4.67,-0.359c15.21,-0.119 25.868,13.532 25.748,28.981c0,12.813 -7.664,22.274 -19.041,27.783l4.79,24.31c0.359,2.036 0.359,3.832 0.359,5.509c-0,12.215 -7.664,20.118 -20.357,21.435c-9.94,1.078 -21.317,-5.748 -22.395,-16.526c-0.718,-7.185 4.191,-14.609 11.137,-15.448c6.347,-0.718 12.095,4.91 12.335,11.497c0.359,9.221 -8.742,12.214 -12.214,11.376c0.359,4.071 7.424,5.629 10.777,5.269c11.137,-1.318 16.406,-8.144 16.765,-17.843c0,-2.635 -0.239,-5.749 -0.958,-8.742l-4.071,-19.161c-3.833,1.078 -7.545,1.557 -11.137,1.557c-20.598,-0 -37.364,-17.484 -39.04,-40.117c-1.796,-23.352 17.005,-40.717 31.495,-55.566c-2.156,-8.862 -3.472,-17.484 -3.472,-26.585c-0,-10.898 5.029,-33.173 16.406,-37.364c4.909,-1.916 14.011,22.154 13.771,35.447c-0.239,16.765 -7.904,32.813 -19.64,44.429l4.072,20.118m-1.077,14.251c-6.706,2.036 -12.455,8.982 -12.335,16.407c-0,6.346 4.191,10.418 9.461,12.933c0.598,0.24 0.838,0.719 0.838,1.197c0,0.719 -0.838,1.318 -1.677,1.198c-9.101,-3.113 -15.568,-11.975 -15.448,-22.035c-0,-9.819 7.784,-19.759 16.526,-22.993l-3.593,-18.082c-12.694,11.257 -26.705,24.669 -26.825,43.231c0,18.681 15.808,30.178 32.933,29.459c2.754,-0.119 5.389,-0.598 8.023,-1.436l-7.903,-39.879m11.736,-88.857c-0.12,-3.832 -2.396,-7.664 -6.587,-7.664c-10.059,2.036 -13.652,19.28 -13.892,27.902c0,5.03 0.839,10.179 2.036,15.089c9.581,-8.263 18.922,-21.795 18.443,-35.327m-0,127.538c7.185,-3.832 12.095,-11.617 11.735,-20.238c-0.838,-11.018 -8.981,-19.042 -19.639,-18.921l7.904,39.159" style="fill:#d4d4d4;fill-rule:nonzero;"/></g><g><g><path d="M706.464,124.423c-0.346,0.462 -0.692,0.577 -1.038,0.577c-0.345,0 -0.691,-0.231 -0.691,-0.231c-3.458,-1.959 -6.224,-5.071 -9.105,-7.03c-10.259,-7.147 -13.832,-14.177 -13.832,-19.71c0,-6.339 5.072,-10.488 10.374,-10.834c1.959,-0 4.726,0.921 6.339,1.959c0.691,0.576 1.959,1.614 2.536,1.614c0.23,-0 0.346,-0 0.576,-0.115c0.807,-0.346 1.268,-1.154 1.268,-1.96c-0.115,-2.535 -0.807,-30.198 -0.807,-32.504c0,-1.268 1.038,-1.959 2.19,-1.959c1.614,-0 3.458,1.153 3.573,3.228c-0,-0 -0.461,65.813 -1.383,66.965Zm-4.034,-10.257c0,-0 0.346,-6.916 0.346,-11.527c-0,-1.844 -0.116,-3.227 -0.231,-3.688c-0.806,-2.305 -5.417,-5.648 -8.068,-5.648c-3.343,0 -4.726,3.804 -4.726,6.686c0,6.224 5.302,12.448 10.259,15.56c0.46,0.23 0.806,0.346 1.152,0.346c1.037,-0 1.268,-1.153 1.268,-1.729Z" style="fill:#222;fill-rule:nonzero;"/></g></g><g><g><path d="M750.92,40.139l-0,5.533c-0,0.461 -0.346,0.922 -1.153,1.153c-0,-0 -16.021,6.224 -16.367,6.339c-0.346,0.115 -0.691,0.346 -0.691,1.152l-0,1.153l-0.231,3.688l-0,1.153c-0,0.807 0.461,1.613 1.268,1.844c0.231,0.115 0.461,0.115 0.691,0.115c0.461,0 1.729,-0.921 2.536,-1.498c1.499,-0.806 2.766,-1.268 4.149,-1.614c0.692,-0.23 1.499,-0.346 2.191,-0.346c5.301,0.346 10.373,4.381 10.373,10.95c0,5.302 -3.573,12.449 -13.831,19.595c-2.882,1.959 -5.763,5.187 -9.221,7.031c-0,-0 -0.346,0.23 -0.692,0.23c-0.231,0 -0.576,-0.115 -0.922,-0.576c-0.576,-0.692 -0.922,-22.015 -1.152,-40.226c-0,-0.231 -0.231,-0.461 -0.692,-0.461c-0.231,0.23 -5.532,2.19 -5.763,2.19c-0.576,0 -0.807,-0.462 -0.807,-0.922l0,-5.764c0,-0.575 0.346,-0.806 1.038,-0.921l5.186,-1.96c0.923,-0.346 0.923,-1.383 0.923,-1.729c-0.116,-9.912 -0.116,-17.174 -0.116,-17.174c0.116,-2.075 1.959,-3.227 3.458,-3.227c1.153,0 2.19,0.692 2.19,1.96c0,1.152 -0.231,9.105 -0.346,16.712c0,0.346 0.115,0.692 0.692,0.692c0.461,-0.231 16.136,-5.993 16.136,-5.993c0.116,-0.116 0.346,-0.116 0.461,-0.116c0.576,-0 0.692,0.691 0.692,1.037Zm-15.676,47.026c5.417,-2.996 10.489,-9.22 10.489,-15.675c0,-2.997 -1.153,-6.57 -4.611,-6.57c-2.881,0 -7.491,3.113 -8.299,5.648c-0.114,0.462 -0.229,1.845 -0.229,3.689c-0,4.61 0.345,11.525 0.345,11.525c0,0.692 0.23,1.729 1.153,1.729c0.345,0 0.691,-0.115 1.152,-0.346Z" style="fill:#222;fill-rule:nonzero;"/></g></g><g><path d="M561.222,161.682l248.53,0" style="fill:none;stroke:#000;stroke-width:3.72px;"/><path d="M561.222,132.888l248.53,0" style="fill:none;stroke:#000;stroke-width:3.72px;"/><path d="M561.222,104.095l248.53,-0" style="fill:none;stroke:#000;stroke-width:3.72px;"/><path d="M561.222,75.301l248.53,-0" style="fill:none;stroke:#000;stroke-width:3.72px;"/><path d="M561.222,46.507l248.53,-0" style="fill:none;stroke:#000;stroke-width:3.72px;"/></g><g><path d="M622.036,100.185c1.559,-0.239 3.116,-0.36 4.674,-0.36c15.222,-0.119 25.889,13.544 25.769,29.005c0,12.825 -7.671,22.293 -19.056,27.806l4.793,24.33c0.36,2.038 0.36,3.836 0.36,5.514c-0,12.225 -7.671,20.135 -20.375,21.453c-9.948,1.079 -21.334,-5.753 -22.412,-16.54c-0.72,-7.191 4.194,-14.621 11.146,-15.46c6.352,-0.719 12.105,4.913 12.344,11.506c0.36,9.229 -8.749,12.225 -12.224,11.385c0.36,4.075 7.431,5.634 10.787,5.274c11.146,-1.319 16.419,-8.151 16.779,-17.858c-0,-2.637 -0.24,-5.753 -0.959,-8.75l-4.075,-19.177c-3.836,1.08 -7.551,1.559 -11.146,1.559c-20.615,0 -37.395,-17.498 -39.073,-40.15c-1.797,-23.372 17.02,-40.751 31.522,-55.612c-2.158,-8.87 -3.475,-17.499 -3.475,-26.607c-0,-10.907 5.033,-33.201 16.419,-37.395c4.914,-1.917 14.023,22.172 13.783,35.476c-0.24,16.779 -7.911,32.84 -19.656,44.466l4.075,20.135m-1.078,14.263c-6.712,2.037 -12.465,8.989 -12.345,16.42c-0,6.352 4.194,10.427 9.468,12.944c0.599,0.24 0.839,0.719 0.839,1.198c0,0.72 -0.839,1.319 -1.678,1.199c-9.109,-3.116 -15.581,-11.985 -15.461,-22.054c-0,-9.827 7.79,-19.775 16.54,-23.011l-3.596,-18.098c-12.705,11.267 -26.727,24.69 -26.847,43.268c-0,18.696 15.82,30.202 32.96,29.483c2.757,-0.119 5.393,-0.599 8.03,-1.438l-7.91,-39.911m11.745,-88.931c-0.12,-3.836 -2.397,-7.67 -6.592,-7.67c-10.067,2.037 -13.663,19.296 -13.903,27.925c0,5.034 0.839,10.188 2.038,15.101c9.588,-8.269 18.937,-21.813 18.457,-35.356m0,127.643c7.192,-3.834 12.105,-11.626 11.746,-20.255c-0.839,-11.027 -8.989,-19.056 -19.656,-18.936l7.91,39.191" style="fill-rule:nonzero;"/></g><g><path d="M561.22,369.881l248.325,0" style="fill:none;stroke:#d082c4;stroke-width:3.71px;"/><path d="M561.22,341.111l248.325,0" style="fill:none;stroke:#d082c4;stroke-width:3.71px;"/><path d="M561.22,312.342l248.325,0" style="fill:none;stroke:#d082c4;stroke-width:3.71px;"/><path d="M561.22,283.572l248.325,-0" style="fill:none;stroke:#d082c4;stroke-width:3.71px;"/><path d="M561.22,254.802l248.325,-0" style="fill:none;stroke:#d082c4;stroke-width:3.71px;"/></g><g><g><path d="M706.342,332.654c-0.346,0.461 -0.691,0.576 -1.037,0.576c-0.345,-0 -0.691,-0.231 -0.691,-0.231c-3.455,-1.957 -6.219,-5.067 -9.098,-7.025c-10.249,-7.14 -13.819,-14.165 -13.819,-19.693c-0,-6.334 5.067,-10.48 10.365,-10.825c1.958,-0 4.722,0.921 6.333,1.957c0.691,0.576 1.959,1.613 2.535,1.613c0.229,-0 0.345,-0 0.575,-0.115c0.807,-0.346 1.267,-1.152 1.267,-1.958c-0.115,-2.534 -0.806,-30.173 -0.806,-32.477c0,-1.267 1.037,-1.958 2.188,-1.958c1.612,0 3.455,1.152 3.57,3.225c-0,0 -0.461,65.759 -1.382,66.911Zm-4.03,-10.25c-0,0 0.345,-6.909 0.345,-11.517c-0,-1.842 -0.116,-3.224 -0.231,-3.684c-0.805,-2.304 -5.413,-5.644 -8.061,-5.644c-3.34,0 -4.722,3.8 -4.722,6.68c0,6.219 5.297,12.438 10.25,15.547c0.461,0.23 0.806,0.346 1.151,0.346c1.037,-0 1.268,-1.152 1.268,-1.728Z" style="fill:#d4d4d4;fill-rule:nonzero;"/></g></g><g><g><path d="M750.761,248.439l0,5.528c0,0.461 -0.345,0.922 -1.152,1.152c-0,0 -16.008,6.219 -16.353,6.334c-0.346,0.115 -0.691,0.346 -0.691,1.151l-0,1.153l-0.231,3.685l0,1.152c0,0.805 0.461,1.611 1.267,1.842c0.231,0.115 0.461,0.115 0.691,0.115c0.461,-0 1.728,-0.921 2.534,-1.497c1.497,-0.806 2.764,-1.267 4.145,-1.612c0.692,-0.23 1.498,-0.346 2.189,-0.346c5.298,0.345 10.365,4.376 10.365,10.941c0,5.297 -3.571,12.438 -13.82,19.578c-2.879,1.957 -5.758,5.183 -9.213,7.025c-0,-0 -0.346,0.231 -0.691,0.231c-0.231,-0 -0.576,-0.116 -0.922,-0.576c-0.575,-0.692 -0.921,-21.997 -1.151,-40.193c-0,-0.23 -0.231,-0.461 -0.691,-0.461c-0.231,0.231 -5.528,2.189 -5.759,2.189c-0.575,-0 -0.805,-0.462 -0.805,-0.922l-0,-5.759c-0,-0.575 0.345,-0.805 1.036,-0.92l5.182,-1.958c0.922,-0.346 0.922,-1.382 0.922,-1.728c-0.116,-9.904 -0.116,-17.16 -0.116,-17.16c0.116,-2.073 1.958,-3.224 3.455,-3.224c1.152,-0 2.189,0.691 2.189,1.958c-0,1.151 -0.231,9.098 -0.346,16.699c0,0.345 0.115,0.691 0.691,0.691c0.461,-0.231 16.123,-5.989 16.123,-5.989c0.116,-0.115 0.345,-0.115 0.461,-0.115c0.575,-0 0.691,0.691 0.691,1.036Zm-15.663,46.988c5.413,-2.994 10.481,-9.213 10.481,-15.663c-0,-2.994 -1.153,-6.564 -4.608,-6.564c-2.878,0 -7.485,3.109 -8.291,5.643c-0.115,0.461 -0.23,1.843 -0.23,3.685c-0,4.607 0.345,11.517 0.345,11.517c0,0.69 0.23,1.727 1.152,1.727c0.345,-0 0.691,-0.115 1.151,-0.345Z" style="fill:#d4d4d4;fill-rule:nonzero;"/></g></g><g><path d="M621.984,308.435c1.557,-0.239 3.114,-0.359 4.67,-0.359c15.21,-0.119 25.867,13.532 25.748,28.981c0,12.813 -7.665,22.274 -19.041,27.783l4.79,24.31c0.359,2.036 0.359,3.832 0.359,5.509c-0,12.215 -7.664,20.118 -20.358,21.435c-9.939,1.078 -21.316,-5.748 -22.394,-16.526c-0.718,-7.185 4.191,-14.609 11.137,-15.448c6.347,-0.718 12.095,4.91 12.335,11.497c0.359,9.221 -8.742,12.214 -12.215,11.376c0.36,4.071 7.425,5.629 10.778,5.269c11.137,-1.318 16.406,-8.144 16.765,-17.843c0,-2.635 -0.239,-5.749 -0.958,-8.742l-4.071,-19.161c-3.833,1.078 -7.545,1.557 -11.137,1.557c-20.598,-0 -37.364,-17.484 -39.04,-40.117c-1.796,-23.352 17.005,-40.717 31.495,-55.566c-2.156,-8.862 -3.472,-17.484 -3.472,-26.585c-0,-10.898 5.029,-33.173 16.406,-37.364c4.909,-1.916 14.011,22.154 13.771,35.447c-0.239,16.765 -7.904,32.813 -19.64,44.429l4.072,20.118m-1.077,14.251c-6.706,2.036 -12.455,8.982 -12.335,16.407c-0,6.346 4.191,10.418 9.46,12.933c0.599,0.24 0.839,0.719 0.839,1.197c0,0.719 -0.839,1.318 -1.677,1.198c-9.101,-3.113 -15.568,-11.975 -15.448,-22.035c-0,-9.819 7.784,-19.759 16.526,-22.993l-3.593,-18.082c-12.694,11.257 -26.705,24.669 -26.825,43.231c0,18.681 15.808,30.178 32.933,29.459c2.754,-0.119 5.389,-0.598 8.023,-1.436l-7.903,-39.879m11.735,-88.857c-0.12,-3.832 -2.395,-7.664 -6.586,-7.664c-10.059,2.036 -13.652,19.28 -13.892,27.902c0,5.03 0.839,10.179 2.036,15.089c9.581,-8.263 18.922,-21.795 18.442,-35.327m0,127.538c7.186,-3.832 12.095,-11.617 11.736,-20.238c-0.838,-11.018 -8.981,-19.042 -19.64,-18.921l7.904,39.159" style="fill:#d4d4d4;fill-rule:nonzero;"/></g><g><g><path d="M1072.12,32.907l-2.997,1.152c-0.921,0.346 -1.498,2.536 -1.498,3.343l0,10.72c0,1.383 0.807,2.074 1.498,2.074l2.997,-1.153c0.231,-0.115 0.346,-0.115 0.577,-0.115c0.461,0 0.806,0.346 0.806,0.922l0,8.183c0,0.692 -0.576,1.614 -1.383,1.96c0,0 -2.42,0.922 -3.227,1.268c-0.807,0.346 -1.268,1.729 -1.268,2.651l0,16.367c0,0.692 -0.691,1.268 -1.96,1.268c-0.806,-0 -1.498,-0.576 -1.498,-1.268l0,-14.408c0,-0.691 -0.576,-2.074 -1.614,-2.074l-0.23,0.115l-0.115,-0l-7.031,2.882c-0.577,0.23 -1.152,1.037 -1.152,2.535l-0,16.021c-0,0.692 -0.808,1.268 -1.96,1.268c-0.807,0 -1.498,-0.576 -1.498,-1.268l-0,-14.177c-0,-0.576 -0.577,-1.844 -1.383,-1.844c-0.116,0 -0.231,0 -0.346,0.115c-1.037,0.346 -2.651,1.038 -2.766,1.038l-0.231,0.115c-0.692,0 -1.037,-0.345 -1.037,-1.037l-0,-8.184c-0,-0.691 0.576,-1.614 1.383,-1.844c-0,0 2.42,-1.037 3.112,-1.268c0.691,-0.346 1.268,-1.383 1.268,-2.651l-0,-11.411c-0,-0.921 -0.692,-2.075 -1.614,-2.075l-0.115,0.116c-0.922,0.461 -2.651,1.153 -2.766,1.153l-0.231,0.115c-0.692,-0 -1.037,-0.346 -1.037,-1.038l-0,-8.183c-0,-0.691 0.576,-1.614 1.383,-1.844c-0,-0 2.305,-0.922 2.997,-1.268c0.691,-0.346 1.383,-1.499 1.383,-3.112l-0,-15.56c-0,-0.692 0.691,-1.268 1.844,-1.268c0.806,-0 1.614,0.576 1.614,1.268l-0,13.831c-0,0.922 0.345,2.305 1.383,2.305c1.959,-0.461 5.878,-2.075 7.261,-2.881c1.038,-0.692 1.383,-2.19 1.498,-3.343l0,-14.984c0,-0.691 0.692,-1.268 1.844,-1.268c0.923,0 1.614,0.577 1.614,1.268l0,14.062c0,0.922 0.807,1.498 1.614,1.498c0.576,-0.115 2.881,-1.037 2.881,-1.037c0.231,-0.115 0.346,-0.115 0.577,-0.115c0.461,0 0.806,0.346 0.806,0.922l0,8.183c0,0.692 -0.576,1.614 -1.383,1.96Zm-7.953,18.787c0.231,-1.037 0.461,-4.264 0.461,-7.376c0,-3.112 -0.23,-5.994 -0.461,-6.57c-0.23,-0.462 -0.922,-0.691 -1.729,-0.691c-2.881,-0 -8.183,2.42 -8.413,4.379c-0.231,0.922 -0.346,4.957 -0.346,8.529c-0,2.767 0.115,5.302 0.346,5.764c0.115,0.346 0.691,0.575 1.383,0.575c2.65,0 8.068,-2.304 8.759,-4.61Z" style="fill:#222;fill-rule:nonzero;"/></g></g><g><g><path d="M986.145,124.423c-0.346,0.462 -0.692,0.577 -1.038,0.577c-0.345,0 -0.691,-0.231 -0.691,-0.231c-3.458,-1.959 -6.224,-5.071 -9.105,-7.03c-10.259,-7.147 -13.832,-14.177 -13.832,-19.71c0,-6.339 5.072,-10.488 10.374,-10.834c1.96,-0 4.726,0.921 6.339,1.959c0.691,0.576 1.96,1.614 2.536,1.614c0.23,-0 0.346,-0 0.576,-0.115c0.807,-0.346 1.268,-1.154 1.268,-1.96c-0.115,-2.535 -0.807,-30.198 -0.807,-32.504c0,-1.268 1.038,-1.959 2.19,-1.959c1.614,-0 3.458,1.153 3.573,3.228c-0,-0 -0.461,65.813 -1.383,66.965Zm-4.034,-10.257c0,-0 0.346,-6.916 0.346,-11.527c0,-1.844 -0.116,-3.227 -0.231,-3.688c-0.806,-2.305 -5.417,-5.648 -8.068,-5.648c-3.343,0 -4.726,3.804 -4.726,6.686c0,6.224 5.302,12.448 10.259,15.56c0.461,0.23 0.806,0.346 1.152,0.346c1.037,-0 1.268,-1.153 1.268,-1.729Z" style="fill:#222;fill-rule:nonzero;"/></g></g><g><g><path d="M1030.6,22.13l0,5.533c0,0.46 -0.346,0.922 -1.153,1.152c-0,-0 -16.021,6.224 -16.367,6.34c-0.346,0.115 -0.691,0.346 -0.691,1.152l-0,1.152l-0.231,3.689l-0,1.152c-0,0.808 0.461,1.614 1.268,1.845c0.231,0.115 0.461,0.115 0.692,0.115c0.46,0 1.728,-0.922 2.535,-1.498c1.499,-0.807 2.766,-1.268 4.149,-1.614c0.692,-0.231 1.499,-0.346 2.191,-0.346c5.302,0.346 10.373,4.38 10.373,10.95c0,5.302 -3.573,12.448 -13.831,19.594c-2.882,1.96 -5.763,5.187 -9.221,7.031c-0,0 -0.346,0.23 -0.692,0.23c-0.23,0 -0.576,-0.115 -0.922,-0.575c-0.576,-0.692 -0.922,-22.015 -1.152,-40.227c-0,-0.23 -0.231,-0.461 -0.692,-0.461c-0.231,0.231 -5.532,2.19 -5.763,2.19c-0.576,0 -0.807,-0.461 -0.807,-0.921l0,-5.764c0,-0.576 0.346,-0.806 1.038,-0.922l5.186,-1.959c0.923,-0.346 0.923,-1.383 0.923,-1.729c-0.116,-9.913 -0.116,-17.174 -0.116,-17.174c0.116,-2.075 1.96,-3.227 3.458,-3.227c1.153,0 2.19,0.692 2.19,1.959c0,1.153 -0.231,9.106 -0.346,16.713c0,0.346 0.115,0.692 0.692,0.692c0.461,-0.231 16.136,-5.994 16.136,-5.994c0.116,-0.115 0.346,-0.115 0.462,-0.115c0.575,-0 0.691,0.691 0.691,1.037Zm-15.676,47.026c5.418,-2.997 10.489,-9.221 10.489,-15.675c0,-2.997 -1.153,-6.57 -4.611,-6.57c-2.881,0 -7.491,3.112 -8.298,5.648c-0.115,0.461 -0.23,1.844 -0.23,3.688c-0,4.611 0.345,11.526 0.345,11.526c0,0.692 0.23,1.729 1.153,1.729c0.346,0 0.691,-0.115 1.152,-0.346Z" style="fill:#222;fill-rule:nonzero;"/></g></g><g><path d="M840.903,161.682l248.53,0" style="fill:none;stroke:#000;stroke-width:3.72px;"/><path d="M840.903,132.888l248.53,0" style="fill:none;stroke:#000;stroke-width:3.72px;"/><path d="M840.903,104.095l248.53,-0" style="fill:none;stroke:#000;stroke-width:3.72px;"/><path d="M840.903,75.301l248.53,-0" style="fill:none;stroke:#000;stroke-width:3.72px;"/><path d="M840.903,46.507l248.53,-0" style="fill:none;stroke:#000;stroke-width:3.72px;"/></g><g><path d="M901.717,100.185c1.559,-0.239 3.116,-0.36 4.674,-0.36c15.222,-0.119 25.889,13.544 25.77,29.005c-0,12.825 -7.672,22.293 -19.057,27.806l4.793,24.33c0.36,2.038 0.36,3.836 0.36,5.514c-0,12.225 -7.671,20.135 -20.375,21.453c-9.948,1.079 -21.333,-5.753 -22.412,-16.54c-0.72,-7.191 4.194,-14.621 11.146,-15.46c6.352,-0.719 12.105,4.913 12.344,11.506c0.36,9.229 -8.749,12.225 -12.224,11.385c0.36,4.075 7.431,5.634 10.787,5.274c11.146,-1.319 16.419,-8.151 16.779,-17.858c-0,-2.637 -0.24,-5.753 -0.959,-8.75l-4.075,-19.177c-3.835,1.08 -7.551,1.559 -11.146,1.559c-20.615,0 -37.395,-17.498 -39.073,-40.15c-1.797,-23.372 17.02,-40.751 31.522,-55.612c-2.158,-8.87 -3.475,-17.499 -3.475,-26.607c-0,-10.907 5.033,-33.201 16.419,-37.395c4.914,-1.917 14.023,22.172 13.783,35.476c-0.239,16.779 -7.911,32.84 -19.656,44.466l4.075,20.135m-1.078,14.263c-6.712,2.037 -12.465,8.989 -12.345,16.42c-0,6.352 4.194,10.427 9.468,12.944c0.599,0.24 0.84,0.719 0.84,1.198c-0,0.72 -0.84,1.319 -1.679,1.199c-9.109,-3.116 -15.581,-11.985 -15.461,-22.054c0,-9.827 7.791,-19.775 16.54,-23.011l-3.596,-18.098c-12.704,11.267 -26.727,24.69 -26.847,43.268c0,18.696 15.82,30.202 32.96,29.483c2.757,-0.119 5.393,-0.599 8.03,-1.438l-7.91,-39.911m11.745,-88.931c-0.12,-3.836 -2.397,-7.67 -6.592,-7.67c-10.067,2.037 -13.663,19.296 -13.903,27.925c0,5.034 0.839,10.188 2.038,15.101c9.588,-8.269 18.937,-21.813 18.457,-35.356m0,127.643c7.192,-3.834 12.105,-11.626 11.746,-20.255c-0.839,-11.027 -8.989,-19.056 -19.656,-18.936l7.91,39.191" style="fill-rule:nonzero;"/></g><g><path d="M841.042,369.881l248.325,0" style="fill:none;stroke:#d082c4;stroke-width:3.71px;"/><path d="M841.042,341.111l248.325,0" style="fill:none;stroke:#d082c4;stroke-width:3.71px;"/><path d="M841.042,312.342l248.325,0" style="fill:none;stroke:#d082c4;stroke-width:3.71px;"/><path d="M841.042,283.572l248.325,-0" style="fill:none;stroke:#d082c4;stroke-width:3.71px;"/><path d="M841.042,254.802l248.325,-0" style="fill:none;stroke:#d082c4;stroke-width:3.71px;"/></g><g><g><path d="M1072.07,241.213l-2.995,1.152c-0.92,0.345 -1.497,2.533 -1.497,3.34l0,10.71c0,1.382 0.806,2.073 1.497,2.073l2.995,-1.152c0.23,-0.115 0.345,-0.115 0.576,-0.115c0.46,-0 0.806,0.345 0.806,0.921l-0,8.177c-0,0.691 -0.576,1.612 -1.382,1.958c-0,-0 -2.419,0.921 -3.224,1.267c-0.807,0.345 -1.268,1.727 -1.268,2.648l0,16.354c0,0.691 -0.69,1.266 -1.958,1.266c-0.805,0 -1.497,-0.575 -1.497,-1.266l0,-14.396c0,-0.691 -0.576,-2.073 -1.612,-2.073l-0.23,0.115l-0.116,-0l-7.024,2.88c-0.576,0.229 -1.152,1.036 -1.152,2.533l0,16.008c0,0.691 -0.806,1.267 -1.958,1.267c-0.806,-0 -1.497,-0.576 -1.497,-1.267l0,-14.166c0,-0.575 -0.576,-1.842 -1.382,-1.842c-0.115,0 -0.23,0 -0.345,0.115c-1.037,0.345 -2.649,1.036 -2.764,1.036l-0.231,0.116c-0.691,0 -1.036,-0.345 -1.036,-1.036l-0,-8.177c-0,-0.691 0.576,-1.613 1.382,-1.843c-0,0 2.418,-1.036 3.109,-1.267c0.691,-0.345 1.267,-1.382 1.267,-2.649l0,-11.401c0,-0.921 -0.691,-2.073 -1.612,-2.073l-0.115,0.115c-0.922,0.461 -2.649,1.152 -2.764,1.152l-0.231,0.115c-0.691,-0 -1.036,-0.346 -1.036,-1.037l-0,-8.176c-0,-0.691 0.576,-1.612 1.382,-1.843c-0,-0 2.303,-0.921 2.994,-1.266c0.691,-0.346 1.382,-1.498 1.382,-3.11l0,-15.547c0,-0.691 0.691,-1.267 1.843,-1.267c0.806,-0 1.612,0.576 1.612,1.267l0,13.82c0,0.92 0.346,2.302 1.382,2.302c1.957,-0.46 5.874,-2.072 7.256,-2.878c1.036,-0.691 1.382,-2.188 1.496,-3.34l0,-14.972c0,-0.691 0.692,-1.267 1.843,-1.267c0.922,0 1.612,0.576 1.612,1.267l0,14.051c0,0.921 0.806,1.497 1.613,1.497c0.575,-0.115 2.879,-1.037 2.879,-1.037c0.23,-0.115 0.345,-0.115 0.576,-0.115c0.46,0 0.806,0.346 0.806,0.921l-0,8.177c-0,0.691 -0.576,1.613 -1.382,1.958l-0,0Zm-7.947,18.772c0.231,-1.036 0.461,-4.261 0.461,-7.37c-0,-3.11 -0.23,-5.989 -0.461,-6.565c-0.23,-0.461 -0.921,-0.691 -1.727,-0.691c-2.879,0 -8.177,2.419 -8.407,4.376c-0.23,0.922 -0.345,4.953 -0.345,8.522c-0,2.765 0.115,5.298 0.345,5.759c0.115,0.346 0.691,0.575 1.382,0.575c2.649,0 8.062,-2.302 8.752,-4.606Z" style="fill:#d4d4d4;fill-rule:nonzero;"/></g></g><g><g><path d="M986.163,332.654c-0.345,0.461 -0.691,0.576 -1.036,0.576c-0.346,-0 -0.691,-0.231 -0.691,-0.231c-3.455,-1.957 -6.219,-5.067 -9.098,-7.025c-10.25,-7.14 -13.82,-14.165 -13.82,-19.693c0,-6.334 5.068,-10.48 10.365,-10.825c1.958,-0 4.722,0.921 6.334,1.957c0.691,0.576 1.958,1.613 2.534,1.613c0.23,-0 0.345,-0 0.575,-0.115c0.807,-0.346 1.267,-1.152 1.267,-1.958c-0.115,-2.534 -0.806,-30.173 -0.806,-32.477c0,-1.267 1.037,-1.958 2.188,-1.958c1.613,0 3.455,1.152 3.57,3.225c0,0 -0.46,65.759 -1.382,66.911Zm-4.03,-10.25c-0,0 0.345,-6.909 0.345,-11.517c0,-1.842 -0.115,-3.224 -0.23,-3.684c-0.806,-2.304 -5.413,-5.644 -8.062,-5.644c-3.34,0 -4.722,3.8 -4.722,6.68c0,6.219 5.298,12.438 10.25,15.547c0.461,0.23 0.806,0.346 1.152,0.346c1.036,-0 1.267,-1.152 1.267,-1.728Z" style="fill:#d4d4d4;fill-rule:nonzero;"/></g></g><g><g><path d="M1030.58,230.445l0,5.528c0,0.46 -0.345,0.921 -1.152,1.151c0,0 -16.007,6.219 -16.353,6.335c-0.345,0.115 -0.691,0.346 -0.691,1.151l0,1.152l-0.23,3.685l-0,1.152c-0,0.806 0.461,1.612 1.267,1.843c0.23,0.115 0.46,0.115 0.69,0.115c0.461,-0 1.728,-0.922 2.534,-1.497c1.498,-0.807 2.764,-1.267 4.146,-1.613c0.691,-0.23 1.497,-0.345 2.189,-0.345c5.297,0.345 10.364,4.376 10.364,10.941c0,5.297 -3.57,12.438 -13.819,19.577c-2.88,1.958 -5.759,5.183 -9.214,7.026c0,-0 -0.345,0.23 -0.691,0.23c-0.231,-0 -0.576,-0.115 -0.921,-0.576c-0.576,-0.691 -0.921,-21.997 -1.152,-40.193c0,-0.23 -0.231,-0.46 -0.691,-0.46c-0.23,0.23 -5.528,2.188 -5.758,2.188c-0.576,-0 -0.806,-0.461 -0.806,-0.921l-0,-5.759c-0,-0.576 0.345,-0.805 1.036,-0.921l5.183,-1.957c0.921,-0.346 0.921,-1.383 0.921,-1.728c-0.116,-9.905 -0.116,-17.16 -0.116,-17.16c0.116,-2.073 1.959,-3.224 3.456,-3.224c1.152,-0 2.188,0.691 2.188,1.957c0,1.152 -0.23,9.099 -0.345,16.7c-0,0.345 0.115,0.691 0.691,0.691c0.46,-0.231 16.122,-5.99 16.122,-5.99c0.116,-0.114 0.346,-0.114 0.461,-0.114c0.576,-0 0.691,0.691 0.691,1.036Zm-15.663,46.987c5.413,-2.994 10.481,-9.213 10.481,-15.662c-0,-2.995 -1.152,-6.564 -4.607,-6.564c-2.879,-0 -7.485,3.109 -8.292,5.642c-0.115,0.461 -0.23,1.843 -0.23,3.686c0,4.606 0.346,11.516 0.346,11.516c-0,0.691 0.229,1.728 1.151,1.728c0.345,-0 0.691,-0.115 1.151,-0.346Z" style="fill:#d4d4d4;fill-rule:nonzero;"/></g></g><g><path d="M901.805,308.435c1.558,-0.239 3.114,-0.359 4.671,-0.359c15.209,-0.119 25.867,13.532 25.748,28.981c-0,12.813 -7.665,22.274 -19.042,27.783l4.79,24.31c0.359,2.036 0.359,3.832 0.359,5.509c0,12.215 -7.664,20.118 -20.357,21.435c-9.94,1.078 -21.316,-5.748 -22.394,-16.526c-0.719,-7.185 4.191,-14.609 11.137,-15.448c6.347,-0.718 12.095,4.91 12.334,11.497c0.359,9.221 -8.742,12.214 -12.214,11.376c0.359,4.071 7.424,5.629 10.778,5.269c11.137,-1.318 16.405,-8.144 16.765,-17.843c-0,-2.635 -0.24,-5.749 -0.958,-8.742l-4.072,-19.161c-3.832,1.078 -7.545,1.557 -11.137,1.557c-20.597,-0 -37.363,-17.484 -39.04,-40.117c-1.796,-23.352 17.005,-40.717 31.495,-55.566c-2.156,-8.862 -3.472,-17.484 -3.472,-26.585c-0,-10.898 5.03,-33.173 16.406,-37.364c4.909,-1.916 14.011,22.154 13.771,35.447c-0.239,16.765 -7.904,32.813 -19.639,44.429l4.071,20.118m-1.077,14.251c-6.706,2.036 -12.455,8.982 -12.335,16.407c0,6.346 4.191,10.418 9.461,12.933c0.598,0.24 0.838,0.719 0.838,1.197c0,0.719 -0.838,1.318 -1.677,1.198c-9.101,-3.113 -15.568,-11.975 -15.448,-22.035c0,-9.819 7.784,-19.759 16.526,-22.993l-3.592,-18.082c-12.695,11.257 -26.705,24.669 -26.825,43.231c-0,18.681 15.807,30.178 32.932,29.459c2.755,-0.119 5.389,-0.598 8.024,-1.436l-7.904,-39.879m11.736,-88.857c-0.12,-3.832 -2.395,-7.664 -6.587,-7.664c-10.059,2.036 -13.651,19.28 -13.891,27.902c-0,5.03 0.838,10.179 2.035,15.089c9.581,-8.263 18.922,-21.795 18.443,-35.327m-0,127.538c7.185,-3.832 12.095,-11.617 11.735,-20.238c-0.837,-11.018 -8.981,-19.042 -19.639,-18.921l7.904,39.159" style="fill:#d4d4d4;fill-rule:nonzero;"/></g><g><path d="M1120.58,161.682l248.53,0" style="fill:none;stroke:#000;stroke-width:3.72px;"/><path d="M1120.58,132.888l248.53,0" style="fill:none;stroke:#000;stroke-width:3.72px;"/><path d="M1120.58,104.095l248.53,-0" style="fill:none;stroke:#000;stroke-width:3.72px;"/><path d="M1120.58,75.301l248.53,-0" style="fill:none;stroke:#000;stroke-width:3.72px;"/><path d="M1120.58,46.507l248.53,-0" style="fill:none;stroke:#000;stroke-width:3.72px;"/></g><g><path d="M1181.4,100.185c1.559,-0.239 3.117,-0.36 4.674,-0.36c15.222,-0.119 25.889,13.544 25.77,29.005c-0,12.825 -7.672,22.293 -19.057,27.806l4.793,24.33c0.36,2.038 0.36,3.836 0.36,5.514c-0,12.225 -7.671,20.135 -20.375,21.453c-9.948,1.079 -21.333,-5.753 -22.412,-16.54c-0.719,-7.191 4.194,-14.621 11.146,-15.46c6.352,-0.719 12.105,4.913 12.344,11.506c0.36,9.229 -8.749,12.225 -12.224,11.385c0.36,4.075 7.431,5.634 10.787,5.274c11.146,-1.319 16.419,-8.151 16.779,-17.858c-0,-2.637 -0.24,-5.753 -0.959,-8.75l-4.075,-19.177c-3.835,1.08 -7.551,1.559 -11.146,1.559c-20.615,0 -37.395,-17.498 -39.073,-40.15c-1.797,-23.372 17.02,-40.751 31.522,-55.612c-2.158,-8.87 -3.475,-17.499 -3.475,-26.607c-0,-10.907 5.034,-33.201 16.419,-37.395c4.914,-1.917 14.023,22.172 13.783,35.476c-0.239,16.779 -7.911,32.84 -19.656,44.466l4.075,20.135m-1.078,14.263c-6.711,2.037 -12.465,8.989 -12.345,16.42c-0,6.352 4.194,10.427 9.468,12.944c0.599,0.24 0.84,0.719 0.84,1.198c-0,0.72 -0.84,1.319 -1.679,1.199c-9.109,-3.116 -15.581,-11.985 -15.461,-22.054c0,-9.827 7.791,-19.775 16.54,-23.011l-3.595,-18.098c-12.705,11.267 -26.728,24.69 -26.848,43.268c0,18.696 15.821,30.202 32.96,29.483c2.757,-0.119 5.393,-0.599 8.03,-1.438l-7.91,-39.911m11.746,-88.931c-0.121,-3.836 -2.398,-7.67 -6.593,-7.67c-10.067,2.037 -13.662,19.296 -13.903,27.925c0,5.034 0.84,10.188 2.038,15.101c9.588,-8.269 18.937,-21.813 18.458,-35.356m-0,127.643c7.191,-3.834 12.104,-11.626 11.745,-20.255c-0.839,-11.027 -8.989,-19.056 -19.656,-18.936l7.911,39.191" style="fill-rule:nonzero;"/></g><g><g><path d="M1309.48,32.907l-2.996,1.152c-0.923,0.346 -1.499,2.536 -1.499,3.343l-0,10.72c-0,1.383 0.807,2.074 1.499,2.074l2.996,-1.153c0.231,-0.115 0.346,-0.115 0.576,-0.115c0.461,0 0.807,0.346 0.807,0.922l-0,8.183c-0,0.692 -0.576,1.614 -1.383,1.96c-0,0 -2.421,0.922 -3.227,1.268c-0.807,0.346 -1.268,1.729 -1.268,2.651l-0,16.367c-0,0.692 -0.692,1.268 -1.959,1.268c-0.808,-0 -1.499,-0.576 -1.499,-1.268l-0,-14.408c-0,-0.691 -0.576,-2.074 -1.613,-2.074l-0.231,0.115l-0.115,-0l-7.032,2.882c-0.575,0.23 -1.152,1.037 -1.152,2.535l0,16.021c0,0.692 -0.806,1.268 -1.96,1.268c-0.806,0 -1.498,-0.576 -1.498,-1.268l0,-14.177c0,-0.576 -0.576,-1.844 -1.383,-1.844c-0.115,0 -0.231,0 -0.346,0.115c-1.037,0.346 -2.651,1.038 -2.766,1.038l-0.231,0.115c-0.691,0 -1.037,-0.345 -1.037,-1.037l0,-8.184c0,-0.691 0.577,-1.614 1.383,-1.844c0,0 2.421,-1.037 3.112,-1.268c0.692,-0.346 1.268,-1.383 1.268,-2.651l0,-11.411c0,-0.921 -0.691,-2.075 -1.614,-2.075l-0.115,0.116c-0.922,0.461 -2.651,1.153 -2.766,1.153l-0.231,0.115c-0.691,-0 -1.037,-0.346 -1.037,-1.038l0,-8.183c0,-0.691 0.577,-1.614 1.383,-1.844c0,-0 2.306,-0.922 2.997,-1.268c0.692,-0.346 1.383,-1.499 1.383,-3.112l0,-15.56c0,-0.692 0.692,-1.268 1.844,-1.268c0.808,-0 1.614,0.576 1.614,1.268l0,13.831c0,0.922 0.346,2.305 1.383,2.305c1.96,-0.461 5.879,-2.075 7.262,-2.881c1.037,-0.692 1.383,-2.19 1.498,-3.343l-0,-14.984c-0,-0.691 0.691,-1.268 1.845,-1.268c0.921,0 1.613,0.577 1.613,1.268l-0,14.062c-0,0.922 0.807,1.498 1.614,1.498c0.576,-0.115 2.881,-1.037 2.881,-1.037c0.231,-0.115 0.346,-0.115 0.576,-0.115c0.461,0 0.807,0.346 0.807,0.922l-0,8.183c-0,0.692 -0.576,1.614 -1.383,1.96Zm-7.953,18.787c0.231,-1.037 0.461,-4.264 0.461,-7.376c0,-3.112 -0.23,-5.994 -0.461,-6.57c-0.23,-0.462 -0.922,-0.691 -1.729,-0.691c-2.881,-0 -8.183,2.42 -8.414,4.379c-0.231,0.922 -0.346,4.957 -0.346,8.529c0,2.767 0.115,5.302 0.346,5.764c0.115,0.346 0.692,0.575 1.383,0.575c2.652,0 8.068,-2.304 8.76,-4.61Z" style="fill:#222;fill-rule:nonzero;"/></g></g><g><g><path d="M1351.8,76.13l-2.997,1.152c-0.921,0.346 -1.498,2.536 -1.498,3.343l0,10.719c0,1.383 0.807,2.075 1.498,2.075l2.997,-1.153c0.231,-0.115 0.346,-0.115 0.577,-0.115c0.461,-0 0.807,0.346 0.807,0.922l-0,8.183c-0,0.692 -0.577,1.614 -1.384,1.96c0,-0 -2.42,0.922 -3.227,1.268c-0.807,0.346 -1.268,1.729 -1.268,2.65l0,16.368c0,0.691 -0.691,1.267 -1.959,1.267c-0.807,0 -1.499,-0.576 -1.499,-1.267l0,-14.408c0,-0.692 -0.576,-2.075 -1.613,-2.075l-0.23,0.115l-0.116,0l-7.031,2.882c-0.576,0.23 -1.152,1.038 -1.152,2.536l-0,16.021c-0,0.691 -0.808,1.268 -1.96,1.268c-0.806,-0 -1.498,-0.577 -1.498,-1.268l0,-14.177c0,-0.576 -0.577,-1.844 -1.383,-1.844c-0.116,-0 -0.231,-0 -0.346,0.115c-1.037,0.346 -2.651,1.037 -2.766,1.037l-0.231,0.116c-0.692,0 -1.037,-0.346 -1.037,-1.037l-0,-8.184c-0,-0.692 0.576,-1.614 1.383,-1.844c-0,0 2.42,-1.037 3.112,-1.268c0.691,-0.346 1.268,-1.383 1.268,-2.651l0,-11.411c0,-0.922 -0.692,-2.075 -1.614,-2.075l-0.115,0.116c-0.922,0.461 -2.651,1.152 -2.766,1.152l-0.231,0.115c-0.692,0 -1.037,-0.346 -1.037,-1.037l-0,-8.183c-0,-0.692 0.576,-1.614 1.383,-1.845c-0,0 2.305,-0.921 2.997,-1.267c0.691,-0.346 1.383,-1.499 1.383,-3.112l0,-15.56c0,-0.692 0.692,-1.268 1.844,-1.268c0.806,-0 1.614,0.576 1.614,1.268l-0,13.831c-0,0.922 0.346,2.305 1.383,2.305c1.959,-0.461 5.878,-2.075 7.261,-2.882c1.038,-0.691 1.383,-2.189 1.498,-3.342l0,-14.984c0,-0.692 0.692,-1.268 1.844,-1.268c0.923,-0 1.614,0.576 1.614,1.268l0,14.062c0,0.922 0.807,1.498 1.614,1.498c0.576,-0.115 2.881,-1.037 2.881,-1.037c0.231,-0.115 0.346,-0.115 0.577,-0.115c0.461,-0 0.807,0.346 0.807,0.921l-0,8.184c-0,0.692 -0.577,1.614 -1.384,1.96Zm-7.953,18.787c0.231,-1.037 0.461,-4.264 0.461,-7.376c0,-3.112 -0.23,-5.994 -0.461,-6.57c-0.23,-0.462 -0.922,-0.692 -1.728,-0.692c-2.882,0 -8.184,2.421 -8.414,4.38c-0.231,0.922 -0.346,4.956 -0.346,8.529c0,2.766 0.115,5.302 0.346,5.763c0.115,0.346 0.691,0.576 1.383,0.576c2.65,0 8.068,-2.304 8.759,-4.61Z" style="fill:#222;fill-rule:nonzero;"/></g></g><g><g><path d="M1267.96,68.523l-0,5.532c-0,0.461 -0.346,0.922 -1.153,1.152c0,0 -16.022,6.225 -16.367,6.34c-0.346,0.115 -0.692,0.345 -0.692,1.153l0,1.152l-0.23,3.689l0,1.152c0,0.806 0.461,1.614 1.267,1.844c0.231,0.116 0.462,0.116 0.692,0.116c0.462,-0 1.729,-0.923 2.536,-1.499c1.498,-0.807 2.767,-1.268 4.15,-1.613c0.691,-0.231 1.498,-0.346 2.189,-0.346c5.302,0.346 10.374,4.379 10.374,10.949c-0,5.303 -3.573,12.448 -13.831,19.595c-2.882,1.959 -5.764,5.186 -9.222,7.03c0,0 -0.345,0.231 -0.691,0.231c-0.23,0 -0.576,-0.115 -0.922,-0.577c-0.576,-0.691 -0.922,-22.014 -1.153,-40.225c0,-0.231 -0.23,-0.461 -0.691,-0.461c-0.23,0.23 -5.533,2.19 -5.763,2.19c-0.576,-0 -0.807,-0.461 -0.807,-0.923l-0,-5.762c-0,-0.577 0.346,-0.808 1.037,-0.922l5.187,-1.96c0.922,-0.346 0.922,-1.383 0.922,-1.729c-0.115,-9.912 -0.115,-17.173 -0.115,-17.173c0.115,-2.075 1.959,-3.228 3.458,-3.228c1.152,-0 2.19,0.691 2.19,1.959c-0,1.153 -0.231,9.106 -0.346,16.713c-0,0.346 0.115,0.692 0.691,0.692c0.461,-0.23 16.137,-5.994 16.137,-5.994c0.115,-0.115 0.346,-0.115 0.461,-0.115c0.577,0 0.692,0.692 0.692,1.038Zm-15.676,47.026c5.417,-2.997 10.489,-9.221 10.489,-15.676c-0,-2.996 -1.153,-6.57 -4.61,-6.57c-2.882,0 -7.493,3.112 -8.299,5.648c-0.116,0.461 -0.231,1.844 -0.231,3.688c0,4.611 0.346,11.527 0.346,11.527c-0,0.691 0.231,1.729 1.152,1.729c0.346,-0 0.692,-0.116 1.153,-0.346Z" style="fill:#222;fill-rule:nonzero;"/></g></g><g><path d="M1120.58,369.881l248.325,0" style="fill:none;stroke:#d082c4;stroke-width:3.71px;"/><path d="M1120.58,341.111l248.325,0" style="fill:none;stroke:#d082c4;stroke-width:3.71px;"/><path d="M1120.58,312.342l248.325,0" style="fill:none;stroke:#d082c4;stroke-width:3.71px;"/><path d="M1120.58,283.572l248.325,-0" style="fill:none;stroke:#d082c4;stroke-width:3.71px;"/><path d="M1120.58,254.802l248.325,-0" style="fill:none;stroke:#d082c4;stroke-width:3.71px;"/></g><g><path d="M1181.35,308.435c1.558,-0.239 3.114,-0.359 4.671,-0.359c15.209,-0.119 25.867,13.532 25.747,28.981c0,12.813 -7.664,22.274 -19.041,27.783l4.79,24.31c0.359,2.036 0.359,3.832 0.359,5.509c0,12.215 -7.664,20.118 -20.357,21.435c-9.94,1.078 -21.316,-5.748 -22.394,-16.526c-0.719,-7.185 4.191,-14.609 11.137,-15.448c6.346,-0.718 12.095,4.91 12.334,11.497c0.359,9.221 -8.742,12.214 -12.214,11.376c0.359,4.071 7.424,5.629 10.777,5.269c11.137,-1.318 16.406,-8.144 16.766,-17.843c-0,-2.635 -0.24,-5.749 -0.958,-8.742l-4.072,-19.161c-3.832,1.078 -7.545,1.557 -11.137,1.557c-20.598,-0 -37.364,-17.484 -39.04,-40.117c-1.796,-23.352 17.005,-40.717 31.495,-55.566c-2.156,-8.862 -3.472,-17.484 -3.472,-26.585c-0,-10.898 5.03,-33.173 16.406,-37.364c4.909,-1.916 14.011,22.154 13.771,35.447c-0.239,16.765 -7.904,32.813 -19.639,44.429l4.071,20.118m-1.077,14.251c-6.706,2.036 -12.455,8.982 -12.335,16.407c0,6.346 4.191,10.418 9.461,12.933c0.598,0.24 0.838,0.719 0.838,1.197c0,0.719 -0.838,1.318 -1.677,1.198c-9.101,-3.113 -15.568,-11.975 -15.448,-22.035c-0,-9.819 7.784,-19.759 16.526,-22.993l-3.592,-18.082c-12.695,11.257 -26.705,24.669 -26.825,43.231c-0,18.681 15.807,30.178 32.932,29.459c2.755,-0.119 5.389,-0.598 8.023,-1.436l-7.903,-39.879m11.736,-88.857c-0.12,-3.832 -2.395,-7.664 -6.587,-7.664c-10.059,2.036 -13.651,19.28 -13.892,27.902c0,5.03 0.839,10.179 2.036,15.089c9.581,-8.263 18.922,-21.795 18.443,-35.327m-0,127.538c7.185,-3.832 12.095,-11.617 11.735,-20.238c-0.837,-11.018 -8.981,-19.042 -19.639,-18.921l7.904,39.159" style="fill:#d4d4d4;fill-rule:nonzero;"/></g><g><g><path d="M1309.32,241.213l-2.994,1.152c-0.922,0.345 -1.498,2.533 -1.498,3.34l0,10.71c0,1.382 0.807,2.073 1.498,2.073l2.994,-1.152c0.23,-0.115 0.345,-0.115 0.576,-0.115c0.46,-0 0.806,0.345 0.806,0.921l-0,8.177c-0,0.691 -0.576,1.612 -1.382,1.958c-0,-0 -2.419,0.921 -3.225,1.267c-0.806,0.345 -1.267,1.727 -1.267,2.648l0,16.354c0,0.691 -0.691,1.266 -1.957,1.266c-0.807,0 -1.498,-0.575 -1.498,-1.266l0,-14.396c0,-0.691 -0.575,-2.073 -1.612,-2.073l-0.23,0.115l-0.115,-0l-7.026,2.88c-0.575,0.229 -1.151,1.036 -1.151,2.533l0,16.008c0,0.691 -0.806,1.267 -1.958,1.267c-0.806,-0 -1.497,-0.576 -1.497,-1.267l0,-14.166c0,-0.575 -0.576,-1.842 -1.382,-1.842c-0.115,0 -0.231,0 -0.345,0.115c-1.037,0.345 -2.649,1.036 -2.764,1.036l-0.231,0.116c-0.691,0 -1.036,-0.345 -1.036,-1.036l-0,-8.177c-0,-0.691 0.576,-1.613 1.382,-1.843c-0,0 2.418,-1.036 3.109,-1.267c0.691,-0.345 1.267,-1.382 1.267,-2.649l0,-11.401c0,-0.921 -0.691,-2.073 -1.613,-2.073l-0.114,0.115c-0.922,0.461 -2.649,1.152 -2.764,1.152l-0.231,0.115c-0.691,-0 -1.036,-0.346 -1.036,-1.037l-0,-8.176c-0,-0.691 0.576,-1.612 1.382,-1.843c-0,-0 2.303,-0.921 2.994,-1.266c0.691,-0.346 1.382,-1.498 1.382,-3.11l0,-15.547c0,-0.691 0.691,-1.267 1.842,-1.267c0.807,-0 1.613,0.576 1.613,1.267l0,13.82c0,0.92 0.346,2.302 1.382,2.302c1.958,-0.46 5.873,-2.072 7.255,-2.878c1.037,-0.691 1.382,-2.188 1.497,-3.34l0,-14.972c0,-0.691 0.691,-1.267 1.843,-1.267c0.921,0 1.612,0.576 1.612,1.267l0,14.051c0,0.921 0.807,1.497 1.613,1.497c0.576,-0.115 2.879,-1.037 2.879,-1.037c0.23,-0.115 0.345,-0.115 0.576,-0.115c0.46,0 0.806,0.346 0.806,0.921l-0,8.177c-0,0.691 -0.576,1.613 -1.382,1.958l-0,0Zm-7.947,18.772c0.231,-1.036 0.461,-4.261 0.461,-7.37c0,-3.11 -0.23,-5.989 -0.461,-6.565c-0.23,-0.461 -0.92,-0.691 -1.727,-0.691c-2.879,0 -8.176,2.419 -8.407,4.376c-0.231,0.922 -0.346,4.953 -0.346,8.522c0,2.765 0.115,5.298 0.346,5.759c0.115,0.346 0.691,0.575 1.382,0.575c2.649,0 8.061,-2.302 8.752,-4.606Z" style="fill:#d4d4d4;fill-rule:nonzero;"/></g></g><g><g><path d="M1351.61,284.4l-2.995,1.151c-0.921,0.346 -1.497,2.534 -1.497,3.341l0,10.71c0,1.382 0.806,2.073 1.497,2.073l2.995,-1.152c0.23,-0.115 0.345,-0.115 0.576,-0.115c0.46,-0 0.806,0.345 0.806,0.921l-0,8.176c-0,0.691 -0.576,1.613 -1.382,1.959c-0,-0 -2.419,0.921 -3.224,1.267c-0.807,0.345 -1.268,1.727 -1.268,2.648l0,16.354c0,0.691 -0.691,1.266 -1.958,1.266c-0.806,0 -1.497,-0.575 -1.497,-1.266l0,-14.396c0,-0.691 -0.576,-2.073 -1.612,-2.073l-0.23,0.115l-0.116,-0l-7.024,2.879c-0.577,0.23 -1.152,1.037 -1.152,2.534l0,16.008c0,0.69 -0.807,1.267 -1.958,1.267c-0.806,-0 -1.497,-0.577 -1.497,-1.267l0,-14.166c0,-0.575 -0.576,-1.842 -1.382,-1.842c-0.116,-0 -0.23,-0 -0.345,0.115c-1.037,0.345 -2.649,1.036 -2.764,1.036l-0.231,0.116c-0.691,-0 -1.036,-0.345 -1.036,-1.037l-0,-8.176c-0,-0.692 0.576,-1.613 1.382,-1.843c-0,0 2.418,-1.036 3.109,-1.267c0.691,-0.345 1.267,-1.382 1.267,-2.649l0,-11.401c0,-0.921 -0.691,-2.073 -1.612,-2.073l-0.115,0.115c-0.922,0.461 -2.649,1.152 -2.764,1.152l-0.231,0.115c-0.691,-0 -1.036,-0.346 -1.036,-1.037l-0,-8.176c-0,-0.691 0.576,-1.613 1.382,-1.843c-0,-0 2.303,-0.921 2.994,-1.266c0.691,-0.346 1.382,-1.498 1.382,-3.11l0,-15.547c0,-0.691 0.691,-1.267 1.843,-1.267c0.805,-0 1.612,0.576 1.612,1.267l0,13.82c0,0.92 0.346,2.302 1.382,2.302c1.957,-0.46 5.874,-2.072 7.255,-2.878c1.037,-0.691 1.383,-2.188 1.497,-3.34l0,-14.972c0,-0.691 0.691,-1.267 1.843,-1.267c0.921,0 1.612,0.576 1.612,1.267l0,14.051c0,0.921 0.806,1.497 1.613,1.497c0.575,-0.115 2.879,-1.037 2.879,-1.037c0.23,-0.115 0.345,-0.115 0.576,-0.115c0.46,0 0.806,0.346 0.806,0.921l-0,8.177c-0,0.691 -0.576,1.613 -1.382,1.958Zm-7.947,18.772c0.231,-1.037 0.461,-4.261 0.461,-7.371c-0,-3.109 -0.23,-5.989 -0.461,-6.564c-0.23,-0.461 -0.921,-0.691 -1.727,-0.691c-2.879,0 -8.177,2.419 -8.407,4.376c-0.23,0.921 -0.345,4.952 -0.345,8.522c-0,2.764 0.115,5.298 0.345,5.759c0.115,0.345 0.691,0.575 1.382,0.575c2.648,-0 8.061,-2.303 8.752,-4.606Z" style="fill:#d4d4d4;fill-rule:nonzero;"/></g></g><g><g><path d="M1267.84,276.799l-0,5.528c-0,0.461 -0.346,0.921 -1.152,1.151c0,0 -16.008,6.219 -16.354,6.334c-0.345,0.116 -0.691,0.346 -0.691,1.153l0,1.151l-0.229,3.685l-0,1.152c-0,0.806 0.46,1.612 1.266,1.842c0.231,0.116 0.461,0.116 0.691,0.116c0.461,-0 1.727,-0.922 2.534,-1.498c1.497,-0.806 2.764,-1.266 4.146,-1.612c0.691,-0.23 1.497,-0.345 2.188,-0.345c5.297,0.345 10.365,4.376 10.365,10.94c-0,5.298 -3.57,12.438 -13.82,19.578c-2.879,1.958 -5.759,5.183 -9.214,7.025c0,0 -0.345,0.231 -0.69,0.231c-0.23,-0 -0.576,-0.115 -0.921,-0.576c-0.576,-0.691 -0.922,-21.996 -1.152,-40.193c-0,-0.23 -0.23,-0.46 -0.692,-0.46c-0.229,0.23 -5.527,2.188 -5.757,2.188c-0.576,-0 -0.807,-0.461 -0.807,-0.922l0,-5.757c0,-0.577 0.346,-0.807 1.037,-0.922l5.182,-1.958c0.922,-0.346 0.922,-1.382 0.922,-1.728c-0.115,-9.903 -0.115,-17.159 -0.115,-17.159c0.115,-2.073 1.957,-3.225 3.455,-3.225c1.151,0 2.187,0.691 2.187,1.958c0,1.152 -0.23,9.098 -0.345,16.699c0,0.345 0.115,0.691 0.691,0.691c0.46,-0.23 16.123,-5.989 16.123,-5.989c0.115,-0.114 0.346,-0.114 0.461,-0.114c0.576,-0 0.691,0.691 0.691,1.036Zm-15.662,46.987c5.412,-2.994 10.479,-9.213 10.479,-15.662c0,-2.994 -1.151,-6.565 -4.606,-6.565c-2.88,0 -7.486,3.11 -8.292,5.644c-0.116,0.46 -0.23,1.842 -0.23,3.684c-0,4.608 0.345,11.517 0.345,11.517c0,0.692 0.231,1.728 1.151,1.728c0.346,0 0.691,-0.116 1.153,-0.346Z" style="fill:#d4d4d4;fill-rule:nonzero;"/></g></g><g><g><path d="M1522.31,124.423c-0.922,-1.152 -1.383,-66.965 -1.383,-66.965c0.115,-2.075 1.96,-3.228 3.573,-3.228c1.153,-0 2.19,0.691 2.19,1.959c0,2.306 -0.691,29.969 -0.807,32.504c-0,0.806 0.462,1.614 1.268,1.96c0.231,0.115 0.346,0.115 0.577,0.115c0.575,-0 1.844,-1.038 2.535,-1.614c1.614,-1.038 4.38,-1.959 6.339,-1.959c5.303,0.346 10.374,4.495 10.374,11.065c-0,5.302 -3.573,12.332 -13.832,19.479c-2.881,1.959 -5.647,5.071 -9.105,7.03c0,0 -0.346,0.231 -0.692,0.231c-0.345,0 -0.691,-0.115 -1.037,-0.577Zm4.035,-10.257c-0,0.576 0.229,1.729 1.267,1.729c0.346,-0 0.691,-0.116 1.153,-0.346c4.956,-3.112 10.258,-9.336 10.258,-15.56c-0,-2.882 -1.383,-6.686 -4.725,-6.686c-2.652,0 -7.262,3.343 -8.069,5.648c-0.115,0.461 -0.23,1.844 -0.23,3.688c-0,4.611 0.346,11.527 0.346,11.527Z" style="fill:#222;fill-rule:nonzero;"/></g></g><g><g><path d="M1569.14,77.599c-0.922,-1.153 -1.383,-66.966 -1.383,-66.966c0.115,-2.075 1.959,-3.227 3.573,-3.227c1.152,-0 2.189,0.691 2.189,1.959c0,2.305 -0.691,29.968 -0.806,32.503c-0,0.807 0.461,1.614 1.268,1.96c0.23,0.115 0.346,0.115 0.576,0.115c0.576,-0 1.844,-1.038 2.536,-1.613c1.613,-1.038 4.379,-1.96 6.339,-1.96c5.302,0.346 10.373,4.495 10.373,11.065c0,5.302 -3.572,12.333 -13.831,19.479c-2.881,1.959 -5.647,5.071 -9.105,7.031c-0,0 -0.346,0.23 -0.692,0.23c-0.345,0 -0.691,-0.115 -1.037,-0.576Zm4.034,-10.258c-0,0.577 0.23,1.729 1.268,1.729c0.345,-0 0.691,-0.115 1.152,-0.346c4.957,-3.112 10.258,-9.336 10.258,-15.56c0,-2.881 -1.383,-6.685 -4.725,-6.685c-2.651,0 -7.262,3.342 -8.068,5.648c-0.115,0.46 -0.231,1.843 -0.231,3.688c-0,4.61 0.346,11.526 0.346,11.526Z" style="fill:#222;fill-rule:nonzero;"/></g></g><g><path d="M1400.27,161.682l248.53,0" style="fill:none;stroke:#000;stroke-width:3.72px;"/><path d="M1400.27,132.888l248.53,0" style="fill:none;stroke:#000;stroke-width:3.72px;"/><path d="M1400.27,104.095l248.53,-0" style="fill:none;stroke:#000;stroke-width:3.72px;"/><path d="M1400.27,75.301l248.53,-0" style="fill:none;stroke:#000;stroke-width:3.72px;"/><path d="M1400.27,46.507l248.53,-0" style="fill:none;stroke:#000;stroke-width:3.72px;"/></g><g><path d="M1461.08,100.185c1.559,-0.239 3.117,-0.36 4.674,-0.36c15.223,-0.119 25.889,13.544 25.77,29.005c-0,12.825 -7.671,22.293 -19.057,27.806l4.793,24.33c0.36,2.038 0.36,3.836 0.36,5.514c-0,12.225 -7.67,20.135 -20.374,21.453c-9.949,1.079 -21.334,-5.753 -22.413,-16.54c-0.719,-7.191 4.194,-14.621 11.146,-15.46c6.352,-0.719 12.105,4.913 12.345,11.506c0.359,9.229 -8.75,12.225 -12.225,11.385c0.36,4.075 7.431,5.634 10.787,5.274c11.146,-1.319 16.419,-8.151 16.779,-17.858c0,-2.637 -0.239,-5.753 -0.959,-8.75l-4.075,-19.177c-3.835,1.08 -7.551,1.559 -11.146,1.559c-20.615,0 -37.394,-17.498 -39.072,-40.15c-1.798,-23.372 17.019,-40.751 31.521,-55.612c-2.158,-8.87 -3.475,-17.499 -3.475,-26.607c-0,-10.907 5.034,-33.201 16.419,-37.395c4.914,-1.917 14.024,22.172 13.783,35.476c-0.239,16.779 -7.91,32.84 -19.656,44.466l4.075,20.135m-1.078,14.263c-6.711,2.037 -12.465,8.989 -12.345,16.42c0,6.352 4.194,10.427 9.468,12.944c0.599,0.24 0.84,0.719 0.84,1.198c-0,0.72 -0.84,1.319 -1.679,1.199c-9.109,-3.116 -15.581,-11.985 -15.461,-22.054c0,-9.827 7.791,-19.775 16.54,-23.011l-3.595,-18.098c-12.705,11.267 -26.728,24.69 -26.848,43.268c0,18.696 15.821,30.202 32.96,29.483c2.757,-0.119 5.393,-0.599 8.03,-1.438l-7.91,-39.911m11.746,-88.931c-0.12,-3.836 -2.397,-7.67 -6.593,-7.67c-10.067,2.037 -13.662,19.296 -13.903,27.925c0,5.034 0.84,10.188 2.038,15.101c9.588,-8.269 18.937,-21.813 18.458,-35.356m-0,127.643c7.191,-3.834 12.105,-11.626 11.745,-20.255c-0.839,-11.027 -8.989,-19.056 -19.656,-18.936l7.911,39.191" style="fill-rule:nonzero;"/></g><g><path d="M1400.4,369.881l248.325,0" style="fill:none;stroke:#d082c4;stroke-width:3.71px;"/><path d="M1400.4,341.111l248.325,0" style="fill:none;stroke:#d082c4;stroke-width:3.71px;"/><path d="M1400.4,312.342l248.325,0" style="fill:none;stroke:#d082c4;stroke-width:3.71px;"/><path d="M1400.4,283.572l248.325,-0" style="fill:none;stroke:#d082c4;stroke-width:3.71px;"/><path d="M1400.4,254.802l248.325,-0" style="fill:none;stroke:#d082c4;stroke-width:3.71px;"/></g><g><g><path d="M1522.35,332.654c-0.922,-1.152 -1.382,-66.911 -1.382,-66.911c0.115,-2.073 1.958,-3.225 3.569,-3.225c1.153,0 2.189,0.691 2.189,1.958c0,2.304 -0.691,29.943 -0.807,32.477c0,0.806 0.462,1.612 1.267,1.958c0.231,0.115 0.346,0.115 0.577,0.115c0.575,-0 1.842,-1.037 2.533,-1.613c1.613,-1.036 4.377,-1.957 6.334,-1.957c5.298,0.345 10.365,4.491 10.365,11.056c-0,5.297 -3.57,12.322 -13.82,19.462c-2.879,1.958 -5.643,5.068 -9.098,7.025c0,0 -0.345,0.231 -0.691,0.231c-0.345,-0 -0.691,-0.115 -1.036,-0.576Zm4.031,-10.25c-0,0.576 0.229,1.728 1.266,1.728c0.345,0 0.691,-0.116 1.152,-0.346c4.952,-3.109 10.249,-9.328 10.249,-15.547c0,-2.88 -1.382,-6.68 -4.721,-6.68c-2.649,0 -7.255,3.34 -8.062,5.644c-0.115,0.46 -0.23,1.842 -0.23,3.684c0,4.608 0.346,11.517 0.346,11.517Z" style="fill:#d4d4d4;fill-rule:nonzero;"/></g></g><g><g><path d="M1569.13,285.868c-0.922,-1.152 -1.382,-66.911 -1.382,-66.911c0.114,-2.073 1.957,-3.224 3.569,-3.224c1.152,0 2.188,0.691 2.188,1.957c0,2.304 -0.691,29.943 -0.805,32.477c-0,0.806 0.46,1.612 1.267,1.958c0.229,0.115 0.345,0.115 0.575,0.115c0.576,-0 1.843,-1.037 2.534,-1.612c1.612,-1.037 4.376,-1.958 6.334,-1.958c5.297,0.345 10.365,4.491 10.365,11.056c-0,5.297 -3.57,12.323 -13.82,19.462c-2.879,1.958 -5.643,5.068 -9.098,7.026c0,-0 -0.345,0.23 -0.691,0.23c-0.345,-0 -0.691,-0.115 -1.036,-0.576Zm4.03,-10.25c-0,0.577 0.23,1.728 1.267,1.728c0.346,-0 0.691,-0.115 1.151,-0.346c4.953,-3.109 10.25,-9.328 10.25,-15.547c0,-2.879 -1.382,-6.679 -4.722,-6.679c-2.648,-0 -7.255,3.339 -8.061,5.643c-0.115,0.46 -0.231,1.842 -0.231,3.685c0,4.607 0.346,11.516 0.346,11.516Z" style="fill:#d4d4d4;fill-rule:nonzero;"/></g></g><g><path d="M1461.17,308.435c1.557,-0.239 3.113,-0.359 4.67,-0.359c15.209,-0.119 25.867,13.532 25.748,28.981c-0,12.813 -7.665,22.274 -19.041,27.783l4.789,24.31c0.359,2.036 0.359,3.832 0.359,5.509c0,12.215 -7.664,20.118 -20.357,21.435c-9.94,1.078 -21.316,-5.748 -22.394,-16.526c-0.719,-7.185 4.191,-14.609 11.137,-15.448c6.347,-0.718 12.095,4.91 12.334,11.497c0.359,9.221 -8.742,12.214 -12.214,11.376c0.359,4.071 7.425,5.629 10.778,5.269c11.137,-1.318 16.405,-8.144 16.765,-17.843c-0,-2.635 -0.239,-5.749 -0.958,-8.742l-4.072,-19.161c-3.832,1.078 -7.545,1.557 -11.137,1.557c-20.597,-0 -37.363,-17.484 -39.04,-40.117c-1.795,-23.352 17.005,-40.717 31.495,-55.566c-2.155,-8.862 -3.472,-17.484 -3.472,-26.585c0,-10.898 5.03,-33.173 16.406,-37.364c4.909,-1.916 14.012,22.154 13.771,35.447c-0.239,16.765 -7.904,32.813 -19.639,44.429l4.071,20.118m-1.076,14.251c-6.707,2.036 -12.456,8.982 -12.336,16.407c0,6.346 4.191,10.418 9.461,12.933c0.598,0.24 0.839,0.719 0.839,1.197c-0,0.719 -0.839,1.318 -1.678,1.198c-9.101,-3.113 -15.568,-11.975 -15.448,-22.035c0,-9.819 7.784,-19.759 16.526,-22.993l-3.592,-18.082c-12.695,11.257 -26.705,24.669 -26.825,43.231c-0,18.681 15.807,30.178 32.932,29.459c2.755,-0.119 5.389,-0.598 8.024,-1.436l-7.903,-39.879m11.735,-88.857c-0.12,-3.832 -2.395,-7.664 -6.587,-7.664c-10.059,2.036 -13.651,19.28 -13.891,27.902c-0,5.03 0.838,10.179 2.035,15.089c9.581,-8.263 18.922,-21.795 18.443,-35.327m0,127.538c7.186,-3.832 12.095,-11.617 11.736,-20.238c-0.838,-11.018 -8.981,-19.042 -19.64,-18.921l7.904,39.159" style="fill:#d4d4d4;fill-rule:nonzero;"/></g></svg>