<?xml version="1.0" encoding="UTF-8" standalone="no"?>
<!DOCTYPE svg PUBLIC "-//W3C//DTD SVG 1.1//EN" "http://www.w3.org/Graphics/SVG/1.1/DTD/svg11.dtd">
<svg width="100%" height="100%" viewBox="0 0 191 32" version="1.1" xmlns="http://www.w3.org/2000/svg" xmlns:xlink="http://www.w3.org/1999/xlink" xml:space="preserve" xmlns:serif="http://www.serif.com/" style="fill-rule:evenodd;clip-rule:evenodd;stroke-linejoin:round;stroke-miterlimit:2;">
    <g transform="matrix(1,0,0,1,0,8)">
        <g transform="matrix(1,0,0,1,0,-8)">
            <clipPath id="_clip1">
                <rect x="0" y="8" width="191" height="16"/>
            </clipPath>
            <g clip-path="url(#_clip1)">
                <g transform="matrix(1,0,0,1,7.5,16)">
                    <g transform="matrix(1,0,0,1,-7.5,-16)">
                        <path d="M14.396,16.016C14.396,20.432 11.324,24.016 7.516,24.016C3.708,24.016 0.636,20.432 0.636,16.016C0.636,11.568 3.708,7.984 7.516,7.984C11.324,7.984 14.396,11.568 14.396,16.016ZM7.516,8.976C6.172,8.976 5.116,12.016 5.116,15.792C5.116,19.536 6.172,22.576 7.516,22.576C8.828,22.576 9.916,19.536 9.916,15.792C9.916,12.016 8.828,8.976 7.516,8.976Z" style="fill:rgb(34,34,34);fill-rule:nonzero;"/>
                    </g>
                </g>
                <g transform="matrix(1,0,0,1,26.5,16)">
                    <g transform="matrix(1,0,0,1,-5.5,-16)">
                        <path d="M0.768,15.6L3.84,8.592C3.968,8.304 4.096,7.984 4.416,7.984C4.448,7.984 4.512,8.016 4.576,8.016C5.056,8.08 5.632,8.112 6.24,8.112C6.656,8.112 7.456,7.984 7.904,7.984C8.352,8.016 8.544,8.208 8.544,8.72L8.544,21.904C8.544,22.448 9.12,23.024 9.568,23.024C10.048,23.024 10.048,23.504 10.048,23.504C10.048,23.504 10.048,24.016 9.536,24.016L2.72,24.016C2.304,24.016 2.016,23.856 2.016,23.504C2.016,23.12 2.336,23.024 2.56,23.024C3.232,23.024 3.968,22.544 3.968,21.808L3.968,13.552C3.968,13.36 3.904,13.104 3.776,13.104C3.712,13.104 3.584,13.2 3.456,13.424C3.104,14.032 1.728,16.24 1.728,16.24C1.728,16.24 1.6,16.528 1.28,16.528C1.248,16.528 1.12,16.496 0.992,16.464C0.736,16.368 0.64,16.176 0.64,16.016C0.64,15.792 0.768,15.6 0.768,15.6Z" style="fill:rgb(34,34,34);fill-rule:nonzero;"/>
                    </g>
                </g>
                <g transform="matrix(1,0,0,1,45,16)">
                    <g transform="matrix(1,0,0,1,-7,-16)">
                        <path d="M13.477,18.864C12.965,23.824 10.501,23.952 9.125,23.952C6.277,23.952 5.797,22.224 4.517,22.224C2.629,22.224 2.245,24.176 1.541,24.176C1.061,24.176 0.709,23.504 0.709,23.088L0.741,22.992C1.285,20.912 2.533,19.344 4.293,18.224C6.597,16.816 8.997,14.608 8.997,11.696C8.997,10.768 8.965,8.624 6.117,8.624C4.229,8.624 3.653,9.392 3.589,9.84C3.589,10.48 5.797,10.576 5.797,12.496C5.797,13.296 5.509,15.312 3.557,15.312C2.405,15.312 1.413,14.544 0.933,13.552C0.741,13.072 0.645,12.624 0.645,12.176C0.645,11.312 0.997,10.512 1.541,9.84C3.109,8.016 5.093,7.824 7.333,7.824C10.309,7.824 13.637,9.296 13.637,12.688C13.637,15.344 11.621,16.272 9.381,16.88C8.677,17.072 5.957,18.032 5.253,19.184C5.605,19.056 6.021,18.992 6.437,18.992C7.749,18.992 9.253,19.504 9.893,19.76C10.213,19.92 10.437,19.952 10.853,20.112C11.077,20.176 11.237,20.208 11.397,20.208C12.069,20.208 12.325,19.6 12.645,18.8L12.677,18.768C12.741,18.544 12.837,18.416 13.093,18.416C13.317,18.416 13.477,18.48 13.477,18.864Z" style="fill:rgb(34,34,34);fill-rule:nonzero;"/>
                    </g>
                </g>
                <g transform="matrix(1,0,0,1,64.5,16)">
                    <g transform="matrix(1,0,0,1,-6.5,-16)">
                        <path d="M6.814,8.032C8.158,8.128 12.158,8.992 12.158,11.936C12.158,13.408 11.486,14.24 10.206,14.848C9.918,15.008 9.566,15.04 9.214,15.136C9.118,15.168 9.086,15.296 9.086,15.424C9.086,15.488 9.086,15.52 9.118,15.584C9.182,15.712 9.278,15.712 9.438,15.744L10.494,16.032L11.166,16.416C11.486,16.608 11.742,16.832 11.934,17.088C12.542,17.792 12.766,18.4 12.83,19.328L12.83,19.552C12.83,22.368 9.566,24 6.398,24L6.11,24C2.974,23.936 0.702,22.976 0.638,20.48C0.638,19.776 0.798,19.008 1.342,18.528C1.726,18.112 2.334,17.792 2.878,17.696C3.006,17.664 3.102,17.664 3.23,17.664C4.606,17.664 5.534,18.624 5.534,19.968C5.502,20.896 4.798,21.376 4.798,22.08L4.798,22.24C4.83,22.72 5.438,22.72 5.694,22.752C5.726,22.752 5.854,22.784 5.982,22.784C6.686,22.784 8.414,22.4 8.414,19.008C8.414,18.592 8.126,16.096 4.446,16.096C4.19,16.096 3.646,16.096 3.646,15.712C3.646,15.36 4.094,15.2 4.414,15.168C6.43,15.072 8.318,14.144 8.318,11.776L8.318,11.552C8.318,10.784 8.062,9.088 5.342,9.088C5.054,9.088 4.062,9.344 3.998,9.888L3.998,10.016C3.998,10.464 4.478,10.4 4.638,10.464C4.798,10.528 5.598,10.592 5.694,11.776L5.694,12.032C5.694,13.088 4.99,14.112 3.582,14.112L3.422,14.112C1.438,13.984 0.83,12.576 0.83,11.52C0.83,9.824 3.582,8 6.334,8L6.462,8L6.686,8.032L6.814,8.032Z" style="fill:rgb(34,34,34);fill-rule:nonzero;"/>
                    </g>
                </g>
                <g transform="matrix(1,0,0,1,84.5,16)">
                    <g transform="matrix(1,0,0,1,-7.5,-16)">
                        <path d="M11.58,18.384L13.916,18.384C14.268,18.384 14.396,18.608 14.396,18.992C14.396,19.376 14.236,19.6 13.916,19.6L11.58,19.6L11.58,21.488C11.58,22.512 12.252,22.704 12.572,22.704C12.892,22.704 13.276,22.896 13.276,23.344C13.276,23.792 12.956,24.016 12.636,24.016L5.82,24.016C5.34,24.016 5.212,23.664 5.212,23.344C5.212,23.024 5.436,22.736 5.948,22.736C6.524,22.736 7.228,22.48 7.228,21.616L7.228,19.6L1.276,19.6C0.892,19.6 0.636,19.376 0.636,19.056C0.636,18.96 0.668,18.832 0.732,18.672L0.764,18.64L0.764,18.608L0.956,18.352C1.916,17.008 5.052,12.56 5.052,8.592C5.052,8.08 5.5,7.984 5.788,7.984C6.044,7.984 7.484,8.048 8.06,8.048C8.636,8.048 9.948,7.984 10.236,7.984C10.492,7.984 10.716,8.176 10.716,8.464L10.684,8.56C10.588,8.944 5.468,16.208 2.908,18.384L7.228,18.384L7.228,15.696C7.228,15.312 7.388,15.12 7.516,14.96L10.556,11.28C10.748,11.056 10.908,10.992 11.196,10.992C11.548,10.992 11.58,11.28 11.58,11.536L11.58,18.384Z" style="fill:rgb(34,34,34);fill-rule:nonzero;"/>
                    </g>
                </g>
                <g transform="matrix(1,0,0,1,104.5,16)">
                    <g transform="matrix(1,0,0,1,-6.5,-16)">
                        <path d="M2.437,14.032L2.437,14.16C2.437,14.256 2.437,14.384 2.565,14.384C2.597,14.384 2.661,14.384 2.725,14.352C3.749,13.744 5.125,13.424 6.981,13.424C9.893,13.424 12.261,15.792 12.261,18.704C12.261,21.584 10.149,23.952 6.309,23.952C2.373,23.952 0.645,22.64 0.645,19.984C0.645,19.792 0.645,19.6 0.677,19.408C0.773,18.288 1.477,17.04 3.205,17.04C4.581,17.04 5.701,18.128 5.701,19.536C5.701,20.432 5.221,21.232 4.485,21.68C4.325,21.776 4.101,21.904 4.101,22.128C4.133,22.352 4.325,22.48 4.485,22.576C4.709,22.672 4.965,22.672 5.221,22.672C6.053,22.672 7.941,22.224 7.941,18.704C7.941,15.152 5.733,14.544 4.645,14.544C3.557,14.544 2.789,15.28 2.469,15.6C2.117,15.952 2.085,16.24 1.765,16.24C1.445,16.24 1.125,16.176 1.125,15.76L1.125,15.696L1.477,8.592C1.509,8.336 1.669,8.048 2.245,8.048C2.789,8.112 5.541,8.368 6.565,8.368C7.589,8.368 10.085,8.08 10.501,8.08C10.853,8.08 10.949,8.336 10.949,8.752C10.949,9.264 10.789,11.824 6.341,11.824C5.029,11.824 3.525,11.6 3.205,11.536L3.077,11.536C2.789,11.536 2.629,11.696 2.597,11.952C2.565,12.24 2.437,14.032 2.437,14.032Z" style="fill:rgb(34,34,34);fill-rule:nonzero;"/>
                    </g>
                </g>
                <g transform="matrix(1,0,0,1,124,16)">
                    <g transform="matrix(1,0,0,1,-7,-16)">
                        <path d="M9.754,13.376C9.338,13.376 8.41,13.12 8.186,12.704C7.866,12.352 7.706,11.872 7.706,11.392C7.706,11.072 7.77,10.752 7.93,10.464C8.122,10.08 8.73,9.696 8.73,9.248C8.73,8.928 8.314,8.768 7.674,8.768C7.002,8.768 5.114,8.928 5.018,14.848C5.018,15.36 5.114,15.616 5.306,15.616C5.37,15.616 5.434,15.616 5.498,15.552C6.33,14.816 7.386,14.432 8.41,14.432C10.874,14.432 13.242,16.576 13.242,19.072C13.242,20.512 12.506,21.952 11.386,22.848C10.234,23.776 8.634,24 7.194,24C4.506,24 2.938,22.848 1.626,20.48C0.922,19.2 0.666,17.536 0.634,16.064L0.634,15.936C0.634,14.432 1.178,12.736 1.882,11.392C3.034,9.216 5.306,8.032 7.738,8C9.466,8 11.962,8.544 12.282,10.592C12.314,10.72 12.314,10.816 12.314,10.944C12.314,12.32 11.098,13.376 9.754,13.376ZM7.098,15.968C6.074,15.968 5.242,17.568 5.242,19.552C5.242,21.536 6.074,23.136 7.098,23.136C8.122,23.136 8.986,21.536 8.986,19.552C8.986,17.568 8.122,15.968 7.098,15.968Z" style="fill:rgb(34,34,34);fill-rule:nonzero;"/>
                    </g>
                </g>
                <g transform="matrix(1,0,0,1,144,16)">
                    <g transform="matrix(1,0,0,1,-7,-16)">
                        <path d="M13.479,9.456L13.479,9.584C13.479,12.88 9.671,17.456 9.671,22.8C9.671,23.728 9.479,23.984 9.159,23.984C8.839,23.984 7.335,23.696 6.535,23.696C5.735,23.696 5.031,23.984 4.455,23.984C3.847,23.984 3.847,23.664 3.847,22.992C3.847,21.744 4.839,19.888 6.055,18.48C7.975,16.208 10.439,14.416 10.439,13.52C10.407,13.328 10.343,13.232 10.215,13.232C10.151,13.232 10.023,13.296 9.927,13.36C9.671,13.552 9.223,14.032 8.327,14.032C6.471,14.032 4.935,11.632 3.655,11.632C2.215,11.632 1.799,13.488 1.479,14.288C1.351,14.64 1.255,14.928 0.999,14.928C0.679,14.928 0.647,14.416 0.647,14.416L0.647,9.136C0.647,8.848 0.807,8.752 0.967,8.752C1.127,8.752 1.287,8.848 1.351,8.976C1.511,9.296 1.927,9.744 2.183,9.744C2.407,9.712 2.599,9.584 3.047,9.168C3.495,8.752 3.975,8.016 5.831,8.016C8.487,8.016 9.991,10.736 10.791,10.736C11.591,10.736 12.039,8.912 12.263,8.528C12.391,8.304 12.903,8.176 12.935,8.176C13.479,8.176 13.479,8.592 13.479,9.456Z" style="fill:rgb(34,34,34);fill-rule:nonzero;"/>
                    </g>
                </g>
                <g transform="matrix(1,0,0,1,164,16)">
                    <g transform="matrix(1,0,0,1,-7,-16)">
                        <path d="M10.681,14.848C12.185,15.616 13.305,16.672 13.305,18.592C13.305,22.912 9.881,24.288 6.681,24.288C3.513,24.288 0.633,23.008 0.633,20.224C0.633,18.208 1.913,17.152 3.577,16.352C2.041,15.488 0.793,14.304 0.793,12.096C0.793,9.408 3.321,7.712 7.033,7.712C7.897,7.712 12.601,8.192 12.601,11.456C12.601,13.056 11.833,14.112 10.681,14.848ZM9.017,14.112C10.073,13.504 10.713,12.672 10.713,11.392C10.713,9.152 7.993,8.64 6.969,8.64C5.561,8.64 3.737,9.312 3.737,10.656C3.737,12.672 6.457,13.216 9.017,14.112ZM6.553,23.232C8.697,23.232 9.689,22.144 9.689,20.864C9.689,18.752 7.321,18.08 4.985,17.056C3.577,17.6 2.457,18.784 2.457,20.064C2.457,22.144 4.409,23.232 6.553,23.232Z" style="fill:rgb(34,34,34);fill-rule:nonzero;"/>
                    </g>
                </g>
                <g transform="matrix(1,0,0,1,184,16)">
                    <g transform="matrix(1,0,0,1,-7,-16)">
                        <path d="M4.122,18.624C4.538,18.624 5.466,18.88 5.69,19.296C6.01,19.648 6.17,20.128 6.17,20.608C6.17,20.928 6.106,21.248 5.946,21.536C5.754,21.92 5.146,22.304 5.146,22.752C5.146,23.072 5.562,23.232 6.202,23.232C6.874,23.232 8.762,23.072 8.858,17.152C8.858,16.64 8.762,16.384 8.57,16.384C8.506,16.384 8.442,16.384 8.378,16.448C7.546,17.184 6.49,17.568 5.466,17.568C3.002,17.568 0.634,15.424 0.634,12.928C0.634,11.488 1.37,10.048 2.49,9.152C3.642,8.224 5.242,8 6.682,8C9.37,8 10.938,9.152 12.25,11.52C12.954,12.8 13.21,14.464 13.242,15.936L13.242,16.064C13.242,17.568 12.698,19.264 11.994,20.608C10.842,22.784 8.57,23.968 6.138,24C4.41,24 1.914,23.456 1.594,21.408C1.562,21.28 1.562,21.184 1.562,21.056C1.562,19.68 2.778,18.624 4.122,18.624ZM6.777,16.032C7.801,16.032 8.633,14.432 8.633,12.448C8.633,10.464 7.801,8.864 6.777,8.864C5.753,8.864 4.889,10.464 4.889,12.448C4.889,14.432 5.753,16.032 6.777,16.032Z" style="fill:rgb(34,34,34);fill-rule:nonzero;"/>
                    </g>
                </g>
            </g>
        </g>
    </g>
</svg>
