<?xml version="1.0" encoding="UTF-8" standalone="no"?><!DOCTYPE svg PUBLIC "-//W3C//DTD SVG 1.1//EN" "http://www.w3.org/Graphics/SVG/1.1/DTD/svg11.dtd"><svg width="100%" height="100%" viewBox="0 0 2299 417" version="1.1" xmlns="http://www.w3.org/2000/svg" xmlns:xlink="http://www.w3.org/1999/xlink" xml:space="preserve" xmlns:serif="http://www.serif.com/" style="fill-rule:evenodd;clip-rule:evenodd;stroke-linejoin:round;stroke-miterlimit:2;"><g><g><path d="M1893.47,228.835c-0.651,0.325 -1.709,1.057 -2.319,1.708c-0.732,0.814 -8.054,18.59 -24.04,58.535c-12.651,31.525 -27.498,68.501 -32.949,82.168l-9.966,24.814l35.959,0.122c19.769,0.04 52.148,0.04 71.918,-0l35.958,-0.122l-14.481,-36.122c-10.413,-25.952 -14.684,-36.081 -15.132,-36.081c-0.569,0 -1.464,2.237 -6.671,16.759l-0.813,2.319l0.854,2.359c0.488,1.302 2.156,5.736 3.742,9.885c1.587,4.149 4.149,10.82 5.654,14.847l2.807,7.322l-23.959,0.122c-13.139,0.041 -34.698,0.041 -47.877,-0l-23.959,-0.122l0.935,-2.441c0.529,-1.342 2.156,-5.573 3.621,-9.356c1.423,-3.823 7.85,-20.664 14.277,-37.423c6.387,-16.8 12.61,-33.07 13.831,-36.203c1.22,-3.132 3.539,-9.274 5.206,-13.627c1.668,-4.352 4.272,-11.186 5.777,-15.132c1.952,-5.125 2.969,-7.281 3.539,-7.443c1.708,-0.57 2.237,0.122 4.433,5.938c1.18,3.133 2.278,5.777 2.441,5.858c0.163,0.122 0.773,-0.447 1.383,-1.261c1.586,-2.115 5.41,-5.817 7.241,-6.997c0.813,-0.528 1.505,-1.22 1.505,-1.464c-0,-0.244 -2.319,-6.224 -5.126,-13.261c-3.295,-8.217 -5.491,-13.22 -6.183,-13.993c-2.033,-2.156 -5.044,-2.847 -7.606,-1.708Z" style="fill:#afcfa4;fill-rule:nonzero;"/><path d="M1925.85,265.119c-7.932,2.115 -14.847,9.112 -16.922,17.085c-0.772,3.05 -0.772,9.071 0,12.121c1.302,4.922 5.288,10.739 9.356,13.546l1.18,0.854l-1.261,3.376c-0.732,1.871 -4.963,13.465 -9.478,25.79c-4.474,12.284 -8.502,23.267 -8.949,24.406c-0.447,1.099 -1.424,3.824 -2.197,5.98l-1.423,3.986l11.959,0l5.247,-14.359c2.888,-7.851 5.939,-16.23 6.834,-18.589c0.854,-2.36 3.458,-9.397 5.736,-15.661l4.189,-11.39l3.824,-0.244c7.485,-0.488 13.912,-4.23 18.02,-10.454c5.492,-8.339 5.492,-18.264 0,-26.603c-3.091,-4.719 -8.298,-8.461 -13.79,-9.885c-2.969,-0.773 -9.396,-0.773 -12.325,0.041Z" style="fill:#afcfa4;fill-rule:nonzero;"/></g><path id="surface1" d="M1238.06,251.735l0,121.53l43.405,-0l-0,-121.53l-43.405,0Zm78.125,0l0,121.53l43.405,-0l-0,-121.53l-43.405,0Z" style="fill:#afcfa4;fill-rule:nonzero;"/><path id="surface11" serif:id="surface1" d="M956.756,251.735l0,121.53l104.167,-60.765l-104.167,-60.765Z" style="fill:#afcfa4;fill-rule:nonzero;"/><path id="surface12" serif:id="surface1" d="M1640.89,225.694l-0,26.041l-95.486,0c-14.756,0 -26.041,11.286 -26.041,26.042l-0,59.142l17.36,-14.115l0,-45.027c0,-5.225 3.456,-8.679 8.681,-8.679l95.486,-0l-0,26.042l43.404,-34.723l-43.404,-34.723Zm34.723,62.396l-17.361,14.097l0,45.036c0,5.225 -3.456,8.679 -8.681,8.679l-95.485,0l-0,-26.042l-43.404,34.723l43.404,34.723l-0,-26.041l95.485,-0c14.756,-0 26.042,-11.286 26.042,-26.042l-0,-59.133Z" style="fill:#afcfa4;fill-rule:nonzero;"/><path id="surface13" serif:id="surface1" d="M710.176,251.735l-95.488,60.765l95.488,60.765l-0,-49.646l78.125,49.646l-0,-121.53l-78.125,49.646l-0,-49.646Z" style="fill:#afcfa4;fill-rule:nonzero;"/><path id="surface14" serif:id="surface1" d="M402.83,234.375l-52.083,52.083l-34.723,0l0,52.084l34.723,-0l52.083,52.083l0,-156.25Zm17.361,0.817l-0,17.36c29.498,4.34 52.083,29.567 52.083,59.948c0,30.381 -22.585,55.608 -52.083,59.948l-0,17.36c39.062,-4.339 69.446,-37.36 69.446,-77.308c-0,-39.948 -30.384,-72.969 -69.446,-77.308Zm-0,43.402l-0,67.006c15.287,-3.594 26.148,-17.398 26.042,-33.1c-0,-16.475 -11.284,-29.567 -26.042,-33.906Z" style="fill:#afcfa4;fill-rule:nonzero;"/><path id="surface15" serif:id="surface1" d="M104.167,234.375l-52.084,52.083l-34.723,0l0,52.084l34.723,-0l52.084,52.083l-0,-156.25Zm23.602,37.163l-12.492,12.489l24.419,24.142l-24.419,24.139l12.483,12.484l24.14,-24.419l24.142,24.419l12.483,-12.484l-24.419,-24.139l24.419,-24.142l-12.483,-12.5l-24.132,24.427l-24.141,-24.419l-0,0.002Z" style="fill:#cacaca;fill-opacity:0.6;fill-rule:nonzero;"/><g><path d="M2125.26,226.923c-2.969,1.546 -9.559,12.366 -12.203,20.095c-2.441,7.077 -3.051,11.104 -3.051,20.094c0,6.956 0.122,8.746 0.895,12.366c1.912,8.664 5.288,16.393 10.169,23.186c3.295,4.597 4.963,5.695 7.363,5.004c2.115,-0.651 3.336,-2.116 3.58,-4.231c0.162,-1.627 -0,-1.993 -2.278,-5.125c-4.76,-6.59 -8.258,-14.766 -9.559,-22.251c-0.855,-4.8 -0.814,-13.22 -0,-18.142c0.691,-4.027 2.806,-10.576 4.474,-13.871c1.22,-2.441 3.417,-5.857 5.736,-9.03c1.179,-1.627 1.749,-2.766 1.749,-3.661c-0.041,-3.58 -3.783,-6.02 -6.875,-4.434Z" style="fill:#afcfa4;fill-rule:nonzero;"/><path d="M2161.91,226.638c-2.156,0.529 -4.394,2.237 -5.329,4.149c-0.854,1.79 -0.854,2.034 -0.854,33.437c-0,33.315 0.04,34.088 1.911,39.701c1.872,5.573 6.224,12.285 10.617,16.353c4.434,4.027 11.308,7.81 16.271,8.908l2.115,0.488l0,27.01c0,24.732 -0.04,27.132 -0.691,28.311c-1.017,1.912 -0.936,6.143 0.163,8.217c1.789,3.376 4.759,5.247 8.46,5.247c4.678,0.041 8.543,-3.05 9.6,-7.647c0.448,-2.034 0.407,-2.522 -0.366,-4.922c-0.895,-2.603 -0.895,-3.132 -0.895,-29.41l0,-26.765l2.156,-0.529c1.139,-0.285 3.539,-1.139 5.248,-1.912c10.779,-4.678 18.955,-14.237 22.331,-25.993c0.936,-3.254 0.936,-3.295 1.058,-35.959l0.163,-32.664l-0.895,-1.83c-1.261,-2.603 -3.864,-4.19 -6.834,-4.19c-2.563,0 -5.044,0.976 -6.427,2.482c-2.197,2.399 -2.156,1.545 -2.156,34.453c0,29.003 -0.041,30.59 -0.813,33.6c-1.099,4.271 -2.888,7.444 -5.858,10.413c-3.051,3.092 -6.468,5.044 -10.617,6.102c-3.742,0.976 -6.305,1.017 -10.088,0.203c-7.647,-1.627 -14.115,-7.362 -17.084,-15.132c-0.854,-2.318 -0.895,-2.644 -1.099,-34.291c-0.203,-31.647 -0.203,-31.932 -1.057,-33.559c-0.488,-0.895 -1.22,-1.912 -1.627,-2.278c-1.953,-1.708 -5.085,-2.562 -7.403,-1.993Z" style="fill:#afcfa4;fill-rule:nonzero;"/><path d="M2260.8,226.679c-1.831,0.529 -3.377,2.522 -3.377,4.352c0.041,1.668 0.285,2.238 2.685,5.37c4.556,6.02 8.054,14.318 9.356,22.291c0.895,5.532 0.651,14.603 -0.57,19.81c-1.505,6.549 -4.189,12.61 -7.972,18.061c-1.139,1.627 -2.4,3.457 -2.766,4.067c-2.482,3.743 1.83,8.705 5.898,6.753c2.806,-1.302 9.233,-11.553 12,-19.159c0.691,-1.79 1.749,-5.451 2.359,-8.136c1.017,-4.434 1.139,-5.532 1.139,-12.772c-0,-6.712 -0.122,-8.583 -0.895,-12.204c-1.912,-8.745 -5.573,-17.125 -10.169,-23.43c-3.702,-4.963 -4.922,-5.776 -7.688,-5.003Z" style="fill:#afcfa4;fill-rule:nonzero;"/><path d="M2139.46,240.184c-1.628,0.569 -3.783,3.213 -5.858,7.2c-5.329,10.21 -6.183,22.901 -2.237,34.006c1.261,3.62 3.62,8.176 5.532,10.698c2.074,2.685 5.207,3.01 7.485,0.773c1.993,-2.034 1.789,-3.783 -1.058,-8.542c-6.915,-11.471 -6.59,-24.691 0.895,-36c2.644,-3.945 1.586,-7.403 -2.522,-8.42c-0.448,-0.081 -1.464,0.041 -2.237,0.285Z" style="fill:#afcfa4;fill-rule:nonzero;"/><path d="M2246.85,240.224c-1.871,0.611 -3.051,2.36 -3.01,4.434c-0,1.343 0.447,2.36 1.912,4.556c3.498,5.207 5.247,11.064 5.247,17.695c0,6.915 -1.668,12.772 -5.207,18.101c-2.318,3.539 -2.644,5.166 -1.301,7.119c1.912,2.806 5.613,2.969 7.85,0.366c2.97,-3.539 6.143,-10.536 7.363,-16.23c1.058,-4.841 1.058,-14.075 0,-18.509c-1.342,-5.816 -4.475,-12.488 -7.444,-15.986c-1.342,-1.627 -3.458,-2.196 -5.41,-1.546Z" style="fill:#afcfa4;fill-rule:nonzero;"/></g></g><g><path id="surface16" serif:id="surface1" d="M104.167,26.042l-52.084,52.083l-34.722,0l0,52.083l34.722,0l52.084,52.084l-0,-156.25Zm23.602,37.161l-12.491,12.491l24.418,24.141l-24.418,24.141l12.482,12.482l24.141,-24.418l24.141,24.418l12.482,-12.482l-24.418,-24.141l24.418,-24.141l-12.482,-12.5l-24.132,24.428l-24.141,-24.419Z" style="fill:#222;fill-rule:nonzero;"/><path id="surface17" serif:id="surface1" d="M402.83,26.042l-52.083,52.083l-34.722,0l-0,52.083l34.722,0l52.083,52.084l0,-156.25Zm17.362,0.816l-0,17.361c29.496,4.34 52.083,29.566 52.083,59.948c-0,30.382 -22.587,55.607 -52.083,59.948l-0,17.361c39.062,-4.341 69.444,-37.361 69.444,-77.309c0,-39.948 -30.382,-72.969 -69.444,-77.309Zm-0,43.402l-0,67.006c15.286,-3.593 26.147,-17.397 26.041,-33.099c0,-16.476 -11.284,-29.566 -26.041,-33.907Z" style="fill:#222;fill-rule:nonzero;"/><path id="surface18" serif:id="surface1" d="M710.175,43.403l-95.486,60.764l95.486,60.764l-0,-49.645l78.125,49.645l-0,-121.528l-78.125,49.644l-0,-49.644Z" style="fill:#222;fill-rule:nonzero;"/><path id="surface19" serif:id="surface1" d="M956.755,43.403l0,121.528l104.167,-60.764l-104.167,-60.764Z" style="fill:#222;fill-rule:nonzero;"/><path id="surface110" serif:id="surface1" d="M1238.06,43.403l0,121.528l43.403,-0l-0,-121.528l-43.403,-0Zm78.125,-0l0,121.528l43.403,-0l-0,-121.528l-43.403,-0Z" style="fill:#222;fill-rule:nonzero;"/><path id="surface111" serif:id="surface1" d="M1640.89,17.361l-0,26.042l-95.487,-0c-14.757,-0 -26.041,11.285 -26.041,26.041l-0,59.141l17.361,-14.115l-0,-45.026c-0,-5.225 3.455,-8.68 8.68,-8.68l95.487,-0l-0,26.042l43.402,-34.723l-43.402,-34.722Zm34.722,62.396l-17.361,14.097l-0,45.035c-0,5.226 -3.455,8.68 -8.681,8.68l-95.486,0l-0,-26.041l-43.403,34.722l43.403,34.722l-0,-26.041l95.486,-0c14.757,-0 26.042,-11.285 26.042,-26.042l-0,-59.132Z" style="fill:#222;fill-rule:nonzero;"/><g><path d="M1893.51,20.508c-0.651,0.325 -1.709,1.058 -2.32,1.709c-0.732,0.814 -8.056,18.595 -24.047,58.553c-12.655,31.535 -27.507,68.522 -32.959,82.194l-9.97,24.821l35.971,0.122c19.775,0.041 52.164,0.041 71.94,-0l35.97,-0.122l-14.486,-36.133c-10.417,-25.96 -14.689,-36.092 -15.137,-36.092c-0.569,-0 -1.465,2.238 -6.673,16.764l-0.814,2.32l0.855,2.36c0.488,1.302 2.156,5.737 3.743,9.887c1.587,4.151 4.151,10.824 5.656,14.852l2.808,7.324l-23.967,0.122c-13.143,0.041 -34.708,0.041 -47.892,0l-23.966,-0.122l0.936,-2.441c0.528,-1.343 2.156,-5.575 3.621,-9.359c1.424,-3.825 7.853,-20.67 14.282,-37.435c6.389,-16.805 12.614,-33.081 13.835,-36.214c1.221,-3.133 3.54,-9.277 5.208,-13.631c1.668,-4.354 4.273,-11.19 5.778,-15.137c1.953,-5.127 2.971,-7.283 3.54,-7.446c1.709,-0.57 2.238,0.122 4.435,5.941c1.18,3.133 2.279,5.778 2.442,5.859c0.163,0.122 0.773,-0.447 1.383,-1.261c1.587,-2.116 5.412,-5.819 7.243,-6.999c0.814,-0.529 1.506,-1.221 1.506,-1.465c-0,-0.244 -2.32,-6.225 -5.127,-13.265c-3.296,-8.219 -5.493,-13.224 -6.185,-13.997c-2.035,-2.157 -5.046,-2.849 -7.609,-1.709Z" style="fill:#222;fill-rule:nonzero;"/><path d="M1925.89,56.803c-7.935,2.116 -14.852,9.115 -16.927,17.09c-0.773,3.052 -0.773,9.074 -0,12.126c1.302,4.923 5.29,10.742 9.359,13.55l1.18,0.854l-1.262,3.377c-0.732,1.872 -4.964,13.469 -9.48,25.798c-4.476,12.288 -8.505,23.275 -8.952,24.414c-0.448,1.099 -1.424,3.825 -2.198,5.981l-1.424,3.988l11.963,0l5.249,-14.363c2.889,-7.854 5.941,-16.236 6.836,-18.596c0.855,-2.36 3.459,-9.399 5.737,-15.666l4.192,-11.393l3.824,-0.244c7.487,-0.488 13.916,-4.232 18.026,-10.457c5.493,-8.342 5.493,-18.27 0,-26.612c-3.092,-4.72 -8.301,-8.463 -13.794,-9.887c-2.97,-0.773 -9.399,-0.773 -12.329,0.04Z" style="fill:#222;fill-rule:nonzero;"/></g><g><path d="M2125.27,18.595c-2.97,1.547 -9.562,12.37 -12.207,20.101c-2.441,7.08 -3.052,11.109 -3.052,20.101c0,6.958 0.122,8.749 0.895,12.37c1.913,8.667 5.29,16.398 10.173,23.193c3.296,4.598 4.964,5.697 7.365,5.005c2.116,-0.651 3.336,-2.116 3.581,-4.232c0.162,-1.627 -0,-1.993 -2.279,-5.126c-4.761,-6.592 -8.26,-14.771 -9.562,-22.258c-0.855,-4.801 -0.814,-13.224 -0,-18.148c0.691,-4.028 2.807,-10.579 4.476,-13.875c1.22,-2.441 3.418,-5.859 5.737,-9.033c1.18,-1.628 1.75,-2.767 1.75,-3.662c-0.041,-3.581 -3.785,-6.023 -6.877,-4.436Z" style="fill:#222;fill-rule:nonzero;"/><path d="M2161.94,18.311c-2.157,0.529 -4.395,2.238 -5.331,4.15c-0.854,1.79 -0.854,2.034 -0.854,33.447c-0,33.325 0.041,34.099 1.912,39.714c1.872,5.574 6.226,12.288 10.62,16.357c4.436,4.028 11.312,7.813 16.277,8.911l2.115,0.489l0,27.018c0,24.739 -0.04,27.14 -0.691,28.32c-1.018,1.913 -0.936,6.144 0.162,8.22c1.791,3.377 4.761,5.249 8.464,5.249c4.679,0.04 8.545,-3.052 9.603,-7.65c0.447,-2.035 0.407,-2.523 -0.366,-4.924c-0.896,-2.604 -0.896,-3.133 -0.896,-29.419l0,-26.774l2.157,-0.529c1.139,-0.285 3.54,-1.139 5.249,-1.912c10.783,-4.679 18.962,-14.242 22.339,-26.001c0.936,-3.255 0.936,-3.296 1.058,-35.97l0.163,-32.674l-0.896,-1.831c-1.261,-2.605 -3.865,-4.191 -6.836,-4.191c-2.563,-0 -5.045,0.976 -6.429,2.482c-2.197,2.4 -2.156,1.546 -2.156,34.464c-0,29.012 -0.041,30.599 -0.814,33.61c-1.099,4.273 -2.889,7.446 -5.859,10.417c-3.052,3.092 -6.47,5.045 -10.62,6.103c-3.744,0.977 -6.307,1.018 -10.092,0.204c-7.649,-1.628 -14.119,-7.365 -17.089,-15.137c-0.855,-2.319 -0.896,-2.645 -1.099,-34.302c-0.203,-31.657 -0.203,-31.941 -1.058,-33.569c-0.488,-0.895 -1.221,-1.912 -1.628,-2.279c-1.953,-1.709 -5.086,-2.563 -7.405,-1.993Z" style="fill:#222;fill-rule:nonzero;"/><path d="M2260.85,18.351c-1.831,0.529 -3.377,2.523 -3.377,4.354c0.041,1.668 0.285,2.238 2.686,5.371c4.557,6.022 8.056,14.323 9.358,22.298c0.896,5.534 0.651,14.608 -0.569,19.816c-1.506,6.552 -4.191,12.614 -7.975,18.067c-1.14,1.627 -2.401,3.458 -2.767,4.069c-2.483,3.743 1.831,8.708 5.9,6.754c2.807,-1.302 9.236,-11.556 12.003,-19.165c0.692,-1.79 1.75,-5.452 2.36,-8.138c1.018,-4.435 1.14,-5.534 1.14,-12.776c-0,-6.714 -0.122,-8.586 -0.896,-12.207c-1.912,-8.749 -5.574,-17.131 -10.172,-23.438c-3.703,-4.964 -4.924,-5.778 -7.691,-5.005Z" style="fill:#222;fill-rule:nonzero;"/><path d="M2139.47,31.86c-1.628,0.57 -3.784,3.215 -5.86,7.203c-5.33,10.213 -6.184,22.908 -2.237,34.016c1.261,3.622 3.621,8.179 5.533,10.702c2.076,2.685 5.209,3.011 7.487,0.773c1.994,-2.034 1.791,-3.784 -1.058,-8.545c-6.917,-11.474 -6.591,-24.699 0.896,-36.011c2.644,-3.947 1.587,-7.405 -2.523,-8.422c-0.448,-0.082 -1.465,0.04 -2.238,0.284Z" style="fill:#222;fill-rule:nonzero;"/><path d="M2246.9,31.901c-1.872,0.61 -3.052,2.36 -3.011,4.435c-0,1.343 0.447,2.36 1.912,4.558c3.499,5.208 5.249,11.067 5.249,17.7c0,6.917 -1.668,12.776 -5.208,18.107c-2.32,3.54 -2.645,5.167 -1.302,7.121c1.912,2.807 5.615,2.97 7.853,0.366c2.97,-3.54 6.144,-10.539 7.365,-16.236c1.058,-4.842 1.058,-14.078 -0,-18.514c-1.343,-5.818 -4.476,-12.491 -7.446,-15.991c-1.343,-1.627 -3.459,-2.197 -5.412,-1.546Z" style="fill:#222;fill-rule:nonzero;"/></g></g></svg>