<?xml version="1.0" encoding="UTF-8" standalone="no"?><!DOCTYPE svg PUBLIC "-//W3C//DTD SVG 1.1//EN" "http://www.w3.org/Graphics/SVG/1.1/DTD/svg11.dtd"><svg width="100%" height="100%" viewBox="0 0 8313 8313" version="1.1" xmlns="http://www.w3.org/2000/svg" xmlns:xlink="http://www.w3.org/1999/xlink" xml:space="preserve" style="fill-rule:evenodd;clip-rule:evenodd;stroke-linejoin:round;stroke-miterlimit:2;"><path d="M7421.88,3484.29c30.833,-195.105 50.071,-409.03 54.913,-648.905c-1.859,-1028.58 -494.234,-1392.54 -588.975,-1563.16c139.533,-779.338 -23.109,-1133.84 -98.75,-1255.19c-278.992,-99.025 -970.659,255.592 -1348.58,505.229c-616.163,-180.366 -1918.3,-162.762 -2406.62,46.684c-900.971,-645.142 -1377.5,-546.771 -1377.5,-546.771c-0,-0 -308.071,552.429 -81.442,1360.61c-296.437,377.759 -517.391,644.842 -517.391,1353.28c-0,169.671 10.537,330 28.416,484.255c255.296,1342.32 1318.92,1921.42 2363.72,2021.28c-157.221,119.462 -345.971,345.537 -372.083,607.5c-197.555,127.729 -594.93,169.95 -903.942,72.796c-432.967,-136.805 -598.717,-994.2 -1247.1,-871.892c-140.296,26.25 -112.413,118.783 9.079,197.675c197.538,128.125 383.579,287.396 526.979,628.208c110.138,261.671 341.788,728.854 1074.18,728.854c290.75,0 494.391,-34.354 494.391,-34.354c0,0 5.542,666.771 5.542,926.821c-0,299.271 -403.892,383.3 -403.892,526.875c0,57.1 133.684,62.517 241.113,62.517c212.308,-0 654.046,-176.838 654.046,-487.896c-0,-247.171 3.941,-1077.8 3.941,-1223.27c0,-317.829 170.329,-419.025 170.329,-419.025c0,0 20.85,1696.65 -40.991,1924.11c-72.517,267.5 -203.888,229.496 -203.888,348.542c0,177.658 531.059,43.437 707.204,-345.434c136.267,-303.733 75.242,-1967.55 75.242,-1967.55l142.067,-3.088c-0,0 1.633,762.013 -3.263,1110.14c-5.121,360.575 -42.325,816.408 171.842,1031.55c140.571,141.492 571.229,389.775 571.229,162.883c0,-131.496 -301.579,-240.158 -301.579,-596.408l-0,-1641.11c183.212,0 221.079,539.446 221.079,539.446l66.042,1002.2c-0,0 -43.854,365.713 395.066,518.334c154.95,54.271 486.425,69.029 501.963,-22.067c15.575,-91.317 -399.133,-226.354 -403.071,-509.408c-2.137,-172.396 7.725,-273.3 7.725,-1023.16c0,-749.445 -100.679,-1026.69 -451.512,-1247.62c1017.38,-104.408 2074.1,-558.766 2264.46,-1753.47Z" style="fill:#d78d72;fill-rule:nonzero;"/></svg>