<?xml version="1.0" encoding="UTF-8" standalone="no"?><!DOCTYPE svg PUBLIC "-//W3C//DTD SVG 1.1//EN" "http://www.w3.org/Graphics/SVG/1.1/DTD/svg11.dtd"><svg width="100%" height="100%" viewBox="0 0 7967 7967" version="1.1" xmlns="http://www.w3.org/2000/svg" xmlns:xlink="http://www.w3.org/1999/xlink" xml:space="preserve" style="fill-rule:evenodd;clip-rule:evenodd;stroke-linejoin:round;stroke-miterlimit:2;"><path d="M7026.92,0.471l-6059.38,-0.004c-521.996,0.004 -967.55,490.333 -967.55,1010.73l-0,6063.29c-0,520.225 445.554,891.512 967.554,891.512l6059.38,0c521.979,0 939.533,-371.287 939.533,-891.512l0,-6063.29c0,-520.396 -417.554,-1010.73 -939.533,-1010.73l-0.004,-0.004Zm-187.413,1137.9c151.025,-0 273.475,122.45 273.475,273.475l0,875.625c0,151.025 -122.45,273.471 -273.475,273.471l-875.746,-0c-151.025,-0 -273.471,-122.446 -273.471,-273.471l0,-875.625c0,-151.025 122.446,-273.475 273.471,-273.475l875.746,-0Zm-2833.05,1388.88c844.288,-0 1528.65,682.879 1528.65,1524.86c-0,842.117 -684.358,1524.98 -1528.65,1524.98c-844.133,0 -1528.65,-682.862 -1528.65,-1524.98c0,-841.979 684.496,-1524.86 1528.65,-1524.86l0,0.004Zm3106.53,4343.88c0,122.325 -130.021,241.525 -252.762,241.525l-5707.29,-0c-122.692,-0 -299.408,-119.2 -299.408,-241.525l-0,-3456.83l820.866,-0c-55.887,284.566 -86.041,417.275 -86.041,637.812c-0,1330.16 1084.7,2412.05 2418.11,2412.05c1333.53,0 2418.26,-1082.15 2418.26,-2412.31c-0,-220.279 -30.175,-352.988 -85.78,-637.554l774.063,-0l-0,3456.83l-0.017,-0Z" style="fill:#d78d72;fill-rule:nonzero;"/></svg>