<?xml version="1.0" encoding="UTF-8" standalone="no"?><!DOCTYPE svg PUBLIC "-//W3C//DTD SVG 1.1//EN" "http://www.w3.org/Graphics/SVG/1.1/DTD/svg11.dtd"><svg width="100%" height="100%" viewBox="0 0 7825 7825" version="1.1" xmlns="http://www.w3.org/2000/svg" xmlns:xlink="http://www.w3.org/1999/xlink" xml:space="preserve" style="fill-rule:evenodd;clip-rule:evenodd;stroke-linejoin:round;stroke-miterlimit:2;"><path d="M7799.04,1604.03c29.962,-36.233 32.358,-87.9 5.937,-126.771c-26.441,-38.891 -75.416,-55.712 -120.104,-41.146c-207.483,67.638 -423.525,115.713 -646.458,142.775c265.85,-160.833 485.17,-392.254 631.612,-668.662c21.425,-40.433 14.392,-90.067 -17.412,-122.95c-31.805,-32.9 -81.163,-41.563 -122.309,-21.546c-258.629,125.85 -535.225,220.208 -825.158,277.763c-311.7,-334.725 -755.363,-543.909 -1246.67,-543.909c-942.896,0 -1707.76,771.217 -1707.76,1722.66c-0,134.771 15.154,266.145 44.496,392.516c-1290.83,-65.471 -2448.93,-638.804 -3281.51,-1526.13c-57.554,-61.354 -143.491,-87.292 -225.366,-68.075c-81.892,19.221 -147.396,80.663 -171.579,161.25c-47.38,158.004 -72.934,325.608 -72.934,499.117c0,598.004 264.513,1125.15 722.654,1434.06c-123.695,-3.991 -296.354,-42.325 -450.537,-83.804c-86.008,-23.142 -177.846,1.146 -241.129,63.854c-63.263,62.692 -88.229,154.238 -65.954,240.471c166.041,642.758 706.72,1143.63 1354.3,1274.86c-143.696,39.495 -275.746,60.45 -431.596,60.45l-0.154,-0c-69.829,-0 -134.429,37.1 -169.584,97.429c-35.158,60.35 -35.487,134.742 -1.095,195.521c289.862,512.5 835.416,861.112 1458.64,872.954c-584.512,461.787 -1318.77,736.979 -2118.56,736.979l-1.475,0c-45.592,-0.021 -85.329,31.021 -96.354,75.258c-11.025,44.255 9.529,90.279 49.792,111.684c675.016,358.854 1444.11,563.058 2260.1,563.058c3141.03,0 4859.08,-2625.28 4859.08,-4901.58c0,-74.963 -1.633,-148.696 -4.879,-222.846c234.254,-170.867 446.912,-371.321 631.929,-595.242l0.013,0Z" style="fill:#d78d72;fill-rule:nonzero;"/></svg>