<?xml version="1.0" encoding="UTF-8" standalone="no"?>
<!DOCTYPE svg PUBLIC "-//W3C//DTD SVG 1.1//EN" "http://www.w3.org/Graphics/SVG/1.1/DTD/svg11.dtd">
<svg width="100%" height="100%" viewBox="0 0 344 32" version="1.1" xmlns="http://www.w3.org/2000/svg" xmlns:xlink="http://www.w3.org/1999/xlink" xml:space="preserve" xmlns:serif="http://www.serif.com/" style="fill-rule:evenodd;clip-rule:evenodd;stroke-linejoin:round;stroke-miterlimit:2;">
    <g transform="matrix(1,0,0,1,4.5,16)">
        <g transform="matrix(1,0,0,1,-4.5,-16)">
            <path d="M6.074,10.304L6.554,10.144C6.586,10.112 6.65,10.112 6.682,10.112C6.81,10.112 6.938,10.208 6.938,10.368L6.938,26.432C6.938,26.656 6.746,26.816 6.554,26.816L6.138,26.816C5.914,26.816 5.754,26.656 5.754,26.432L5.754,21.664C5.754,21.408 5.53,21.312 5.21,21.312C4.282,21.312 2.49,22.08 2.042,22.272C2.01,22.304 1.946,22.304 1.914,22.304L1.85,22.336C1.658,22.336 1.562,22.24 1.562,22.048L1.562,5.568C1.562,5.344 1.722,5.184 1.946,5.184L2.362,5.184C2.554,5.184 2.746,5.344 2.746,5.568L2.746,10.912C2.746,11.04 2.874,11.072 3.066,11.072C3.898,11.072 5.946,10.336 5.946,10.336C5.978,10.336 6.01,10.304 6.074,10.304ZM2.746,14.848L2.746,18.144C2.746,18.272 2.906,18.336 3.13,18.336C3.93,18.336 5.754,17.6 5.754,17.024L5.754,13.728C5.754,13.6 5.658,13.568 5.466,13.568C4.698,13.568 2.746,14.4 2.746,14.848Z" style="fill:rgb(34,34,34);fill-rule:nonzero;"/>
        </g>
    </g>
    <g transform="matrix(1,0,0,1,31,16)">
        <g transform="matrix(1,0,0,1,-4,-16)">
            <clipPath id="_clip1">
                <rect x="0" y="0" width="8" height="32"/>
            </clipPath>
            <g clip-path="url(#_clip1)">
                <path d="M7.584,12.256L6.752,12.576C6.496,12.672 6.336,13.28 6.336,13.504L6.336,16.48C6.336,16.864 6.56,17.056 6.752,17.056L7.584,16.736C7.648,16.704 7.68,16.704 7.744,16.704C7.872,16.704 7.968,16.8 7.968,16.96L7.968,19.232C7.968,19.424 7.808,19.68 7.584,19.776C7.584,19.776 6.912,20.032 6.688,20.128C6.464,20.224 6.336,20.608 6.336,20.864L6.336,25.408C6.336,25.6 6.144,25.76 5.792,25.76C5.568,25.76 5.376,25.6 5.376,25.408L5.376,21.408C5.376,21.216 5.216,20.832 4.928,20.832L4.864,20.864L4.832,20.864L2.88,21.664C2.72,21.728 2.56,21.952 2.56,22.368L2.56,26.816C2.56,27.008 2.336,27.168 2.016,27.168C1.792,27.168 1.6,27.008 1.6,26.816L1.6,22.88C1.6,22.72 1.44,22.368 1.216,22.368C1.184,22.368 1.152,22.368 1.12,22.4C0.832,22.496 0.384,22.688 0.352,22.688L0.288,22.72C0.096,22.72 -0,22.624 -0,22.432L-0,20.16C-0,19.968 0.16,19.712 0.384,19.648C0.384,19.648 1.056,19.36 1.248,19.296C1.44,19.2 1.6,18.912 1.6,18.56L1.6,15.392C1.6,15.136 1.408,14.816 1.152,14.816L1.12,14.848C0.864,14.976 0.384,15.168 0.352,15.168L0.288,15.2C0.096,15.2 -0,15.104 -0,14.912L-0,12.64C-0,12.448 0.16,12.192 0.384,12.128C0.384,12.128 1.024,11.872 1.216,11.776C1.408,11.68 1.6,11.36 1.6,10.912L1.6,6.592C1.6,6.4 1.792,6.24 2.112,6.24C2.336,6.24 2.56,6.4 2.56,6.592L2.56,10.432C2.56,10.688 2.656,11.072 2.944,11.072C3.488,10.944 4.576,10.496 4.96,10.272C5.248,10.08 5.344,9.664 5.376,9.344L5.376,5.184C5.376,4.992 5.568,4.832 5.888,4.832C6.144,4.832 6.336,4.992 6.336,5.184L6.336,9.088C6.336,9.344 6.56,9.504 6.784,9.504C6.944,9.472 7.584,9.216 7.584,9.216C7.648,9.184 7.68,9.184 7.744,9.184C7.872,9.184 7.968,9.28 7.968,9.44L7.968,11.712C7.968,11.904 7.808,12.16 7.584,12.256ZM5.376,17.472C5.44,17.184 5.504,16.288 5.504,15.424C5.504,14.56 5.44,13.76 5.376,13.6C5.312,13.472 5.12,13.408 4.896,13.408C4.096,13.408 2.624,14.08 2.56,14.624C2.496,14.88 2.464,16 2.464,16.992C2.464,17.76 2.496,18.464 2.56,18.592C2.592,18.688 2.752,18.752 2.944,18.752C3.68,18.752 5.184,18.112 5.376,17.472Z" style="fill:rgb(34,34,34);fill-rule:nonzero;"/>
            </g>
        </g>
    </g>
    <g transform="matrix(1,0,0,1,61,16)">
        <g transform="matrix(1,0,0,1,-4,-16)">
            <path d="M6.128,17.056L6.448,17.056C6.992,17.056 7.568,17.12 7.728,17.28C7.856,17.44 7.952,18.016 7.952,18.56C7.952,19.712 7.728,20.032 6.512,20.032C5.968,20.032 5.456,19.904 5.232,19.712C5.104,19.616 5.072,19.072 5.072,18.496C4.944,18.048 4.4,17.024 3.984,17.024C3.568,17.024 3.184,17.92 2.992,18.368C2.96,18.4 2.928,18.464 2.928,18.496C2.928,19.008 2.864,19.552 2.672,19.712C2.48,19.936 1.968,20.032 1.488,20.032C0.944,20.032 0.432,19.904 0.208,19.712C0.112,19.648 0.048,19.072 0.048,18.496C0.048,17.92 0.112,17.376 0.208,17.28C0.4,17.12 1.008,17.056 1.584,17.056L1.904,17.056C2.352,16.896 3.376,16.384 3.376,15.968C3.376,15.744 2.224,15.104 1.872,14.912C1.776,14.912 1.68,14.944 1.552,14.944C1.008,14.944 0.432,14.816 0.208,14.624C0.112,14.528 0.048,13.952 0.048,13.376C0.048,12.8 0.112,12.256 0.208,12.192C0.4,12.032 0.976,11.968 1.52,11.968C2.032,11.968 2.544,12.032 2.672,12.192C2.832,12.32 2.928,12.896 2.928,13.44C3.056,13.888 3.568,14.944 4.016,14.944C4.4,14.944 4.912,13.792 5.072,13.44C5.072,12.864 5.104,12.288 5.232,12.192C5.392,12.032 5.968,11.968 6.544,11.968C7.856,11.968 7.952,12.16 7.952,13.472C7.952,13.984 7.888,14.464 7.728,14.624C7.408,14.88 6.8,14.944 6.416,14.944L6.224,14.912L6.128,14.912C5.68,15.072 4.624,15.552 4.624,16C4.624,16.224 5.776,16.864 6.128,17.056Z" style="fill:rgb(34,34,34);fill-rule:nonzero;"/>
        </g>
    </g>
    <g transform="matrix(1,0,0,1,241.5,16)">
        <g transform="matrix(1,0,0,1,-6.5,-16)">
            <clipPath id="_clip2">
                <rect x="0" y="0" width="13" height="32"/>
            </clipPath>
            <g clip-path="url(#_clip2)">
                <path d="M10.081,15.36L10.273,15.36C11.777,15.392 13.185,16.576 13.185,18.368C13.185,19.84 12.161,21.792 9.281,23.808C8.545,24.32 7.777,25.216 6.785,25.728C6.785,25.728 6.689,25.792 6.593,25.792C6.529,25.792 6.433,25.76 6.337,25.632C6.241,25.536 6.177,23.712 6.113,21.312C5.505,22.08 4.609,22.944 3.425,23.776C2.689,24.32 1.889,25.216 0.897,25.728C0.897,25.728 0.801,25.792 0.705,25.792C0.609,25.792 0.513,25.76 0.417,25.632C0.193,25.344 0.033,7.04 0.033,7.04C0.065,6.496 0.577,6.208 1.025,6.208C1.345,6.208 1.633,6.368 1.633,6.72C1.633,7.328 1.409,15.04 1.409,15.712C1.409,15.968 1.537,16.192 1.761,16.256C1.825,16.288 1.857,16.288 1.921,16.288C2.209,16.288 2.433,16 2.689,15.872C3.201,15.584 3.585,15.36 4.193,15.36L4.385,15.36C4.993,15.36 5.537,15.552 6.017,15.872C5.953,11.424 5.921,7.04 5.921,7.04C5.985,6.496 6.497,6.208 6.913,6.208C7.233,6.208 7.521,6.368 7.521,6.72C7.521,7.328 7.329,15.04 7.329,15.712C7.329,15.968 7.425,16.192 7.649,16.256C7.681,16.288 7.745,16.288 7.809,16.288C8.097,16.288 8.353,16 8.577,15.872C9.089,15.584 9.505,15.36 10.081,15.36ZM2.177,23.168C3.617,22.272 5.057,20.672 5.057,18.88C5.057,18.08 4.737,16.992 3.777,16.992C3.009,16.992 1.697,17.952 1.505,18.592C1.473,18.72 1.441,19.104 1.441,19.616C1.441,20.864 1.537,22.752 1.537,22.752C1.537,22.944 1.633,23.264 1.889,23.264C1.953,23.264 2.081,23.232 2.177,23.168ZM8.065,23.168C9.505,22.272 10.913,20.672 10.913,18.88C10.913,18.24 10.721,17.696 10.433,17.312C10.241,17.088 9.985,16.992 9.665,16.992C8.897,16.992 7.553,17.952 7.361,18.592C7.329,18.688 7.329,18.976 7.329,19.328C7.329,20.544 7.425,22.752 7.425,22.752C7.425,22.944 7.521,23.264 7.777,23.264C7.841,23.264 7.937,23.232 8.065,23.168Z" style="fill:rgb(34,34,34);fill-rule:nonzero;"/>
            </g>
        </g>
    </g>
    <g transform="matrix(1,0,0,1,221.5,16)">
        <g transform="matrix(1,0,0,1,-7.5,-16)">
            <path d="M8.045,25.664C7.789,25.344 7.661,7.072 7.661,7.072C7.693,6.496 8.237,6.176 8.685,6.176C9.005,6.176 9.293,6.336 9.293,6.72L9.037,15.744C9.037,16 9.165,16.224 9.389,16.288C9.453,16.32 9.485,16.32 9.549,16.32C9.805,16.32 10.029,16.032 10.285,15.872C10.637,15.648 10.989,15.52 11.373,15.392C11.597,15.36 11.789,15.328 12.013,15.328C13.453,15.392 14.893,16.576 14.893,18.368C14.893,19.872 13.869,21.824 11.021,23.808C10.285,24.352 9.485,25.248 8.525,25.76C8.525,25.76 8.429,25.824 8.333,25.824C8.237,25.824 8.141,25.792 8.045,25.664ZM6.413,25.76C5.421,25.248 4.653,24.352 3.917,23.84C1.037,21.824 0.013,19.872 0.013,18.368C0.013,16.608 1.421,15.392 2.925,15.328C3.149,15.328 3.341,15.36 3.597,15.392L3.629,15.424C3.981,15.552 4.333,15.68 4.653,15.872C4.909,16.032 5.133,16.32 5.389,16.32C5.453,16.32 5.485,16.32 5.549,16.288C5.773,16.224 5.901,16 5.901,15.744L5.645,6.72C5.645,6.368 5.933,6.208 6.253,6.208C6.701,6.208 7.245,6.496 7.277,7.072C7.277,7.072 7.117,25.344 6.861,25.664C6.765,25.792 6.637,25.824 6.573,25.824C6.477,25.824 6.413,25.76 6.413,25.76ZM5.805,18.624C5.677,18.176 4.845,17.504 4.397,17.248C4.077,17.088 3.821,17.024 3.565,17.024C3.245,17.024 2.957,17.152 2.733,17.376C2.445,17.728 2.253,18.272 2.253,18.88C2.253,20.672 3.661,22.272 5.101,23.2C5.229,23.264 5.325,23.296 5.421,23.296C5.709,23.296 5.773,22.976 5.773,22.784C5.773,22.784 5.869,20.896 5.869,19.648C5.869,19.136 5.837,18.752 5.805,18.624ZM9.165,22.784C9.165,22.976 9.261,23.296 9.517,23.296C9.613,23.296 9.677,23.264 9.805,23.2C11.277,22.24 12.653,20.736 12.653,18.88C12.653,18.08 12.365,17.024 11.405,17.024C10.637,17.024 9.325,17.952 9.133,18.624C9.101,18.752 9.069,19.136 9.069,19.648C9.069,20.896 9.165,22.784 9.165,22.784Z" style="fill:rgb(34,34,34);fill-rule:nonzero;"/>
        </g>
    </g>
    <g transform="matrix(1,0,0,1,18,16)">
        <g transform="matrix(1,0,0,1,-3,-16)">
            <clipPath id="_clip3">
                <rect x="0" y="0" width="6" height="32"/>
            </clipPath>
            <g clip-path="url(#_clip3)">
                <path d="M5.723,9.92L5.723,12.192C5.723,12.416 5.531,12.64 5.339,12.736C5.339,12.736 3.995,13.248 3.707,13.376C3.451,13.472 3.291,14.048 3.291,14.304L3.291,17.28C3.291,17.632 3.515,17.824 3.739,17.824C3.867,17.792 5.339,17.184 5.339,17.184L5.339,17.216L5.371,17.216L5.435,17.184C5.627,17.184 5.723,17.28 5.723,17.472L5.723,19.744C5.723,19.936 5.531,20.192 5.339,20.256C5.339,20.256 3.899,20.832 3.643,20.896C3.515,20.96 3.387,21.152 3.355,21.344C3.323,21.44 3.323,21.504 3.323,21.6L3.323,26.016C3.323,26.336 3.259,26.56 2.779,26.56C2.523,26.56 2.331,26.4 2.331,26.208L2.331,22.208C2.331,21.952 2.043,21.536 1.883,21.6C1.595,21.728 0.379,22.24 0.347,22.24L0.283,22.272C0.091,22.272 -0.005,22.176 -0.005,21.984L-0.005,19.712C-0.005,19.52 0.187,19.264 0.379,19.2L2.043,18.496C2.235,18.432 2.363,18.144 2.363,17.792L2.363,14.592C2.363,14.336 2.171,14.048 1.947,14.048L1.915,14.08C1.627,14.176 0.379,14.72 0.347,14.72L0.283,14.752C0.091,14.752 -0.005,14.656 -0.005,14.464L-0.005,12.192C-0.005,12 0.187,11.744 0.379,11.68C0.923,11.456 1.435,11.2 2.011,10.976C2.235,10.784 2.331,10.4 2.331,10.144L2.331,5.984C2.331,5.728 2.395,5.44 2.875,5.44C3.131,5.44 3.323,5.6 3.323,5.792L3.323,9.632C3.323,9.92 3.451,10.272 3.739,10.272C3.803,10.272 5.339,9.696 5.339,9.696C5.371,9.664 5.435,9.664 5.467,9.664C5.595,9.664 5.723,9.76 5.723,9.92Z" style="fill:rgb(34,34,34);fill-rule:nonzero;"/>
            </g>
        </g>
    </g>
    <g transform="matrix(1,0,0,1,46,16)">
        <g transform="matrix(1,0,0,1,-5,-16)">
            <clipPath id="_clip4">
                <rect x="0" y="0" width="10" height="32"/>
            </clipPath>
            <g clip-path="url(#_clip4)">
                <path d="M10.102,9.152L10.102,11.616C10.102,11.744 10.006,11.84 9.846,11.872C9.846,11.872 8.79,12.288 8.662,12.32C8.502,12.384 8.47,12.512 8.47,12.736L8.47,16.48C8.47,16.704 8.566,16.864 8.758,16.864L8.79,16.832C9.014,16.736 9.846,16.416 9.91,16.416C10.038,16.416 10.102,16.576 10.102,16.672L10.102,19.168C10.102,19.296 10.006,19.36 9.846,19.424L8.726,19.84C8.63,19.872 8.47,20.032 8.47,20.224L8.47,24.96C8.47,25.376 8.374,25.472 7.958,25.472C7.542,25.472 7.446,25.408 7.446,24.96L7.446,20.672C7.446,20.512 7.382,20.416 7.254,20.416C7.19,20.416 7.126,20.448 7.062,20.48L5.91,20.896C5.718,20.96 5.59,21.152 5.59,21.408L5.59,25.952C5.59,26.368 5.494,26.464 5.078,26.464C4.662,26.464 4.566,26.4 4.566,25.952L4.566,21.76C4.566,21.568 4.502,21.504 4.31,21.504L2.774,22.112C2.646,22.144 2.582,22.336 2.582,22.528L2.582,26.944C2.582,27.36 2.486,27.456 2.07,27.456C1.654,27.456 1.558,27.36 1.558,26.944L1.558,22.976C1.558,22.784 1.494,22.688 1.334,22.688C1.27,22.688 1.206,22.688 1.142,22.72C0.854,22.816 0.31,23.04 0.278,23.04C0.15,23.04 0.054,22.912 0.054,22.784L0.054,20.288C0.054,20.16 0.15,20.096 0.31,20.032L1.238,19.68C1.398,19.616 1.558,19.392 1.558,19.136L1.558,15.424C1.558,15.232 1.526,15.104 1.366,15.104C1.334,15.104 1.302,15.104 1.238,15.136C0.982,15.264 0.31,15.488 0.246,15.488C0.15,15.488 0.054,15.36 0.054,15.232L0.054,12.768C0.054,12.64 0.15,12.576 0.31,12.512L1.302,12.128C1.462,12.064 1.558,11.968 1.558,11.648L1.558,7.008C1.558,6.592 1.654,6.496 2.07,6.496C2.486,6.496 2.582,6.592 2.582,7.008L2.582,11.264C2.582,11.456 2.678,11.552 2.838,11.552L2.87,11.52L2.902,11.52L4.278,11.008C4.502,10.912 4.566,10.72 4.566,10.496L4.566,6.048C4.566,5.632 4.662,5.536 5.078,5.536C5.494,5.536 5.59,5.6 5.59,6.048L5.59,10.112C5.59,10.272 5.654,10.4 5.91,10.4C6.326,10.208 7.062,9.952 7.19,9.888C7.382,9.824 7.446,9.696 7.446,9.28L7.446,5.056C7.446,4.64 7.542,4.544 7.958,4.544C8.374,4.544 8.47,4.608 8.47,5.056L8.47,9.12C8.47,9.28 8.534,9.344 8.598,9.344C8.63,9.344 8.662,9.344 8.694,9.312C8.854,9.248 9.846,8.896 9.91,8.896C10.038,8.896 10.102,9.024 10.102,9.152ZM7.446,17.344C7.51,17.184 7.542,15.808 7.542,14.624C7.542,13.696 7.51,12.864 7.446,12.768C7.446,12.768 7.382,12.736 7.35,12.736C6.966,12.736 5.814,13.216 5.686,13.472C5.622,13.632 5.59,14.816 5.59,15.936C5.59,16.96 5.622,17.92 5.686,18.016C5.718,18.048 5.782,18.08 5.878,18.08C6.326,18.08 7.35,17.6 7.446,17.344ZM2.582,19.168C2.614,19.2 2.678,19.232 2.774,19.232C3.254,19.232 4.47,18.752 4.566,18.432C4.63,18.24 4.662,16.992 4.662,15.872C4.662,14.88 4.63,13.984 4.566,13.888C4.534,13.856 4.502,13.824 4.406,13.824C3.958,13.824 2.678,14.336 2.582,14.624C2.518,14.848 2.486,16.224 2.486,17.408C2.486,18.272 2.486,19.04 2.582,19.168Z" style="fill:rgb(34,34,34);fill-rule:nonzero;"/>
            </g>
        </g>
    </g>
    <g transform="matrix(1,0,0,1,273.5,16)">
        <g transform="matrix(1,0,0,1,-4.5,-16)">
            <clipPath id="_clip5">
                <rect x="0" y="0" width="9" height="32"/>
            </clipPath>
            <g clip-path="url(#_clip5)">
                <path d="M8.402,10.176L8.402,11.712C8.402,11.872 8.306,12 8.114,12.064C8.114,12.064 3.826,13.632 3.602,13.728C3.378,13.792 3.378,14.112 3.378,14.24C3.346,14.976 3.346,15.552 3.346,15.712C3.346,15.968 3.474,16.192 3.73,16.288L3.762,16.32C4.082,16.32 4.338,16 4.594,15.872C5.074,15.584 5.746,15.328 6.29,15.328C7.762,15.424 9.17,16.544 9.17,18.368C9.17,19.872 8.146,21.792 5.33,23.776C4.594,24.32 3.794,25.216 2.834,25.728C2.834,25.728 2.738,25.792 2.642,25.792C2.546,25.792 2.45,25.76 2.354,25.6C2.226,25.472 2.098,19.712 2.034,14.656C2.034,14.528 1.97,14.4 1.746,14.4C1.554,14.496 0.338,14.976 0.274,14.976C0.082,14.976 0.018,14.848 0.018,14.72L0.018,13.088C0.018,12.928 0.114,12.864 0.338,12.864C0.338,12.864 1.682,12.32 1.81,12.256C1.97,12.192 2.002,12.128 2.002,11.872C1.97,11.648 1.97,11.36 1.97,11.072C1.97,11.008 1.906,10.912 1.746,10.912C1.586,11.008 0.338,11.424 0.306,11.424L0.274,11.456C0.082,11.456 0.018,11.328 0.018,11.2L0.018,9.568C0.018,9.44 0.114,9.344 0.338,9.312C0.338,9.312 1.682,8.8 1.778,8.736C1.938,8.704 1.97,8.544 1.97,8.48L1.97,7.104C2.002,6.528 2.514,6.208 2.962,6.208C3.282,6.208 3.57,6.368 3.57,6.72C3.57,6.848 3.538,7.232 3.538,7.84C3.538,7.904 3.602,8 3.762,8C3.858,7.968 8.114,6.4 8.21,6.4C8.37,6.4 8.402,6.528 8.402,6.656L8.402,8.224C8.402,8.352 8.306,8.48 8.114,8.544C8.114,8.544 3.826,10.112 3.698,10.176C3.57,10.24 3.474,10.336 3.474,10.528C3.474,10.72 3.474,11.136 3.442,11.424C3.442,11.488 3.602,11.584 3.634,11.584C3.762,11.52 8.114,9.92 8.21,9.92C8.37,9.92 8.402,10.048 8.402,10.176ZM4.114,23.168C5.554,22.304 6.962,20.608 6.962,18.848C6.962,18.208 6.77,17.696 6.482,17.344C6.258,17.12 5.97,17.024 5.65,17.024C5.394,17.024 5.138,17.088 4.85,17.216C4.37,17.472 3.538,18.176 3.41,18.592C3.378,18.72 3.378,19.04 3.378,19.456C3.378,20.704 3.474,22.752 3.474,22.752C3.474,22.944 3.57,23.264 3.826,23.264C3.89,23.264 3.986,23.232 4.114,23.168Z" style="fill:rgb(34,34,34);fill-rule:nonzero;"/>
            </g>
        </g>
    </g>
    <g transform="matrix(1,0,0,1,204.5,16)">
        <g transform="matrix(1,0,0,1,-3.5,-16)">
            <clipPath id="_clip6">
                <rect x="0" y="0" width="7" height="32"/>
            </clipPath>
            <g clip-path="url(#_clip6)">
                <path d="M0.393,25.664C0.137,25.344 0.009,7.072 0.009,7.072C0.041,6.496 0.553,6.176 1.001,6.176C1.321,6.176 1.609,6.368 1.609,6.72C1.609,7.36 1.417,15.04 1.385,15.744C1.385,15.968 1.513,16.192 1.737,16.288C1.801,16.32 1.833,16.32 1.897,16.32C2.057,16.32 2.409,16.032 2.601,15.872C3.049,15.584 3.817,15.328 4.361,15.328C5.833,15.424 7.241,16.576 7.241,18.4C7.241,19.872 6.249,21.824 3.401,23.808C2.601,24.352 1.833,25.216 0.873,25.76C0.873,25.76 0.777,25.824 0.681,25.824C0.585,25.824 0.489,25.792 0.393,25.664ZM1.513,22.816C1.513,22.976 1.577,23.296 1.865,23.296C1.961,23.296 2.057,23.264 2.185,23.2C3.561,22.336 5.033,20.608 5.033,18.88C5.033,18.08 4.649,17.024 3.721,17.024C2.985,17.024 1.705,17.952 1.481,18.592C1.449,18.72 1.417,19.104 1.417,19.616C1.417,20.896 1.513,22.816 1.513,22.816Z" style="fill:rgb(34,34,34);fill-rule:nonzero;"/>
            </g>
        </g>
    </g>
    <g transform="matrix(1,0,0,1,258.5,16)">
        <g transform="matrix(1,0,0,1,-4.5,-16)">
            <clipPath id="_clip7">
                <rect x="0" y="0" width="9" height="32"/>
            </clipPath>
            <g clip-path="url(#_clip7)">
                <path d="M8.418,10.144L8.418,11.68C8.418,11.808 8.322,11.936 8.098,12C8.098,12 3.65,13.728 3.554,13.76C3.458,13.792 3.362,13.856 3.362,14.08L3.362,14.4L3.298,15.424L3.298,15.744C3.298,15.968 3.426,16.192 3.65,16.256C3.714,16.288 3.778,16.288 3.842,16.288C3.97,16.288 4.322,16.032 4.546,15.872C4.962,15.648 5.314,15.52 5.698,15.424C5.89,15.36 6.114,15.328 6.306,15.328C7.778,15.424 9.186,16.544 9.186,18.368C9.186,19.84 8.194,21.824 5.346,23.808C4.546,24.352 3.746,25.248 2.786,25.76C2.786,25.76 2.69,25.824 2.594,25.824C2.53,25.824 2.434,25.792 2.338,25.664C2.178,25.472 2.082,19.552 2.018,14.496C2.018,14.432 1.954,14.368 1.826,14.368C1.762,14.432 0.29,14.976 0.226,14.976C0.066,14.976 0.002,14.848 0.002,14.72L0.002,13.12C0.002,12.96 0.098,12.896 0.29,12.864L1.73,12.32C1.986,12.224 1.986,11.936 1.986,11.84C1.954,9.088 1.954,7.072 1.954,7.072C1.986,6.496 2.498,6.176 2.914,6.176C3.234,6.176 3.522,6.368 3.522,6.72C3.522,7.04 3.458,9.248 3.426,11.36C3.426,11.456 3.458,11.552 3.618,11.552C3.746,11.488 8.098,9.888 8.098,9.888C8.13,9.856 8.194,9.856 8.226,9.856C8.386,9.856 8.418,10.048 8.418,10.144ZM4.066,23.2C5.57,22.368 6.978,20.64 6.978,18.848C6.978,18.016 6.658,17.024 5.698,17.024C4.898,17.024 3.618,17.888 3.394,18.592C3.362,18.72 3.33,19.104 3.33,19.616C3.33,20.896 3.426,22.816 3.426,22.816C3.426,23.008 3.49,23.296 3.746,23.296C3.842,23.296 3.938,23.264 4.066,23.2Z" style="fill:rgb(34,34,34);fill-rule:nonzero;"/>
            </g>
        </g>
    </g>
    <g transform="matrix(1,0,0,1,191.5,16)">
        <g transform="matrix(1,0,0,1,-3.5,-16)">
            <clipPath id="_clip8">
                <rect x="0" y="0" width="7" height="32"/>
            </clipPath>
            <g clip-path="url(#_clip8)">
                <path d="M6.888,25.664C6.792,25.792 6.696,25.824 6.6,25.824C6.504,25.824 6.408,25.76 6.408,25.76C5.448,25.216 4.68,24.352 3.88,23.808C1.032,21.824 0.04,19.872 0.04,18.336C0.04,16.576 1.448,15.424 2.92,15.328C3.464,15.328 4.232,15.584 4.68,15.872C4.872,16.032 5.224,16.32 5.384,16.32C5.448,16.32 5.48,16.32 5.544,16.288C5.768,16.192 5.896,15.968 5.896,15.744C5.864,15.04 5.672,7.36 5.672,6.72C5.672,6.368 5.96,6.176 6.28,6.176C6.728,6.176 7.24,6.496 7.272,7.072C7.272,7.072 7.144,25.344 6.888,25.664ZM5.768,22.816C5.768,22.816 5.864,20.896 5.864,19.616C5.864,19.104 5.832,18.72 5.8,18.592C5.576,17.952 4.296,17.024 3.56,17.024C2.632,17.024 2.248,18.08 2.248,18.88C2.248,20.608 3.72,22.336 5.096,23.2C5.224,23.264 5.32,23.296 5.416,23.296C5.704,23.296 5.768,22.976 5.768,22.816Z" style="fill:rgb(34,34,34);fill-rule:nonzero;"/>
            </g>
        </g>
    </g>
    <g transform="matrix(1,0,0,1,76.5,16)">
        <g transform="matrix(1,0,0,1,-5.5,-16)">
            <clipPath id="_clip9">
                <rect x="0" y="0" width="11" height="32"/>
            </clipPath>
            <g clip-path="url(#_clip9)">
                <path d="M5.87,13.68L5.87,14.16C5.87,14.192 5.87,14.256 5.998,14.256L6.062,14.224C6.286,14.16 10.478,12.56 10.478,12.56L10.478,12.592L10.51,12.592L10.574,12.528C10.83,12.528 10.862,12.752 10.862,12.912L10.862,14.928C10.862,15.12 10.766,15.248 10.478,15.344C10.478,15.344 6.094,17.008 5.998,17.04C5.902,17.072 5.87,17.104 5.87,17.232L5.87,17.648C5.87,17.808 5.966,17.872 6.19,17.872L8.782,16.88C8.846,16.848 8.91,16.848 8.942,16.848C9.102,16.848 9.166,16.944 9.166,17.104L9.166,19.376C9.166,19.6 9.006,19.824 8.782,19.92C8.782,19.92 6.446,20.816 6.222,20.912C6.062,20.976 5.966,21.168 5.902,21.36C5.87,21.424 5.87,21.488 5.87,21.584L5.87,26.032C5.87,26.32 5.806,26.544 5.326,26.544C5.102,26.544 4.91,26.384 4.91,26.192L4.91,21.904C4.91,21.712 4.878,21.52 4.718,21.52L4.686,21.552C4.43,21.616 2.222,22.512 2.222,22.512C2.158,22.544 2.126,22.544 2.062,22.544C1.934,22.544 1.838,22.448 1.838,22.288L1.838,20.016C1.838,19.792 1.998,19.568 2.222,19.472C2.222,19.472 4.494,18.544 4.686,18.448C4.878,18.384 4.91,18.288 4.91,18.064L4.91,17.584C4.91,17.52 4.878,17.488 4.782,17.488L0.27,19.152C0.078,19.152 -0.018,18.96 -0.018,18.8L-0.018,16.72C-0.018,16.528 0.11,16.432 0.366,16.368C0.366,16.368 4.686,14.736 4.814,14.704C4.91,14.672 4.91,14.576 4.91,14.48L4.91,14C4.91,13.968 4.878,13.936 4.814,13.936C4.782,13.936 4.718,13.936 4.686,13.968L2.222,14.864C2.158,14.896 2.126,14.896 2.062,14.896C1.934,14.896 1.838,14.8 1.838,14.64L1.838,12.368C1.838,12.144 1.998,11.92 2.222,11.824C2.83,11.824 3.886,11.248 4.558,10.992C4.782,10.768 4.878,10.416 4.91,10.128L4.91,5.968C4.91,5.712 4.942,5.456 5.454,5.456C5.678,5.456 5.87,5.616 5.87,5.808L5.87,9.648C5.87,9.904 5.998,10.288 6.286,10.288C6.35,10.256 8.782,9.36 8.782,9.36C8.846,9.328 8.91,9.328 8.942,9.328C9.102,9.328 9.166,9.424 9.166,9.584L9.166,11.856C9.166,12.08 9.006,12.304 8.782,12.4L6.03,13.456C5.902,13.52 5.87,13.552 5.87,13.68Z" style="fill:rgb(34,34,34);fill-rule:nonzero;"/>
            </g>
        </g>
    </g>
    <g transform="matrix(1,0,0,1,93.5,16)">
        <g transform="matrix(1,0,0,1,-5.5,-16)">
            <path d="M8.988,12.256L8.156,12.576C7.772,12.736 7.708,12.8 7.708,13.12C7.708,13.152 7.74,13.376 7.74,13.536C7.74,13.6 7.772,13.632 7.836,13.632C7.9,13.6 10.556,12.608 10.556,12.608L10.556,12.64L10.588,12.64L10.652,12.576C10.876,12.576 10.94,12.8 10.94,12.928L10.94,14.944C10.94,15.136 10.812,15.296 10.556,15.36L7.836,16.384C7.74,16.416 7.74,16.48 7.74,16.544L7.74,16.864C7.74,17.056 7.772,17.152 7.868,17.152C7.932,17.152 8.028,17.12 8.156,17.056L8.988,16.736C9.052,16.704 9.084,16.704 9.148,16.704C9.276,16.704 9.372,16.8 9.372,16.96L9.372,19.232C9.372,19.424 9.212,19.68 8.988,19.776C8.988,19.776 8.316,20.032 8.092,20.128C7.868,20.224 7.74,20.608 7.74,20.864L7.74,25.408C7.74,25.6 7.548,25.76 7.196,25.76C6.972,25.76 6.78,25.6 6.78,25.408L6.78,21.408C6.78,21.216 6.62,20.832 6.332,20.832L6.268,20.864L6.236,20.864L4.284,21.664C4.124,21.728 3.964,21.952 3.964,22.368L3.964,26.816C3.964,27.008 3.74,27.168 3.42,27.168C3.196,27.168 3.004,27.008 3.004,26.816L3.004,22.88C3.004,22.72 2.844,22.368 2.62,22.368C2.588,22.368 2.556,22.368 2.524,22.4C2.236,22.496 1.788,22.688 1.756,22.688L1.692,22.72C1.5,22.72 1.404,22.624 1.404,22.432L1.404,20.16C1.404,19.968 1.564,19.712 1.788,19.648C1.788,19.648 2.556,19.328 2.748,19.232C2.972,19.136 3.004,19.04 3.004,18.784L3.004,18.4C3.004,18.336 3.004,18.24 2.876,18.24L2.844,18.272C2.684,18.336 0.412,19.168 0.316,19.168C0.124,19.168 0.028,19.008 0.028,18.848L0.028,16.736C0.028,16.544 0.188,16.48 0.412,16.416C0.412,16.416 2.812,15.52 2.876,15.488C2.972,15.456 2.972,15.392 2.972,15.328L2.972,14.848C2.972,14.784 2.908,14.752 2.844,14.752C2.748,14.752 2.62,14.816 2.492,14.848C2.268,14.976 1.788,15.168 1.756,15.168L1.692,15.2C1.5,15.2 1.404,15.104 1.404,14.912L1.404,12.64C1.404,12.448 1.564,12.192 1.788,12.128C1.788,12.128 2.428,11.872 2.62,11.776C2.812,11.68 3.004,11.36 3.004,10.912L3.004,6.592C3.004,6.4 3.196,6.24 3.516,6.24C3.74,6.24 3.964,6.4 3.964,6.592L3.964,10.432C3.964,10.688 4.06,11.072 4.348,11.072C4.892,10.944 5.98,10.496 6.364,10.272C6.652,10.08 6.748,9.664 6.78,9.344L6.78,5.184C6.78,4.992 6.972,4.832 7.292,4.832C7.548,4.832 7.74,4.992 7.74,5.184L7.74,9.088C7.74,9.344 7.964,9.504 8.188,9.504C8.348,9.472 8.988,9.216 8.988,9.216C9.052,9.184 9.084,9.184 9.148,9.184C9.276,9.184 9.372,9.28 9.372,9.44L9.372,11.712C9.372,11.904 9.212,12.16 8.988,12.256ZM3.964,14.368C3.9,14.432 3.932,14.848 3.9,15.008C3.9,15.04 3.964,15.072 3.996,15.072C4.028,15.04 6.332,14.176 6.78,14.016C6.844,13.984 6.844,13.92 6.844,13.888C6.812,13.824 6.812,13.632 6.812,13.504C6.812,13.376 6.812,13.248 6.716,13.248C5.852,13.248 4.38,13.984 3.964,14.368ZM6.812,17.408C6.844,17.28 6.844,17.12 6.844,16.896C6.844,16.864 6.78,16.8 6.748,16.8C6.236,16.992 4.028,17.824 3.996,17.824C3.9,17.856 3.868,17.888 3.868,18.016C3.9,18.304 3.9,18.528 3.964,18.592C3.996,18.624 4.028,18.656 4.124,18.656C4.7,18.656 6.716,17.856 6.812,17.408Z" style="fill:rgb(34,34,34);fill-rule:nonzero;"/>
        </g>
    </g>
    <g transform="matrix(1,0,0,1,111.5,16)">
        <g transform="matrix(1,0,0,1,-6.5,-16)">
            <path d="M8.999,5.872L9.991,2.448C10.087,2.32 10.247,2.128 10.375,2.128C10.631,2.192 10.695,2.192 11.015,2.192C11.207,2.192 11.399,2.128 11.623,2.128C11.847,2.128 11.943,2.256 11.943,2.512L11.943,9.168C11.943,9.456 12.231,9.744 12.455,9.744C12.711,9.744 12.711,10 12.711,10C12.711,10 12.711,10.256 12.455,10.256L9.767,10.256C9.511,10.256 9.351,10.192 9.351,10C9.351,9.808 9.511,9.744 9.639,9.744C9.959,9.744 10.279,9.52 10.279,9.136L10.279,4.56C10.279,4.464 10.247,4.336 10.183,4.336C10.151,4.336 10.087,4.368 10.023,4.496C9.831,4.816 9.447,6.128 9.415,6.224C9.383,6.256 9.319,6.352 9.223,6.352C9.095,6.352 8.967,6.224 8.967,6.096C8.967,6 8.999,5.872 8.999,5.872ZM7.655,14.96L6.823,15.28C6.567,15.376 6.407,15.984 6.407,16.208L6.407,19.184C6.407,19.568 6.631,19.76 6.823,19.76L7.655,19.44C7.719,19.408 7.751,19.408 7.815,19.408C7.943,19.408 8.039,19.504 8.039,19.664L8.039,21.936C8.039,22.128 7.879,22.384 7.655,22.48C7.655,22.48 6.983,22.736 6.759,22.832C6.535,22.928 6.407,23.312 6.407,23.568L6.407,28.112C6.407,28.304 6.215,28.464 5.863,28.464C5.639,28.464 5.447,28.304 5.447,28.112L5.447,24.112C5.447,23.92 5.287,23.536 4.999,23.536L4.935,23.568L4.903,23.568L2.951,24.368C2.791,24.432 2.631,24.656 2.631,25.072L2.631,29.52C2.631,29.712 2.407,29.872 2.087,29.872C1.863,29.872 1.671,29.712 1.671,29.52L1.671,25.584C1.671,25.424 1.511,25.072 1.287,25.072C1.255,25.072 1.223,25.072 1.191,25.104C0.903,25.2 0.455,25.392 0.423,25.392L0.359,25.424C0.167,25.424 0.071,25.328 0.071,25.136L0.071,22.864C0.071,22.672 0.231,22.416 0.455,22.352C0.455,22.352 1.127,22.064 1.319,22C1.511,21.904 1.671,21.616 1.671,21.264L1.671,18.096C1.671,17.84 1.479,17.52 1.223,17.52L1.191,17.552C0.935,17.68 0.455,17.872 0.423,17.872L0.359,17.904C0.167,17.904 0.071,17.808 0.071,17.616L0.071,15.344C0.071,15.152 0.231,14.896 0.455,14.832C0.455,14.832 1.095,14.576 1.287,14.48C1.479,14.384 1.671,14.064 1.671,13.616L1.671,9.296C1.671,9.104 1.863,8.944 2.183,8.944C2.407,8.944 2.631,9.104 2.631,9.296L2.631,13.136C2.631,13.392 2.727,13.776 3.015,13.776C3.559,13.648 4.647,13.2 5.031,12.976C5.319,12.784 5.415,12.368 5.447,12.048L5.447,7.888C5.447,7.696 5.639,7.536 5.959,7.536C6.215,7.536 6.407,7.696 6.407,7.888L6.407,11.792C6.407,12.048 6.631,12.208 6.855,12.208C7.015,12.176 7.655,11.92 7.655,11.92C7.719,11.888 7.751,11.888 7.815,11.888C7.943,11.888 8.039,11.984 8.039,12.144L8.039,14.416C8.039,14.608 7.879,14.864 7.655,14.96ZM5.447,20.176C5.511,19.888 5.575,18.992 5.575,18.128C5.575,17.264 5.511,16.464 5.447,16.304C5.383,16.176 5.191,16.112 4.967,16.112C4.167,16.112 2.695,16.784 2.631,17.328C2.567,17.584 2.535,18.704 2.535,19.696C2.535,20.464 2.567,21.168 2.631,21.296C2.663,21.392 2.823,21.456 3.015,21.456C3.751,21.456 5.255,20.816 5.447,20.176Z" style="fill:rgb(34,34,34);fill-rule:nonzero;"/>
        </g>
    </g>
    <g transform="matrix(1,0,0,1,132,16)">
        <g transform="matrix(1,0,0,1,-8,-16)">
            <path d="M15.536,7.696C15.28,10.16 14.032,10.224 13.36,10.224C11.92,10.224 11.696,9.36 11.056,9.36C10.096,9.36 9.904,10.352 9.552,10.352C9.52,10.352 9.456,10.352 9.424,10.32C9.232,10.224 9.136,9.968 9.136,9.744C9.424,8.72 10.032,7.792 10.928,7.248C11.728,6.736 12.784,6.48 13.36,5.744C13.68,5.296 13.872,4.752 13.872,4.176C13.872,3.792 13.36,2.544 11.856,2.544C10.896,2.544 10.576,2.928 10.576,3.152C10.576,3.472 11.376,3.536 11.376,4.272C11.376,4.624 11.28,5.392 10.48,5.392C10.032,5.392 9.616,5.104 9.424,4.72C9.328,4.432 9.232,4.176 9.232,3.952C9.232,3.696 9.328,3.44 9.552,3.184C10.384,2.224 11.312,2.16 12.464,2.16C12.816,2.16 14.032,2.256 14.864,2.928C15.28,3.312 15.6,3.824 15.6,4.592C15.6,5.84 14.64,6.512 13.488,6.672C13.136,6.768 11.472,7.568 11.12,8.176C11.312,8.112 11.504,8.08 11.728,8.08C12.368,8.08 13.136,8.336 13.456,8.464L13.936,8.624C14,8.656 14.064,8.656 14.128,8.656C14.608,8.656 14.96,8.08 15.12,7.632C15.152,7.536 15.216,7.44 15.344,7.44C15.44,7.44 15.536,7.472 15.536,7.696ZM7.984,14.928L7.152,15.248C6.896,15.344 6.736,15.952 6.736,16.176L6.736,19.152C6.736,19.536 6.96,19.728 7.152,19.728L7.984,19.408C8.048,19.376 8.08,19.376 8.144,19.376C8.272,19.376 8.368,19.472 8.368,19.632L8.368,21.904C8.368,22.096 8.208,22.352 7.984,22.448C7.984,22.448 7.312,22.704 7.088,22.8C6.864,22.896 6.736,23.28 6.736,23.536L6.736,28.08C6.736,28.272 6.544,28.432 6.192,28.432C5.968,28.432 5.776,28.272 5.776,28.08L5.776,24.08C5.776,23.888 5.616,23.504 5.328,23.504L5.264,23.536L5.232,23.536L3.28,24.336C3.12,24.4 2.96,24.624 2.96,25.04L2.96,29.488C2.96,29.68 2.736,29.84 2.416,29.84C2.192,29.84 2,29.68 2,29.488L2,25.552C2,25.392 1.84,25.04 1.616,25.04C1.584,25.04 1.552,25.04 1.52,25.072C1.232,25.168 0.784,25.36 0.752,25.36L0.688,25.392C0.496,25.392 0.4,25.296 0.4,25.104L0.4,22.832C0.4,22.64 0.56,22.384 0.784,22.32C0.784,22.32 1.456,22.032 1.648,21.968C1.84,21.872 2,21.584 2,21.232L2,18.064C2,17.808 1.808,17.488 1.552,17.488L1.52,17.52C1.264,17.648 0.784,17.84 0.752,17.84L0.688,17.872C0.496,17.872 0.4,17.776 0.4,17.584L0.4,15.312C0.4,15.12 0.56,14.864 0.784,14.8C0.784,14.8 1.424,14.544 1.616,14.448C1.808,14.352 2,14.032 2,13.584L2,9.264C2,9.072 2.192,8.912 2.512,8.912C2.736,8.912 2.96,9.072 2.96,9.264L2.96,13.104C2.96,13.36 3.056,13.744 3.344,13.744C3.888,13.616 4.976,13.168 5.36,12.944C5.648,12.752 5.744,12.336 5.776,12.016L5.776,7.856C5.776,7.664 5.968,7.504 6.288,7.504C6.544,7.504 6.736,7.664 6.736,7.856L6.736,11.76C6.736,12.016 6.96,12.176 7.184,12.176C7.344,12.144 7.984,11.888 7.984,11.888C8.048,11.856 8.08,11.856 8.144,11.856C8.272,11.856 8.368,11.952 8.368,12.112L8.368,14.384C8.368,14.576 8.208,14.832 7.984,14.928ZM5.776,20.144C5.84,19.856 5.904,18.96 5.904,18.096C5.904,17.232 5.84,16.432 5.776,16.272C5.712,16.144 5.52,16.08 5.296,16.08C4.496,16.08 3.024,16.752 2.96,17.296C2.896,17.552 2.864,18.672 2.864,19.664C2.864,20.432 2.896,21.136 2.96,21.264C2.992,21.36 3.152,21.424 3.344,21.424C4.08,21.424 5.584,20.784 5.776,20.144Z" style="fill:rgb(34,34,34);fill-rule:nonzero;"/>
        </g>
    </g>
    <g transform="matrix(1,0,0,1,153.5,16)">
        <g transform="matrix(1,0,0,1,-7.5,-16)">
            <path d="M11.454,2.256L11.71,2.256C12.414,2.32 14.398,2.736 14.398,4.24C14.398,4.592 14.302,5.008 14.046,5.264C13.886,5.488 13.662,5.584 13.438,5.712L12.926,5.872C12.862,5.872 12.83,5.936 12.83,6C12.83,6.032 12.83,6.064 12.862,6.096C12.894,6.16 12.926,6.128 13.022,6.16L13.214,6.224L13.246,6.224L13.342,6.256L13.374,6.256L13.566,6.32L13.918,6.512C14.046,6.608 14.174,6.704 14.27,6.832C14.398,6.96 14.526,7.12 14.59,7.312C14.686,7.504 14.75,7.76 14.75,8.08C14.75,9.488 13.118,10.32 11.55,10.32L11.358,10.32C9.758,10.288 8.862,9.424 8.83,8.4C8.83,8.112 8.894,7.824 9.118,7.632C9.278,7.472 9.502,7.344 9.726,7.28L9.854,7.28C10.43,7.28 10.814,7.632 10.814,8.208C10.782,8.528 10.686,8.912 10.686,9.264L10.686,9.456C10.718,9.616 11.038,9.712 11.23,9.712C11.614,9.712 13.118,9.648 13.118,7.792C13.118,7.312 12.862,6.352 11.006,6.352C10.878,6.352 10.59,6.352 10.59,6.16C10.59,5.968 10.814,5.872 11.038,5.872C11.518,5.84 13.054,5.712 13.054,4.208C13.054,3.664 12.574,2.8 10.942,2.8C10.814,2.8 10.334,2.928 10.27,3.28C10.27,3.504 10.398,3.632 10.462,3.664C10.526,3.696 10.846,3.728 10.878,4.208L10.878,4.336C10.878,4.752 10.59,5.136 9.982,5.136C9.182,5.104 8.926,4.56 8.926,4.112C8.926,3.44 9.694,2.256 11.454,2.256ZM7.71,14.832L6.878,15.152C6.622,15.248 6.462,15.856 6.462,16.08L6.462,19.056C6.462,19.44 6.686,19.632 6.878,19.632L7.71,19.312C7.774,19.28 7.806,19.28 7.87,19.28C7.998,19.28 8.094,19.376 8.094,19.536L8.094,21.808C8.094,22 7.934,22.256 7.71,22.352C7.71,22.352 7.038,22.608 6.814,22.704C6.59,22.8 6.462,23.184 6.462,23.44L6.462,27.984C6.462,28.176 6.27,28.336 5.918,28.336C5.694,28.336 5.502,28.176 5.502,27.984L5.502,23.984C5.502,23.792 5.342,23.408 5.054,23.408L4.99,23.44L4.958,23.44L3.006,24.24C2.846,24.304 2.686,24.528 2.686,24.944L2.686,29.392C2.686,29.584 2.462,29.744 2.142,29.744C1.918,29.744 1.726,29.584 1.726,29.392L1.726,25.456C1.726,25.296 1.566,24.944 1.342,24.944C1.31,24.944 1.278,24.944 1.246,24.976C0.958,25.072 0.51,25.264 0.478,25.264L0.414,25.296C0.222,25.296 0.126,25.2 0.126,25.008L0.126,22.736C0.126,22.544 0.286,22.288 0.51,22.224C0.51,22.224 1.182,21.936 1.374,21.872C1.566,21.776 1.726,21.488 1.726,21.136L1.726,17.968C1.726,17.712 1.534,17.392 1.278,17.392L1.246,17.424C0.99,17.552 0.51,17.744 0.478,17.744L0.414,17.776C0.222,17.776 0.126,17.68 0.126,17.488L0.126,15.216C0.126,15.024 0.286,14.768 0.51,14.704C0.51,14.704 1.15,14.448 1.342,14.352C1.534,14.256 1.726,13.936 1.726,13.488L1.726,9.168C1.726,8.976 1.918,8.816 2.238,8.816C2.462,8.816 2.686,8.976 2.686,9.168L2.686,13.008C2.686,13.264 2.782,13.648 3.07,13.648C3.614,13.52 4.702,13.072 5.086,12.848C5.374,12.656 5.47,12.24 5.502,11.92L5.502,7.76C5.502,7.568 5.694,7.408 6.014,7.408C6.27,7.408 6.462,7.568 6.462,7.76L6.462,11.664C6.462,11.92 6.686,12.08 6.91,12.08C7.07,12.048 7.71,11.792 7.71,11.792C7.774,11.76 7.806,11.76 7.87,11.76C7.998,11.76 8.094,11.856 8.094,12.016L8.094,14.288C8.094,14.48 7.934,14.736 7.71,14.832ZM5.502,20.048C5.566,19.76 5.63,18.864 5.63,18C5.63,17.136 5.566,16.336 5.502,16.176C5.438,16.048 5.246,15.984 5.022,15.984C4.222,15.984 2.75,16.656 2.686,17.2C2.622,17.456 2.59,18.576 2.59,19.568C2.59,20.336 2.622,21.04 2.686,21.168C2.718,21.264 2.878,21.328 3.07,21.328C3.806,21.328 5.31,20.688 5.502,20.048Z" style="fill:rgb(34,34,34);fill-rule:nonzero;"/>
        </g>
    </g>
    <g transform="matrix(1,0,0,1,174.5,16)">
        <g transform="matrix(1,0,0,1,-7.5,-16)">
            <path d="M9.176,6.24L9.368,2.528C9.368,2.4 9.464,2.272 9.752,2.272C10.04,2.272 11.48,2.432 11.992,2.432C12.536,2.432 13.848,2.272 14.072,2.272C14.232,2.272 14.296,2.432 14.296,2.592C14.296,2.816 14.2,3.84 11.896,3.84C11.288,3.84 10.552,3.712 10.2,3.68C10.04,3.68 9.944,3.776 9.944,3.904C9.912,4.064 9.848,5.376 9.848,5.376C9.848,5.536 9.88,5.536 10.008,5.536C10.552,5.216 11.256,5.056 12.216,5.056C13.752,5.056 14.968,6.272 14.968,7.808C14.968,9.312 13.88,10.528 11.864,10.528C9.816,10.528 9.048,9.568 9.048,8.384L9.048,8.16C9.08,7.712 9.528,7.168 10.264,7.168C10.808,7.168 11.288,7.648 11.288,8.224C11.288,8.64 10.936,9.12 10.392,9.12C10.264,9.12 10.2,9.184 10.2,9.28C10.2,9.472 10.424,9.76 10.584,9.824C10.84,9.888 10.968,9.888 11.096,9.888L11.288,9.888C11.736,9.888 13.368,9.632 13.368,7.808C13.368,5.952 11.96,5.632 11.384,5.632C10.808,5.632 10.04,6.016 9.848,6.176C9.688,6.368 9.56,6.528 9.496,6.528C9.336,6.528 9.176,6.464 9.176,6.24ZM7.928,14.816L7.096,15.136C6.84,15.232 6.68,15.84 6.68,16.064L6.68,19.04C6.68,19.424 6.904,19.616 7.096,19.616L7.928,19.296C7.992,19.264 8.024,19.264 8.088,19.264C8.216,19.264 8.312,19.36 8.312,19.52L8.312,21.792C8.312,21.984 8.152,22.24 7.928,22.336C7.928,22.336 7.256,22.592 7.032,22.688C6.808,22.784 6.68,23.168 6.68,23.424L6.68,27.968C6.68,28.16 6.488,28.32 6.136,28.32C5.912,28.32 5.72,28.16 5.72,27.968L5.72,23.968C5.72,23.776 5.56,23.392 5.272,23.392L5.208,23.424L5.176,23.424L3.224,24.224C3.064,24.288 2.904,24.512 2.904,24.928L2.904,29.376C2.904,29.568 2.68,29.728 2.36,29.728C2.136,29.728 1.944,29.568 1.944,29.376L1.944,25.44C1.944,25.28 1.784,24.928 1.56,24.928C1.528,24.928 1.496,24.928 1.464,24.96C1.176,25.056 0.728,25.248 0.696,25.248L0.632,25.28C0.44,25.28 0.344,25.184 0.344,24.992L0.344,22.72C0.344,22.528 0.504,22.272 0.728,22.208C0.728,22.208 1.4,21.92 1.592,21.856C1.784,21.76 1.944,21.472 1.944,21.12L1.944,17.952C1.944,17.696 1.752,17.376 1.496,17.376L1.464,17.408C1.208,17.536 0.728,17.728 0.696,17.728L0.632,17.76C0.44,17.76 0.344,17.664 0.344,17.472L0.344,15.2C0.344,15.008 0.504,14.752 0.728,14.688C0.728,14.688 1.368,14.432 1.56,14.336C1.752,14.24 1.944,13.92 1.944,13.472L1.944,9.152C1.944,8.96 2.136,8.8 2.456,8.8C2.68,8.8 2.904,8.96 2.904,9.152L2.904,12.992C2.904,13.248 3,13.632 3.288,13.632C3.832,13.504 4.92,13.056 5.304,12.832C5.592,12.64 5.688,12.224 5.72,11.904L5.72,7.744C5.72,7.552 5.912,7.392 6.232,7.392C6.488,7.392 6.68,7.552 6.68,7.744L6.68,11.648C6.68,11.904 6.904,12.064 7.128,12.064C7.288,12.032 7.928,11.776 7.928,11.776C7.992,11.744 8.024,11.744 8.088,11.744C8.216,11.744 8.312,11.84 8.312,12L8.312,14.272C8.312,14.464 8.152,14.72 7.928,14.816ZM5.72,20.032C5.784,19.744 5.848,18.848 5.848,17.984C5.848,17.12 5.784,16.32 5.72,16.16C5.656,16.032 5.464,15.968 5.24,15.968C4.44,15.968 2.968,16.64 2.904,17.184C2.84,17.44 2.808,18.56 2.808,19.552C2.808,20.32 2.84,21.024 2.904,21.152C2.936,21.248 3.096,21.312 3.288,21.312C4.024,21.312 5.528,20.672 5.72,20.032Z" style="fill:rgb(34,34,34);fill-rule:nonzero;"/>
        </g>
    </g>
    <g transform="matrix(1,0,0,1,288.5,16)">
        <g transform="matrix(1,0,0,1,-4.5,-16)">
            <path d="M5.123,9.04L6.115,5.616C6.211,5.488 6.371,5.296 6.499,5.296C6.755,5.36 6.819,5.36 7.139,5.36C7.331,5.36 7.523,5.296 7.747,5.296C7.971,5.296 8.067,5.424 8.067,5.68L8.067,12.336C8.067,12.624 8.355,12.912 8.579,12.912C8.835,12.912 8.835,13.168 8.835,13.168C8.835,13.168 8.835,13.424 8.579,13.424L5.891,13.424C5.635,13.424 5.475,13.36 5.475,13.168C5.475,12.976 5.635,12.912 5.763,12.912C6.083,12.912 6.403,12.688 6.403,12.304L6.403,7.728C6.403,7.632 6.371,7.504 6.307,7.504C6.275,7.504 6.211,7.536 6.147,7.664C5.955,7.984 5.571,9.296 5.539,9.392C5.507,9.424 5.443,9.52 5.347,9.52C5.219,9.52 5.091,9.392 5.091,9.264C5.091,9.168 5.123,9.04 5.123,9.04ZM0.611,26.544C0.355,26.224 0.227,7.952 0.227,7.952C0.259,7.376 0.771,7.056 1.219,7.056C1.539,7.056 1.827,7.248 1.827,7.6C1.827,8.24 1.635,15.92 1.603,16.624C1.603,16.848 1.731,17.072 1.955,17.168C2.019,17.2 2.051,17.2 2.115,17.2C2.275,17.2 2.627,16.912 2.819,16.752C3.267,16.464 4.035,16.208 4.579,16.208C6.051,16.304 7.459,17.456 7.459,19.28C7.459,20.752 6.467,22.704 3.619,24.688C2.819,25.232 2.051,26.096 1.091,26.64C1.091,26.64 0.995,26.704 0.899,26.704C0.803,26.704 0.707,26.672 0.611,26.544ZM1.731,23.696C1.731,23.856 1.795,24.176 2.083,24.176C2.179,24.176 2.275,24.144 2.403,24.08C3.779,23.216 5.251,21.488 5.251,19.76C5.251,18.96 4.867,17.904 3.939,17.904C3.203,17.904 1.923,18.832 1.699,19.472C1.667,19.6 1.635,19.984 1.635,20.496C1.635,21.776 1.731,23.696 1.731,23.696Z" style="fill:rgb(34,34,34);fill-rule:nonzero;"/>
        </g>
    </g>
    <g transform="matrix(1,0,0,1,304.5,16)">
        <g transform="matrix(1,0,0,1,-5.5,-16)">
            <clipPath id="_clip10">
                <rect x="0" y="0" width="11" height="32"/>
            </clipPath>
            <g clip-path="url(#_clip10)">
                <path d="M11.049,10.96C10.793,13.424 9.545,13.488 8.873,13.488C7.433,13.488 7.209,12.624 6.569,12.624C5.609,12.624 5.417,13.616 5.065,13.616C5.033,13.616 4.969,13.616 4.937,13.584C4.745,13.488 4.649,13.232 4.649,13.008C4.937,11.984 5.545,11.056 6.441,10.512C7.241,10 8.297,9.744 8.873,9.008C9.193,8.56 9.385,8.016 9.385,7.44C9.385,7.056 8.873,5.808 7.369,5.808C6.409,5.808 6.089,6.192 6.089,6.416C6.089,6.736 6.889,6.8 6.889,7.536C6.889,7.888 6.793,8.656 5.993,8.656C5.545,8.656 5.129,8.368 4.937,7.984C4.841,7.696 4.745,7.44 4.745,7.216C4.745,6.96 4.841,6.704 5.065,6.448C5.897,5.488 6.825,5.424 7.977,5.424C8.329,5.424 9.545,5.52 10.377,6.192C10.793,6.576 11.113,7.088 11.113,7.856C11.113,9.104 10.153,9.776 9.001,9.936C8.649,10.032 6.985,10.832 6.633,11.44C6.825,11.376 7.017,11.344 7.241,11.344C7.881,11.344 8.649,11.6 8.969,11.728L9.449,11.888C9.513,11.92 9.577,11.92 9.641,11.92C10.121,11.92 10.473,11.344 10.633,10.896C10.665,10.8 10.729,10.704 10.857,10.704C10.953,10.704 11.049,10.736 11.049,10.96ZM0.553,26.416C0.297,26.096 0.169,7.824 0.169,7.824C0.201,7.248 0.713,6.928 1.161,6.928C1.481,6.928 1.769,7.12 1.769,7.472C1.769,8.112 1.577,15.792 1.545,16.496C1.545,16.72 1.673,16.944 1.897,17.04C1.961,17.072 1.993,17.072 2.057,17.072C2.217,17.072 2.569,16.784 2.761,16.624C3.209,16.336 3.977,16.08 4.521,16.08C5.993,16.176 7.401,17.328 7.401,19.152C7.401,20.624 6.409,22.576 3.561,24.56C2.761,25.104 1.993,25.968 1.033,26.512C1.033,26.512 0.937,26.576 0.841,26.576C0.745,26.576 0.649,26.544 0.553,26.416ZM1.673,23.568C1.673,23.728 1.737,24.048 2.025,24.048C2.121,24.048 2.217,24.016 2.345,23.952C3.721,23.088 5.193,21.36 5.193,19.632C5.193,18.832 4.809,17.776 3.881,17.776C3.145,17.776 1.865,18.704 1.641,19.344C1.609,19.472 1.577,19.856 1.577,20.368C1.577,21.648 1.673,23.568 1.673,23.568Z" style="fill:rgb(34,34,34);fill-rule:nonzero;"/>
            </g>
        </g>
    </g>
    <g transform="matrix(1,0,0,1,321.5,16)">
        <g transform="matrix(1,0,0,1,-5.5,-16)">
            <path d="M7.136,5.552L7.392,5.552C8.096,5.616 10.08,6.032 10.08,7.536C10.08,7.888 9.984,8.304 9.728,8.56C9.568,8.784 9.344,8.88 9.12,9.008L8.608,9.168C8.544,9.168 8.512,9.232 8.512,9.296C8.512,9.328 8.512,9.36 8.544,9.392C8.576,9.456 8.608,9.424 8.704,9.456L8.896,9.52L8.928,9.52L9.024,9.552L9.056,9.552L9.248,9.616L9.6,9.808C9.728,9.904 9.856,10 9.952,10.128C10.08,10.256 10.208,10.416 10.272,10.608C10.368,10.8 10.432,11.056 10.432,11.376C10.432,12.784 8.8,13.616 7.232,13.616L7.04,13.616C5.44,13.584 4.544,12.72 4.512,11.696C4.512,11.408 4.576,11.12 4.8,10.928C4.96,10.768 5.184,10.64 5.408,10.576L5.536,10.576C6.112,10.576 6.496,10.928 6.496,11.504C6.464,11.824 6.368,12.208 6.368,12.56L6.368,12.752C6.4,12.912 6.72,13.008 6.912,13.008C7.296,13.008 8.8,12.944 8.8,11.088C8.8,10.608 8.544,9.648 6.688,9.648C6.56,9.648 6.272,9.648 6.272,9.456C6.272,9.264 6.496,9.168 6.72,9.168C7.2,9.136 8.736,9.008 8.736,7.504C8.736,6.96 8.256,6.096 6.624,6.096C6.496,6.096 6.016,6.224 5.952,6.576C5.952,6.8 6.08,6.928 6.144,6.96C6.208,6.992 6.528,7.024 6.56,7.504L6.56,7.632C6.56,8.048 6.272,8.432 5.664,8.432C4.864,8.4 4.608,7.856 4.608,7.408C4.608,6.736 5.376,5.552 7.136,5.552ZM0.608,26.288C0.352,25.968 0.224,7.696 0.224,7.696C0.256,7.12 0.768,6.8 1.216,6.8C1.536,6.8 1.824,6.992 1.824,7.344C1.824,7.984 1.632,15.664 1.6,16.368C1.6,16.592 1.728,16.816 1.952,16.912C2.016,16.944 2.048,16.944 2.112,16.944C2.272,16.944 2.624,16.656 2.816,16.496C3.264,16.208 4.032,15.952 4.576,15.952C6.048,16.048 7.456,17.2 7.456,19.024C7.456,20.496 6.464,22.448 3.616,24.432C2.816,24.976 2.048,25.84 1.088,26.384C1.088,26.384 0.992,26.448 0.896,26.448C0.8,26.448 0.704,26.416 0.608,26.288ZM1.728,23.44C1.728,23.6 1.792,23.92 2.08,23.92C2.176,23.92 2.272,23.888 2.4,23.824C3.776,22.96 5.248,21.232 5.248,19.504C5.248,18.704 4.864,17.648 3.936,17.648C3.2,17.648 1.92,18.576 1.696,19.216C1.664,19.344 1.632,19.728 1.632,20.24C1.632,21.52 1.728,23.44 1.728,23.44Z" style="fill:rgb(34,34,34);fill-rule:nonzero;"/>
        </g>
    </g>
    <g transform="matrix(1,0,0,1,338.5,16)">
        <g transform="matrix(1,0,0,1,-5.5,-16)">
            <clipPath id="_clip11">
                <rect x="0" y="0" width="11" height="32"/>
            </clipPath>
            <g clip-path="url(#_clip11)">
                <path d="M9.673,10.544L10.857,10.544C11.049,10.544 11.113,10.672 11.113,10.864C11.113,11.056 11.017,11.184 10.857,11.184L9.673,11.184L9.673,12.112C9.673,12.624 10.025,12.72 10.185,12.72C10.345,12.72 10.537,12.816 10.537,13.04C10.537,13.264 10.377,13.392 10.217,13.392L7.465,13.392C7.177,13.392 7.113,13.2 7.113,13.04C7.113,12.88 7.241,12.752 7.529,12.752C7.785,12.752 8.041,12.624 8.041,12.176L8.041,11.184L5.161,11.184C4.969,11.184 4.841,11.024 4.841,10.864C4.841,10.768 4.905,10.672 4.969,10.608C5.385,10.032 7.049,7.696 7.049,5.648C7.049,5.392 7.273,5.328 7.433,5.328C7.561,5.328 7.753,5.392 8.041,5.392C8.329,5.392 9.001,5.328 9.161,5.328C9.257,5.328 9.385,5.424 9.385,5.584L9.353,5.616C9.321,5.84 7.273,9.456 5.961,10.544L8.041,10.544L8.041,9.232C8.041,9.008 8.137,8.912 8.201,8.848L9.161,6.992C9.257,6.864 9.353,6.832 9.481,6.832C9.641,6.832 9.673,6.96 9.673,7.12L9.673,10.544ZM0.553,26.512C0.297,26.192 0.169,7.92 0.169,7.92C0.201,7.344 0.713,7.024 1.161,7.024C1.481,7.024 1.769,7.216 1.769,7.568C1.769,8.208 1.577,15.888 1.545,16.592C1.545,16.816 1.673,17.04 1.897,17.136C1.961,17.168 1.993,17.168 2.057,17.168C2.217,17.168 2.569,16.88 2.761,16.72C3.209,16.432 3.977,16.176 4.521,16.176C5.993,16.272 7.401,17.424 7.401,19.248C7.401,20.72 6.409,22.672 3.561,24.656C2.761,25.2 1.993,26.064 1.033,26.608C1.033,26.608 0.937,26.672 0.841,26.672C0.745,26.672 0.649,26.64 0.553,26.512ZM1.673,23.664C1.673,23.824 1.737,24.144 2.025,24.144C2.121,24.144 2.217,24.112 2.345,24.048C3.721,23.184 5.193,21.456 5.193,19.728C5.193,18.928 4.809,17.872 3.881,17.872C3.145,17.872 1.865,18.8 1.641,19.44C1.609,19.568 1.577,19.952 1.577,20.464C1.577,21.744 1.673,23.664 1.673,23.664Z" style="fill:rgb(34,34,34);fill-rule:nonzero;"/>
            </g>
        </g>
    </g>
</svg>
