<?xml version="1.0" standalone="no"?>
<!DOCTYPE svg PUBLIC "-//W3C//DTD SVG 20010904//EN"
 "http://www.w3.org/TR/2001/REC-SVG-20010904/DTD/svg10.dtd">
<svg version="1.0" xmlns="http://www.w3.org/2000/svg"
 width="487.000000pt" height="500.000000pt" viewBox="0 0 487.000000 500.000000"
 preserveAspectRatio="xMidYMid meet">

<g transform="translate(0.000000,500.000000) scale(0.100000,-0.100000)"
fill="#222222" stroke="none">
<path d="M3160 4839 c-916 -88 -1671 -161 -1677 -164 -10 -3 -13 -362 -13
-1749 l0 -1746 -62 41 c-104 67 -177 84 -358 84 -138 0 -166 -3 -255 -28 -113
-31 -292 -114 -386 -177 -83 -57 -211 -180 -264 -255 -226 -318 -180 -644 108
-781 463 -220 1213 153 1341 667 14 59 16 220 16 1702 0 1552 1 1637 18 1637
9 0 702 65 1540 145 838 80 1532 145 1543 145 19 0 19 -25 19 -1280 l0 -1280
-54 35 c-91 61 -183 88 -319 93 -183 7 -340 -27 -519 -112 -184 -87 -377 -254
-472 -408 -112 -182 -135 -372 -64 -525 29 -64 129 -162 200 -196 256 -123
639 -69 948 135 83 55 220 186 275 263 60 85 103 175 126 263 18 73 19 129 19
1864 l0 1788 -22 -1 c-13 -1 -772 -73 -1688 -160z"/>
</g>
</svg>
