<?xml version="1.0" standalone="no"?>
<!DOCTYPE svg PUBLIC "-//W3C//DTD SVG 20010904//EN"
 "http://www.w3.org/TR/2001/REC-SVG-20010904/DTD/svg10.dtd">
<svg version="1.0" xmlns="http://www.w3.org/2000/svg"
 width="512.000000pt" height="512.000000pt" viewBox="0 0 512.000000 512.000000"
 preserveAspectRatio="xMidYMid meet">

<g transform="translate(0.000000,512.000000) scale(0.100000,-0.100000)"
fill="#222222" stroke="none">
<path d="M2495 4616 c-16 -8 -42 -26 -57 -42 -18 -20 -198 -457 -591 -1439
-311 -775 -676 -1684 -810 -2020 l-245 -610 884 -3 c486 -1 1282 -1 1768 0
l884 3 -356 888 c-256 638 -361 887 -372 887 -14 0 -36 -55 -164 -412 l-20
-57 21 -58 c12 -32 53 -141 92 -243 39 -102 102 -266 139 -365 l69 -180 -589
-3 c-323 -1 -853 -1 -1177 0 l-589 3 23 60 c13 33 53 137 89 230 35 94 193
508 351 920 157 413 310 813 340 890 30 77 87 228 128 335 41 107 105 275 142
372 48 126 73 179 87 183 42 14 55 -3 109 -146 29 -77 56 -142 60 -144 4 -3
19 11 34 31 39 52 133 143 178 172 20 13 37 30 37 36 0 6 -57 153 -126 326
-81 202 -135 325 -152 344 -50 53 -124 70 -187 42z"/>
<path d="M3291 3724 c-195 -52 -365 -224 -416 -420 -19 -75 -19 -223 0 -298
32 -121 130 -264 230 -333 l29 -21 -31 -83 c-18 -46 -122 -331 -233 -634 -110
-302 -209 -572 -220 -600 -11 -27 -35 -94 -54 -147 l-35 -98 147 0 147 0 129
353 c71 193 146 399 168 457 21 58 85 231 141 385 l103 280 94 6 c184 12 342
104 443 257 135 205 135 449 0 654 -76 116 -204 208 -339 243 -73 19 -231 19
-303 -1z"/>
</g>
</svg>
