<?xml version="1.0" encoding="UTF-8" standalone="no"?><!DOCTYPE svg PUBLIC "-//W3C//DTD SVG 1.1//EN" "http://www.w3.org/Graphics/SVG/1.1/DTD/svg11.dtd"><svg width="100%" height="100%" viewBox="0 0 267 313" version="1.1" xmlns="http://www.w3.org/2000/svg" xmlns:xlink="http://www.w3.org/1999/xlink" xml:space="preserve" style="fill-rule:evenodd;clip-rule:evenodd;stroke-linejoin:round;stroke-miterlimit:2;"><g id="layer1"><path id="path51" d="M265.138,49.167c-0,5.833 -5,10.833 -10.834,10.833l-95.833,0c-6.25,0 -10.834,-5 -10.834,-10.833l0,-38.334c0,-6.25 4.584,-10.833 10.834,-10.833l95.833,0c5.834,0 10.834,4.583 10.834,10.833l-0,38.334Zm-47.084,113.379l0,4.171c13.75,-0 34.583,-25 37.5,-27.5c2.5,-1.671 3.75,-1.671 4.584,-1.671c0.833,0.396 5,2.5 5,6.666c-0.392,2.084 -2.5,8.755 -4.167,16.255c-0,-0 -40.834,146.25 -42.084,147.079c-4.17,3.333 -10,4.171 -14.583,4.171c-2.5,-0 -12.083,-0.396 -12.083,-5.417c7.5,-27.5 37.5,-110.417 38.75,-116.667c0.391,-1.671 0.391,-3.333 0.391,-4.583c0,-2.079 -0.391,-3.75 -2.079,-3.75c-0.395,-0 -1.25,-0 -2.083,0.396c-5.417,2.916 -9.167,4.579 -15,6.25c-4.583,1.666 -10.417,2.916 -16.25,2.916c-7.917,0 -15.833,-2.5 -22.5,-7.083c-6.25,-5 -11.25,-12.5 -11.25,-21.25c-0,-15.417 12.5,-27.917 27.917,-27.917c15.416,0 27.916,12.5 27.916,27.917l0.021,0.017Zm-186.021,8.704l-20.416,-25c-0,0 -4.167,-4.167 -4.167,-10c-0,-3.333 1.667,-7.917 5.833,-12.083c18.75,-19.584 25,-37.5 25,-52.917c0,-30 -23.75,-51.25 -25.416,-55.833c-1.25,-2.5 -1.667,-4.584 -1.667,-6.667c-0,-5.833 4.167,-8.75 8.333,-8.75c2.5,-0 5.417,1.25 7.5,3.333c7.084,7.084 68.75,80.417 68.75,80.417c0,0 1.667,3.75 1.667,7.917c-0,2.079 -0.396,4.166 -1.667,6.25c-10.833,17.083 -25.833,37.083 -27.5,61.25l0,1.25l-0.396,2.916l0,1.25c0,23.334 12.917,38.75 28.75,57.917c4.584,5 15.417,18.75 15.417,23.75c0,1.25 -0.833,1.667 -2.083,1.667c-0.829,-0 -1.667,-0 -3.329,-0.392l-0.396,-0.396c-7.084,-2.5 -20.834,-7.083 -32.917,-7.083c-17.5,-0 -26.25,13.333 -26.25,30.416c0,3.75 0.396,7.5 1.671,10.834c0.829,3.75 5.417,15 10.833,15c3.329,2.921 6.667,6.25 6.667,10c-0,0.833 -0.396,1.671 -0.833,2.921c-0.392,1.666 -3.334,2.5 -6.25,2.5c-3.334,-0 -7.5,-1.25 -10.834,-3.75c-30.416,-23.334 -48.333,-43.75 -48.333,-64.584c-0,-20.416 14.167,-40 35.833,-40l3.334,1.25l1.666,0c1.667,0.392 5,1.25 6.667,1.25c2.083,0 3.75,-0.396 4.583,-2.083c0.392,-0.392 0.392,-1.25 0.392,-1.667c-0,-0.833 -1.667,-4.166 -2.5,-5.833c-5.417,-8.75 -11.25,-16.667 -17.917,-25l-0.025,-0.05Z" style="fill:#d082c4;fill-rule:nonzero;"/></g></svg>