<?xml version="1.0" encoding="UTF-8" standalone="no"?><!DOCTYPE svg PUBLIC "-//W3C//DTD SVG 1.1//EN" "http://www.w3.org/Graphics/SVG/1.1/DTD/svg11.dtd"><svg width="100%" height="100%" viewBox="0 0 325 671" version="1.1" xmlns="http://www.w3.org/2000/svg" xmlns:xlink="http://www.w3.org/1999/xlink" xml:space="preserve" style="fill-rule:evenodd;clip-rule:evenodd;stroke-linejoin:round;stroke-miterlimit:2;"><g id="Layer-1"><g id="use980"><path id="path996" d="M135.071,0c-40.096,-0.008 -72.604,32.488 -72.613,72.583c-0.004,40.105 32.513,72.084 72.613,72.613c45.667,0.587 92.054,-18.029 121.317,-42.646c-5.546,37.058 -30.392,133.196 -52.076,198.442c-20.762,10.762 -44.066,20.383 -61.462,19.533c1.525,-5.863 2.346,-11.892 2.346,-17.95c-0,-40.083 -32.5,-72.575 -72.583,-72.583c-40.096,-0.005 -72.605,32.487 -72.613,72.583c-0.008,40.108 32.508,72.087 72.613,72.617c44.125,0.583 90.641,-16.859 120.141,-40.242c-31.7,92.242 -109.187,289.483 -122.629,320.758c-5.742,13.355 45.554,14.88 49.388,3.225l204.212,-620.604c2.079,-6.321 -1.867,-12.779 -10.192,-3.304c-13.383,15.237 -27.145,25.387 -35.32,29.967c-23.055,12.916 -52.271,26.55 -72.913,25.541c1.529,-5.862 2.35,-11.891 2.35,-17.945c0,-40.088 -32.5,-72.58 -72.583,-72.584l0.004,-0.004Z" style="fill:#d082c4;fill-rule:nonzero;"/></g></g></svg>