<?xml version="1.0" encoding="UTF-8" standalone="no"?>
<svg
   xmlns:dc="http://purl.org/dc/elements/1.1/"
   xmlns:cc="http://creativecommons.org/ns#"
   xmlns:rdf="http://www.w3.org/1999/02/22-rdf-syntax-ns#"
   xmlns:svg="http://www.w3.org/2000/svg"
   xmlns="http://www.w3.org/2000/svg"
   width="5.3875999mm"
   height="6.3340721mm"
   viewBox="0 0 5.3875999 6.3340721"
   version="1.1"
   id="svg8">
  <defs
     id="defs2" />
  <metadata
     id="metadata5">
    <rdf:RDF>
      <cc:Work
         rdf:about="">
        <dc:format>image/svg+xml</dc:format>
        <dc:type
           rdf:resource="http://purl.org/dc/dcmitype/StillImage" />
        <dc:title></dc:title>
      </cc:Work>
    </rdf:RDF>
  </metadata>
  <g
     id="layer1">
    <path
       id="path51"
       style="stroke-width:0.264583"
       d="m 5.3876,0.999071 c 0,0.11853 -0.1016,0.22013 -0.22014,0.22013 H 3.22013 C 3.09313,1.219201 3,1.117601 3,0.999071 V 0.22013 C 3,0.09313 3.0931,0 3.22013,0 H 5.16746 C 5.286,0 5.3876,0.0931 5.3876,0.22013 Z m -0.956701,2.3039 v 0.0847 C 4.7103,3.387671 5.13363,2.87967 5.1929,2.82887 5.2437,2.79497 5.2691,2.79497 5.286,2.79497 c 0.0169,0.008 0.1016,0.0508 0.1016,0.13547 -0.008,0.0423 -0.0508,0.177801 -0.0847,0.330201 0,0 -0.829731,2.971801 -0.855131,2.988731 -0.0847,0.0677 -0.2032,0.0847 -0.29633,0.0847 -0.0508,0 -0.24554,-0.008 -0.24554,-0.11007 0.1524,-0.5588 0.762001,-2.243671 0.787401,-2.370671 0.008,-0.0339 0.008,-0.0677 0.008,-0.0931 0,-0.0423 -0.008,-0.0762 -0.0423,-0.0762 -0.008,0 -0.0254,0 -0.0423,0.008 -0.11006,0.0593 -0.186261,0.0931 -0.304801,0.127 -0.0931,0.0339 -0.21166,0.0593 -0.3302,0.0593 -0.16086,0 -0.32173,-0.0508 -0.4572,-0.14394 -0.127,-0.1016 -0.2286,-0.254 -0.2286,-0.4318 0,-0.313271 0.254,-0.567271 0.56727,-0.567271 0.31327,0 0.56727,0.254 0.56727,0.567271 z M 0.65094,3.479803 0.23608,2.971802 c 0,0 -0.0847,-0.0847 -0.0847,-0.2032 0,-0.0677 0.0339,-0.16087 0.1185287,-0.24554 0.381,-0.39793 0.508,-0.762 0.508,-1.075261 0,-0.6096 -0.4826,-1.0414 -0.51646,-1.13454 -0.0254,-0.0508 -0.0339,-0.0931 -0.0339,-0.13546 C 0.2275487,0.05926 0.3122487,0 0.3968787,0 c 0.0508,0 0.11007,0.0254 0.1524,0.0677 0.14394,0.14393 1.3970004,1.634071 1.3970004,1.634071 0,0 0.0339,0.0762 0.0339,0.16086 0,0.0423 -0.008,0.0847 -0.0339,0.127 -0.2201297,0.34714 -0.5249297,0.75354 -0.5587997,1.2446 v 0.0254 l -0.008,0.0593 v 0.0254 c 0,0.47413 0.26246,0.7874 0.5841997,1.17687 0.0931,0.1016 0.31326,0.381 0.31326,0.4826 0,0.0254 -0.0169,0.0339 -0.0423,0.0339 -0.0169,0 -0.0339,0 -0.0677,-0.008 l -0.008,-0.008 c -0.14393,-0.0508 -0.4233297,-0.14393 -0.6688697,-0.14393 -0.3556007,0 -0.5334007,0.27093 -0.5334007,0.618061 0,0.0762 0.008,0.1524 0.0339,0.22014 0.0169,0.0762 0.11007,0.3048 0.22013,0.3048 0.0677,0.0593 0.1354707,0.127 0.1354707,0.2032 0,0.0169 -0.008,0.0339 -0.0169,0.0593 -0.008,0.0339 -0.0677,0.0508 -0.1270007,0.0508 -0.0677,0 -0.1524,-0.0254 -0.22014,-0.0762 C 0.3640687,5.783742 0,5.368872 0,4.945541 c 0,-0.41487 0.2878687,-0.8128 0.7281287,-0.8128 l 0.0677,0.0254 h 0.0339 c 0.0339,0.008 0.1016,0.0254 0.13547,0.0254 0.0423,0 0.0762,-0.008 0.0931,-0.0423 0.008,-0.008 0.008,-0.0254 0.008,-0.0339 0,-0.0169 -0.0339,-0.0847 -0.0508,-0.11853 -0.11007,-0.1778 -0.2286,-0.33867 -0.364069,-0.508 z" />
  </g>
</svg>
