<?xml version="1.0" encoding="UTF-8" standalone="no"?><!DOCTYPE svg PUBLIC "-//W3C//DTD SVG 1.1//EN" "http://www.w3.org/Graphics/SVG/1.1/DTD/svg11.dtd"><svg width="100%" height="100%" viewBox="0 0 100 100" version="1.1" xmlns="http://www.w3.org/2000/svg" xmlns:xlink="http://www.w3.org/1999/xlink" xml:space="preserve" style="fill-rule:evenodd;clip-rule:evenodd;stroke-linejoin:round;stroke-miterlimit:2;"><path id="surface1" d="M50,12.5l-25,25l-16.667,0l0,25l16.667,0l25,25l0,-75Zm8.333,0.392l0,8.333c14.159,2.083 25,14.192 25,28.775c0,14.583 -10.841,26.692 -25,28.775l0,8.333c18.75,-2.083 33.334,-17.933 33.334,-37.108c-0,-19.175 -14.584,-35.025 -33.334,-37.108Zm0,20.833l0,32.163c7.338,-1.725 12.551,-8.351 12.5,-15.888c0,-7.908 -5.416,-14.192 -12.5,-16.275Z" style="fill:#afcfa4;fill-rule:nonzero;"/></svg>